SplineFontDB: 3.2
FontName: Untitled1
FullName: Untitled1
FamilyName: Untitled1
Weight: Regular
Copyright: Copyright (c) 2024, Daniel
UComments: "2024-6-16: Created with FontForge (http://fontforge.org)"
Version: 001.000
ItalicAngle: 0
UnderlinePosition: -100
UnderlineWidth: 50
Ascent: 800
Descent: 200
InvalidEm: 0
LayerCount: 2
Layer: 0 0 "Back" 1
Layer: 1 0 "Fore" 0
XUID: [1021 863 1782252913 5078381]
OS2Version: 0
OS2_WeightWidthSlopeOnly: 0
OS2_UseTypoMetrics: 1
CreationTime: 1718570017
ModificationTime: 1718570509
OS2TypoAscent: 0
OS2TypoAOffset: 1
OS2TypoDescent: 0
OS2TypoDOffset: 1
OS2TypoLinegap: 0
OS2WinAscent: 0
OS2WinAOffset: 1
OS2WinDescent: 0
OS2WinDOffset: 1
HheadAscent: 0
HheadAOffset: 1
HheadDescent: 0
HheadDOffset: 1
OS2Vendor: 'PfEd'
Lookup: 4 0 1 "ligatures" { "ligsubtable"  } ['liga' ('latn' <'dflt' > 'xsux' <'dflt' > ) ]
DEI: 91125
Encoding: ISO8859-1
UnicodeInterp: none
NameList: AGL For New Fonts
DisplaySize: -48
AntiAlias: 1
FitToEm: 0
BeginChars: 675 419

StartChar: U12038
Encoding: 256 73784 0
Width: 1250
VWidth: 100
Flags: W
HStem: 275 50<176.463 1149.8>
LayerCount: 2
Fore
SplineSet
123.505859375 491.623046875 m 0
 124.0078125 491.653320312 124.474609375 491.66796875 124.984375 491.66796875 c 0
 126.70703125 491.66796875 128.389648438 491.493164062 130.015625 491.16015625 c 0
 138.801757812 489.362304688 145.926757812 482.954101562 148.720703125 474.57421875 c 0
 164.936523438 425.926757812 174.169921875 375.583007812 176.462890625 325 c 1
 1125.00390625 325 l 2
 1138.80175781 325 1150.00390625 313.797851562 1150.00390625 300 c 0
 1150.00390625 286.202148438 1138.80175781 275 1125.00390625 275 c 2
 176.462890625 275 l 1
 174.169921875 224.416992188 164.936523438 174.073242188 148.720703125 125.42578125 c 0
 145.41015625 115.495117188 136.036132812 108.338867188 125 108.338867188 c 0
 122.23828125 108.338867188 119.58203125 108.787109375 117.09765625 109.615234375 c 0
 107.166992188 112.92578125 100.010742188 122.299804688 100.010742188 133.3359375 c 0
 100.010742188 136.09765625 100.458984375 138.75390625 101.287109375 141.23828125 c 0
 118.462890625 192.765625 127.051757812 246.37890625 127.052734375 299.9921875 c 0
 127.051757812 299.995117188 127.051757812 299.997070312 127.05078125 300 c 0
 127.051757812 300.002929688 127.051757812 300.004882812 127.052734375 300.0078125 c 0
 127.051757812 353.62109375 118.462890625 407.234375 101.287109375 458.76171875 c 0
 100.458984375 461.24609375 100 463.900390625 100 466.661132812 c 0
 100 477.698242188 107.166992188 487.07421875 117.09765625 490.384765625 c 0
 119.123046875 491.059570312 121.288085938 491.490234375 123.505859375 491.623046875 c 0
EndSplineSet
EndChar

StartChar: U12400
Encoding: 257 74752 1
Width: 1250
VWidth: 100
Flags: W
HStem: 275 50<176.463 459.736 509.795 1149.8>
VStem: 433.343 48.71<109.775 215.864 384.136 490.225>
LayerCount: 2
Fore
SplineSet
123.505859375 491.623046875 m 0
 124.0078125 491.653320312 124.474609375 491.66796875 124.984375 491.66796875 c 0
 126.70703125 491.66796875 128.389648438 491.493164062 130.015625 491.16015625 c 0
 138.801757812 489.362304688 145.926757812 482.954101562 148.720703125 474.57421875 c 0
 164.936523438 425.926757812 174.169921875 375.583007812 176.462890625 325 c 1
 459.736328125 325 l 1
 457.48046875 370.237304688 449.125 415.244140625 434.619140625 458.76171875 c 0
 433.791015625 461.24609375 433.33203125 463.900390625 433.33203125 466.661132812 c 0
 433.33203125 477.698242188 440.499023438 487.07421875 450.4296875 490.384765625 c 0
 452.9140625 491.212890625 455.555664062 491.666992188 458.317382812 491.666992188 c 0
 460.040039062 491.666992188 461.72265625 491.493164062 463.34765625 491.16015625 c 0
 472.133789062 489.362304688 479.258789062 482.954101562 482.052734375 474.57421875 c 0
 498.268554688 425.926757812 507.501953125 375.583007812 509.794921875 325 c 1
 1125.00390625 325 l 2
 1138.80175781 325 1150.00390625 313.797851562 1150.00390625 300 c 0
 1150.00390625 286.202148438 1138.80175781 275 1125.00390625 275 c 2
 509.794921875 275 l 1
 507.501953125 224.416992188 498.268554688 174.073242188 482.052734375 125.42578125 c 0
 478.7421875 115.495117188 469.368164062 108.338867188 458.33203125 108.338867188 c 0
 455.5703125 108.338867188 452.9140625 108.787109375 450.4296875 109.615234375 c 0
 440.499023438 112.92578125 433.342773438 122.299804688 433.342773438 133.3359375 c 0
 433.342773438 136.09765625 433.791015625 138.75390625 434.619140625 141.23828125 c 0
 449.125 184.755859375 457.48046875 229.762695312 459.736328125 275 c 1
 176.462890625 275 l 1
 174.169921875 224.416992188 164.936523438 174.073242188 148.720703125 125.42578125 c 0
 145.41015625 115.495117188 136.036132812 108.338867188 125 108.338867188 c 0
 122.23828125 108.338867188 119.58203125 108.787109375 117.09765625 109.615234375 c 0
 107.166992188 112.92578125 100.010742188 122.299804688 100.010742188 133.3359375 c 0
 100.010742188 136.09765625 100.458984375 138.75390625 101.287109375 141.23828125 c 0
 118.462890625 192.765625 127.051757812 246.37890625 127.052734375 299.9921875 c 0
 127.051757812 299.995117188 127.051757812 299.997070312 127.05078125 300 c 0
 127.051757812 300.002929688 127.051757812 300.004882812 127.052734375 300.0078125 c 0
 127.051757812 353.62109375 118.462890625 407.234375 101.287109375 458.76171875 c 0
 100.458984375 461.24609375 100 463.900390625 100 466.661132812 c 0
 100 477.698242188 107.166992188 487.07421875 117.09765625 490.384765625 c 0
 119.123046875 491.059570312 121.288085938 491.490234375 123.505859375 491.623046875 c 0
EndSplineSet
EndChar

StartChar: U1212c
Encoding: 258 74028 2
Width: 1250
VWidth: 100
Flags: W
HStem: 275 50<176.463 459.736 509.795 1149.8>
VStem: 433.343 48.71<109.775 215.864 384.136 490.225>
LayerCount: 2
Fore
SplineSet
123.505859375 491.623046875 m 0
 124.0078125 491.653320312 124.474609375 491.66796875 124.984375 491.66796875 c 0
 126.70703125 491.66796875 128.389648438 491.493164062 130.015625 491.16015625 c 0
 138.801757812 489.362304688 145.926757812 482.954101562 148.720703125 474.57421875 c 0
 164.936523438 425.926757812 174.169921875 375.583007812 176.462890625 325 c 1
 459.736328125 325 l 1
 457.48046875 370.237304688 449.125 415.244140625 434.619140625 458.76171875 c 0
 433.791015625 461.24609375 433.33203125 463.900390625 433.33203125 466.661132812 c 0
 433.33203125 477.698242188 440.499023438 487.07421875 450.4296875 490.384765625 c 0
 452.9140625 491.212890625 455.555664062 491.666992188 458.317382812 491.666992188 c 0
 460.040039062 491.666992188 461.72265625 491.493164062 463.34765625 491.16015625 c 0
 472.133789062 489.362304688 479.258789062 482.954101562 482.052734375 474.57421875 c 0
 498.268554688 425.926757812 507.501953125 375.583007812 509.794921875 325 c 1
 1125.00390625 325 l 2
 1138.80175781 325 1150.00390625 313.797851562 1150.00390625 300 c 0
 1150.00390625 286.202148438 1138.80175781 275 1125.00390625 275 c 2
 509.794921875 275 l 1
 507.501953125 224.416992188 498.268554688 174.073242188 482.052734375 125.42578125 c 0
 478.7421875 115.495117188 469.368164062 108.338867188 458.33203125 108.338867188 c 0
 455.5703125 108.338867188 452.9140625 108.787109375 450.4296875 109.615234375 c 0
 440.499023438 112.92578125 433.342773438 122.299804688 433.342773438 133.3359375 c 0
 433.342773438 136.09765625 433.791015625 138.75390625 434.619140625 141.23828125 c 0
 449.125 184.755859375 457.48046875 229.762695312 459.736328125 275 c 1
 176.462890625 275 l 1
 174.169921875 224.416992188 164.936523438 174.073242188 148.720703125 125.42578125 c 0
 145.41015625 115.495117188 136.036132812 108.338867188 125 108.338867188 c 0
 122.23828125 108.338867188 119.58203125 108.787109375 117.09765625 109.615234375 c 0
 107.166992188 112.92578125 100.010742188 122.299804688 100.010742188 133.3359375 c 0
 100.010742188 136.09765625 100.458984375 138.75390625 101.287109375 141.23828125 c 0
 118.462890625 192.765625 127.051757812 246.37890625 127.052734375 299.9921875 c 0
 127.051757812 299.995117188 127.051757812 299.997070312 127.05078125 300 c 0
 127.051757812 300.002929688 127.051757812 300.004882812 127.052734375 300.0078125 c 0
 127.051757812 353.62109375 118.462890625 407.234375 101.287109375 458.76171875 c 0
 100.458984375 461.24609375 100 463.900390625 100 466.661132812 c 0
 100 477.698242188 107.166992188 487.07421875 117.09765625 490.384765625 c 0
 119.123046875 491.059570312 121.288085938 491.490234375 123.505859375 491.623046875 c 0
EndSplineSet
EndChar

StartChar: U1227e
Encoding: 259 74366 3
Width: 2250
VWidth: 100
Flags: W
HStem: 176.283 48.7207<520.181 554.902 779.678 888.53> 275 50<176.463 459.736 509.795 1149.8 1433.53 1549.82 1700.2 1815.23> 375 328.363<533.909 716.099> 450 50<583.336 600.004 650.004 666.672 716.672 783.135> 525 50<583.336 600.004 650.004 666.672 716.672 783.135> 600 50<583.336 600.004 650.004 666.672 716.672 783.135> 676.283 48.7217<717.671 781.893>
VStem: 100.011 48.71<109.775 214.859 385.141 490.225> 433.343 48.71<109.775 215.864 469.389 490.225> 491.014 92.3223<500.745 525 575 599.421> 533.336 50<375.201 450 650 655.332> 600.004 50<375.201 450 500 525 575 600 650 655.308> 666.672 50<375.201 450 500 525 575 600 650 655.332> 679.98 50<-124.799 149.652> 1174.79 49.748<-373.731 -261.693 861.693 973.731> 1600 50<-224.799 9.54883 90.4492 248.541>
LayerCount: 2
Fore
SplineSet
1203.07421875 973.818359375 m 0xc193
 1215.1875 972.087890625 1224.5390625 961.68359375 1224.5390625 949.094726562 c 0
 1224.5390625 947.88671875 1224.453125 946.698242188 1224.28710938 945.53515625 c 0
 1217.03613281 894.7734375 1202.78125 845.615234375 1182.2109375 799.34765625 c 1
 1182.2109375 799.34765625 2136.18066406 322.36328125 2136.18359375 322.361328125 c 0
 2136.92089844 321.947265625 2137.63183594 321.499023438 2138.3203125 321.015625 c 0
 2138.56738281 320.866210938 2138.81152344 320.713867188 2139.05273438 320.556640625 c 0
 2142.46679688 318.2265625 2145.23535156 315.112304688 2147.15039062 311.421875 c 0
 2147.22265625 311.340820312 2147.29394531 311.26171875 2147.36523438 311.1796875 c 0
 2147.59472656 310.638671875 2147.81054688 310.075195312 2148.00195312 309.515625 c 0
 2148.32421875 308.78125 2148.61914062 308.012695312 2148.87109375 307.244140625 c 0
 2149.08886719 306.467773438 2149.2734375 305.66015625 2149.41601562 304.85546875 c 0
 2149.59082031 304.067382812 2149.72949219 303.255859375 2149.828125 302.44140625 c 0
 2149.875 301.813476562 2149.89941406 301.2109375 2149.89941406 300.571289062 c 0
 2149.89941406 300.379882812 2149.89648438 300.189453125 2149.89257812 300 c 0
 2149.89648438 299.810546875 2149.89941406 299.65234375 2149.89941406 299.461914062 c 0
 2149.89941406 298.821289062 2149.875 298.186523438 2149.828125 297.55859375 c 0
 2149.72949219 296.744140625 2149.59082031 295.932617188 2149.41601562 295.14453125 c 0
 2149.2734375 294.33984375 2149.08886719 293.532226562 2148.87109375 292.755859375 c 0
 2148.61914062 291.987304688 2148.32421875 291.21875 2148.00195312 290.484375 c 0
 2147.81054688 289.924804688 2147.59472656 289.361328125 2147.36523438 288.8203125 c 0
 2147.29394531 288.73828125 2147.22265625 288.659179688 2147.15039062 288.578125 c 0
 2145.23535156 284.887695312 2142.46679688 281.7734375 2139.05273438 279.443359375 c 0
 2138.81152344 279.286132812 2138.56738281 279.133789062 2138.3203125 278.984375 c 0
 2137.63183594 278.500976562 2136.92089844 278.052734375 2136.18359375 277.638671875 c 2
 1650.00390625 34.548828125 l 1
 1650.00390625 -200 l 2
 1650.00390625 -213.797851562 1638.80175781 -225 1625.00390625 -225 c 0
 1611.20605469 -225 1600.00390625 -213.797851562 1600.00390625 -200 c 2
 1600.00390625 9.548828125 l 1
 1182.20898438 -199.34765625 l 1
 1202.77929688 -245.615234375 1217.03613281 -294.772460938 1224.28710938 -345.53515625 c 0
 1224.453125 -346.698242188 1224.51269531 -347.862304688 1224.51269531 -349.0703125 c 0
 1224.51269531 -361.659179688 1215.1875 -372.087890625 1203.07421875 -373.818359375 c 0
 1201.91113281 -373.984375 1200.74707031 -374.043945312 1199.5390625 -374.043945312 c 0
 1186.95019531 -374.043945312 1176.52148438 -364.71875 1174.79101562 -352.60546875 c 0
 1167.11132812 -298.838867188 1150.81445312 -247.045898438 1126.83789062 -199.091796875 c 0
 1126.83691406 -199.08984375 1126.83496094 -199.087890625 1126.83398438 -199.0859375 c 0
 1126.83300781 -199.083984375 1126.83300781 -199.08203125 1126.83203125 -199.080078125 c 0
 1102.85449219 -151.126953125 1071.19628906 -107.013671875 1032.79101562 -68.607421875 c 0
 1028.265625 -64.08203125 1025.46484375 -57.8251953125 1025.46484375 -50.92578125 c 0
 1025.46484375 -44.02734375 1028.265625 -37.77734375 1032.79101562 -33.251953125 c 0
 1035.84667969 -30.1962890625 1039.70019531 -27.9326171875 1043.99804688 -26.78125 c 0
 1046.06445312 -26.2275390625 1048.23144531 -25.92578125 1050.47167969 -25.92578125 c 0
 1057.37109375 -25.92578125 1063.62109375 -28.7265625 1068.14648438 -33.251953125 c 0
 1104.40527344 -69.51171875 1135.17773438 -110.411132812 1159.84960938 -154.62890625 c 1
 1600.00390625 65.44921875 l 1
 1600.00390625 248.541015625 l 1
 1549.42089844 250.833984375 1499.07714844 260.067382812 1450.4296875 276.283203125 c 0
 1440.49902344 279.59375 1433.34277344 288.967773438 1433.34277344 300.00390625 c 0
 1433.34277344 302.765625 1433.79101562 305.421875 1434.61914062 307.90625 c 0
 1437.41308594 316.286132812 1444.53808594 322.694335938 1453.32421875 324.4921875 c 0
 1454.94921875 324.825195312 1456.6171875 324.993164062 1458.34082031 324.993164062 c 0
 1461.1015625 324.993164062 1463.7578125 324.544921875 1466.2421875 323.716796875 c 0
 1517.76855469 306.541015625 1571.38183594 297.952148438 1624.99414062 297.951171875 c 0
 1624.99707031 297.952148438 1625.00097656 297.952148438 1625.00390625 297.953125 c 0
 1625.01269531 297.952148438 1625.02050781 297.952148438 1625.02929688 297.951171875 c 0
 1678.63671875 297.954101562 1732.24414062 306.54296875 1783.765625 323.716796875 c 0
 1786.25 324.544921875 1788.90429688 325.00390625 1791.66503906 325.00390625 c 0
 1802.70214844 325.00390625 1812.078125 317.836914062 1815.38867188 307.90625 c 0
 1816.21679688 305.421875 1816.67578125 302.767578125 1816.67578125 300.006835938 c 0
 1816.67578125 288.969726562 1809.50878906 279.59375 1799.578125 276.283203125 c 0
 1750.93066406 260.067382812 1700.58691406 250.833984375 1650.00390625 248.541015625 c 1
 1650.00390625 90.44921875 l 1
 2069.1015625 300 l 1
 1159.84960938 754.62890625 l 1
 1135.17773438 710.411132812 1104.40527344 669.51171875 1068.14648438 633.251953125 c 0
 1063.62109375 628.7265625 1057.36425781 625.92578125 1050.46484375 625.92578125 c 0
 1043.56640625 625.92578125 1037.31640625 628.7265625 1032.79101562 633.251953125 c 0
 1028.265625 637.77734375 1025.46484375 644.034179688 1025.46484375 650.93359375 c 0
 1025.46484375 657.83203125 1028.265625 664.08203125 1032.79101562 668.607421875 c 0
 1071.19628906 707.013671875 1102.85449219 751.126953125 1126.83203125 799.080078125 c 0
 1126.83300781 799.08203125 1126.83300781 799.083984375 1126.83398438 799.0859375 c 0
 1126.83496094 799.087890625 1126.83691406 799.08984375 1126.83789062 799.091796875 c 0
 1150.81445312 847.045898438 1167.11132812 898.838867188 1174.79101562 952.60546875 c 0
 1176.52148438 964.71875 1186.92578125 974.0703125 1199.51464844 974.0703125 c 0
 1200.72265625 974.0703125 1201.91113281 973.984375 1203.07421875 973.818359375 c 0xc193
758.146484375 725 m 0
 758.2109375 725 758.264648438 725.004882812 758.329101562 725.004882812 c 0
 769.366210938 725.004882812 778.7421875 717.836914062 782.052734375 707.90625 c 0
 782.880859375 705.421875 783.33984375 702.767578125 783.33984375 700.006835938 c 0
 783.33984375 688.969726562 776.171875 679.592773438 766.240234375 676.283203125 c 0
 749.92578125 670.845703125 733.374023438 666.39453125 716.671875 662.892578125 c 1
 716.671875 650 l 1
 758.3359375 650 l 2
 772.133789062 650 783.3359375 638.797851562 783.3359375 625 c 0
 783.3359375 611.202148438 772.133789062 600 758.3359375 600 c 2
 716.671875 600 l 1
 716.671875 575 l 1
 758.3359375 575 l 2
 772.133789062 575 783.3359375 563.797851562 783.3359375 550 c 0
 783.3359375 536.202148438 772.133789062 525 758.3359375 525 c 2
 716.671875 525 l 1
 716.671875 500 l 1
 758.3359375 500 l 2
 772.133789062 500 783.3359375 488.797851562 783.3359375 475 c 0
 783.3359375 461.202148438 772.133789062 450 758.3359375 450 c 2
 716.671875 450 l 1xdfdb
 716.671875 400 l 2
 716.671875 386.202148438 705.469726562 375 691.671875 375 c 0xe1db
 677.874023438 375 666.671875 386.202148438 666.671875 400 c 2
 666.671875 450 l 1
 650.00390625 450 l 1xd1db
 650.00390625 400 l 2
 650.00390625 386.202148438 638.801757812 375 625.00390625 375 c 0xe1db
 611.206054688 375 600.00390625 386.202148438 600.00390625 400 c 2
 600.00390625 450 l 1
 583.3359375 450 l 1xd1bb
 583.3359375 400 l 2
 583.3359375 386.202148438 572.133789062 375 558.3359375 375 c 0xe1bb
 544.538085938 375 533.3359375 386.202148438 533.3359375 400 c 2
 533.3359375 450 l 1
 530.890625 450 l 1xd1bb
 526.901367188 430.482421875 521.73828125 411.14453125 515.388671875 392.095703125 c 0
 513.45703125 386.54296875 509.655273438 381.901367188 504.69921875 378.908203125 c 1
 507.283203125 361.012695312 508.978515625 343.022460938 509.794921875 325 c 1
 1125.00390625 325 l 2
 1138.80175781 325 1150.00390625 313.797851562 1150.00390625 300 c 0
 1150.00390625 286.202148438 1138.80175781 275 1125.00390625 275 c 2
 509.794921875 275 l 1
 507.501953125 224.416992188 498.268554688 174.073242188 482.052734375 125.42578125 c 0
 478.7421875 115.495117188 469.368164062 108.338867188 458.33203125 108.338867188 c 0
 455.5703125 108.338867188 452.9140625 108.787109375 450.4296875 109.615234375 c 0
 440.499023438 112.92578125 433.342773438 122.299804688 433.342773438 133.3359375 c 0
 433.342773438 136.09765625 433.791015625 138.75390625 434.619140625 141.23828125 c 0
 449.125 184.755859375 457.48046875 229.762695312 459.736328125 275 c 1
 176.462890625 275 l 1
 174.169921875 224.416992188 164.936523438 174.073242188 148.720703125 125.42578125 c 0
 145.41015625 115.495117188 136.036132812 108.338867188 125 108.338867188 c 0
 122.23828125 108.338867188 119.58203125 108.787109375 117.09765625 109.615234375 c 0
 107.166992188 112.92578125 100.010742188 122.299804688 100.010742188 133.3359375 c 0
 100.010742188 136.09765625 100.458984375 138.75390625 101.287109375 141.23828125 c 0
 118.462890625 192.765625 127.051757812 246.37890625 127.052734375 299.9921875 c 0
 127.051757812 299.995117188 127.051757812 299.997070312 127.05078125 300 c 0
 127.051757812 300.002929688 127.051757812 300.004882812 127.052734375 300.0078125 c 0
 127.051757812 353.62109375 118.462890625 407.234375 101.287109375 458.76171875 c 0
 100.458984375 461.24609375 100 463.900390625 100 466.661132812 c 0
 100 477.698242188 107.166992188 487.07421875 117.09765625 490.384765625 c 0
 119.58203125 491.212890625 122.223632812 491.666992188 124.985351562 491.666992188 c 0
 126.708007812 491.666992188 128.390625 491.493164062 130.015625 491.16015625 c 0
 138.801757812 489.362304688 145.926757812 482.954101562 148.720703125 474.57421875 c 0
 164.936523438 425.926757812 174.169921875 375.583007812 176.462890625 325 c 1
 459.736328125 325 l 1
 457.48046875 370.237304688 449.125 415.244140625 434.619140625 458.76171875 c 0
 433.791015625 461.24609375 433.33203125 463.900390625 433.33203125 466.661132812 c 0
 433.33203125 477.698242188 440.499023438 487.07421875 450.4296875 490.384765625 c 0
 452.9140625 491.212890625 455.555664062 491.666992188 458.317382812 491.666992188 c 0
 460.040039062 491.666992188 461.72265625 491.493164062 463.34765625 491.16015625 c 0
 472.133789062 489.362304688 479.258789062 482.954101562 482.052734375 474.57421875 c 0
 482.627929688 472.849609375 483.165039062 471.1171875 483.72265625 469.388671875 c 1
 488.581054688 496.033203125 491.012695312 523.009765625 491.013671875 549.986328125 c 0
 491.012695312 549.991210938 491.012695312 549.995117188 491.01171875 550 c 0
 491.012695312 550.004882812 491.012695312 550.008789062 491.013671875 550.013671875 c 0
 491.01171875 597.997070312 483.325195312 645.98046875 467.955078125 692.095703125 c 0
 467.944335938 692.158203125 467.93359375 692.220703125 467.923828125 692.283203125 c 0
 467.607421875 693.551757812 467.385742188 694.872070312 467.271484375 696.208984375 c 0
 466.989257812 697.436523438 466.794921875 698.706054688 466.701171875 699.994140625 c 0
 466.794921875 701.333984375 466.99609375 702.65234375 467.29296875 703.92578125 c 0
 467.40625 705.215820312 467.62109375 706.490234375 467.923828125 707.716796875 c 0
 467.93359375 707.779296875 467.944335938 707.84375 467.955078125 707.90625 c 0
 468.725585938 710.150390625 469.813476562 712.268554688 471.154296875 714.173828125 c 0
 471.576171875 714.701171875 472.009765625 715.202148438 472.47265625 715.693359375 c 0
 473.5703125 717.0703125 474.78515625 718.302734375 476.14453125 719.419921875 c 0
 476.836914062 719.943359375 477.55078125 720.426757812 478.296875 720.876953125 c 0
 479.608398438 721.72265625 481.014648438 722.455078125 482.478515625 723.046875 c 0
 482.899414062 723.28125 483.33203125 723.505859375 483.767578125 723.716796875 c 0
 484.25 723.825195312 484.74609375 723.921875 485.23828125 724.001953125 c 0
 485.702148438 724.177734375 486.18359375 724.34375 486.66015625 724.4921875 c 0
 487.248046875 724.5546875 487.830078125 724.595703125 488.4296875 724.6171875 c 0
 489.498046875 724.763671875 490.565429688 724.840820312 491.671875 724.84765625 c 0
 492.778320312 724.840820312 493.845703125 724.763671875 494.9140625 724.6171875 c 0
 495.513671875 724.595703125 496.095703125 724.5546875 496.68359375 724.4921875 c 0
 497.158203125 724.34375 497.637695312 724.177734375 498.099609375 724.001953125 c 0
 498.594726562 723.921875 499.092773438 723.825195312 499.578125 723.716796875 c 0
 540.287597656 710.147460938 582.645751953 703.362792969 625.00390625 703.362792969 c 0xe1d3
 667.362060547 703.362792969 709.720214844 710.147460938 750.4296875 723.716796875 c 0
 752.85546875 724.525390625 755.455078125 724.979492188 758.146484375 725 c 0
527.78125 664.078125 m 1
 528.879882812 659.396484375 529.928710938 654.704101562 530.890625 650 c 1
 533.3359375 650 l 1
 533.3359375 662.892578125 l 2xc5b3
 531.483398438 663.28125 529.629882812 663.666015625 527.78125 664.078125 c 1
583.3359375 655.33203125 m 1
 583.3359375 650 l 1
 600.00390625 650 l 1
 600.00390625 654.080078125 l 1
 594.442382812 654.391601562 588.885742188 654.8125 583.3359375 655.33203125 c 1
666.671875 655.33203125 m 1xc59b
 661.122070312 654.8125 655.565429688 654.391601562 650.00390625 654.080078125 c 1
 650.00390625 650 l 1
 666.671875 650 l 1
 666.671875 655.33203125 l 1xc59b
583.3359375 600 m 1xcdb3
 583.3359375 575 l 1xcdd3
 600.00390625 575 l 1
 600.00390625 600 l 1
 583.3359375 600 l 1xcdb3
650.00390625 600 m 1
 650.00390625 575 l 1
 666.671875 575 l 1
 666.671875 600 l 1xcd9b
 650.00390625 600 l 1
583.3359375 525 m 1xd9d3
 583.3359375 500 l 1xd9b3
 600.00390625 500 l 1
 600.00390625 525 l 1
 583.3359375 525 l 1xd9d3
650.00390625 525 m 1
 650.00390625 500 l 1
 666.671875 500 l 1
 666.671875 525 l 1xd99b
 650.00390625 525 l 1
619.98828125 225 m 0
 626.88671875 225 633.140625 222.203125 637.666015625 217.677734375 c 0
 641.549804688 213.784179688 644.15625 208.587890625 644.806640625 202.83203125 c 1
 664.800488485 200.310638786 684.914333202 199.049561466 705.028055876 199.049561466 c 0
 756.37440435 199.049561466 807.719957498 207.267746727 857.06640625 223.716796875 c 0
 859.55078125 224.544921875 862.205078125 225.00390625 864.965820312 225.00390625 c 0
 876.002929688 225.00390625 885.37890625 217.836914062 888.689453125 207.90625 c 0
 889.517578125 205.421875 889.9765625 202.767578125 889.9765625 200.006835938 c 0
 889.9765625 188.969726562 882.809570312 179.59375 872.87890625 176.283203125 c 0
 826.399414062 160.790039062 778.307617188 151.9296875 729.98046875 149.65234375 c 1
 729.98046875 -100 l 2
 729.98046875 -113.797851562 718.778320312 -125 704.98046875 -125 c 0
 691.182617188 -125 679.98046875 -113.797851562 679.98046875 -100 c 2
 679.98046875 149.65234375 l 1xc197
 657.393554688 150.716796875 634.859375 153.220703125 612.515625 157.171875 c 1
 580.34375 125 l 1
 580.34375 125 637.663085938 67.6494140625 637.666015625 67.677734375 c 1
 641.704101562 63.6396484375 644.366210938 58.2001953125 644.892578125 52.1796875 c 0
 644.956054688 51.453125 644.98828125 50.7421875 644.98828125 50 c 0
 644.98828125 43.8896484375 642.784179688 38.2744140625 639.138671875 33.9296875 c 0
 638.66796875 33.3681640625 638.18359375 32.83984375 637.666015625 32.322265625 c 2
 580.34375 -25 l 1
 580.34375 -25 637.666015625 -82.3291015625 637.666015625 -82.322265625 c 1
 642.19140625 -86.84765625 644.9921875 -93.1044921875 644.9921875 -100.00390625 c 0
 644.9921875 -106.90234375 642.19140625 -113.15234375 637.666015625 -117.677734375 c 0
 633.140625 -122.203125 626.883789062 -125.00390625 619.984375 -125.00390625 c 0
 613.0859375 -125.00390625 606.8359375 -122.203125 602.310546875 -117.677734375 c 2
 602.310546875 -117.677734375 527.310546875 -42.6708984375 527.310546875 -42.677734375 c 1
 522.786132812 -38.15234375 519.985351562 -31.8955078125 519.985351562 -24.99609375 c 0
 519.985351562 -18.09765625 522.786132812 -11.84765625 527.310546875 -7.322265625 c 2
 584.6328125 50 l 1
 584.6328125 50 527.310546875 107.329101562 527.310546875 107.322265625 c 1
 522.786132812 111.84765625 519.985351562 118.104492188 519.985351562 125.00390625 c 0
 519.985351562 131.90234375 522.786132812 138.15234375 527.310546875 142.677734375 c 2
 555.2421875 170.609375 l 1
 549.165039062 172.395507812 543.108398438 174.274414062 537.08203125 176.283203125 c 0
 527.151367188 179.59375 519.995117188 188.967773438 519.995117188 200.00390625 c 0
 519.995117188 202.765625 520.443359375 205.421875 521.271484375 207.90625 c 0
 524.065429688 216.286132812 531.190429688 222.694335938 539.9765625 224.4921875 c 0
 541.6015625 224.825195312 543.26953125 224.993164062 544.993164062 224.993164062 c 0
 547.75390625 224.993164062 550.41015625 224.544921875 552.89453125 223.716796875 c 0
 567.165039062 218.959960938 581.607421875 214.913085938 596.1640625 211.53125 c 1
 596.1640625 211.53125 602.321289062 217.670898438 602.310546875 217.677734375 c 1
 605.366210938 220.733398438 609.219726562 222.997070312 613.517578125 224.1484375 c 0
 615.583984375 224.702148438 617.749023438 225 619.98828125 225 c 0
EndSplineSet
EndChar

StartChar: U12044
Encoding: 260 73796 4
Width: 1750
VWidth: 100
Flags: W
HStem: 275 50<176.463 345.154 395.213 770.898 993.754 1649.8> 776.283 48.7217<777.278 883.613 1053.9 1158.98>
VStem: 100.011 48.71<109.775 214.858 385.142 490.225> 318.761 48.71<109.775 215.864 384.136 490.225> 943.754 50<-224.799 102.145 172.855 275 325 427.145 497.855 748.541>
LayerCount: 2
Fore
SplineSet
1135.23242188 825 m 0
 1135.296875 825 1135.35058594 825.004882812 1135.41503906 825.004882812 c 0
 1146.45214844 825.004882812 1155.828125 817.836914062 1159.13867188 807.90625 c 0
 1159.96679688 805.421875 1160.42578125 802.767578125 1160.42578125 800.006835938 c 0
 1160.42578125 788.969726562 1153.25878906 779.59375 1143.328125 776.283203125 c 0
 1094.68066406 760.067382812 1044.33691406 750.833984375 993.75390625 748.541015625 c 1
 993.75390625 325 l 1
 1625.00390625 325 l 2
 1638.80175781 325 1650.00390625 313.797851562 1650.00390625 300 c 0
 1650.00390625 286.202148438 1638.80175781 275 1625.00390625 275 c 2
 993.75390625 275 l 1
 993.75390625 -200 l 2
 993.75390625 -213.797851562 982.551757812 -225 968.75390625 -225 c 0
 954.956054688 -225 943.75390625 -213.797851562 943.75390625 -200 c 2
 943.75390625 102.14453125 l 1
 770.8984375 275 l 1
 395.212890625 275 l 1
 392.919921875 224.416992188 383.686523438 174.073242188 367.470703125 125.42578125 c 0
 364.16015625 115.495117188 354.786132812 108.338867188 343.75 108.338867188 c 0
 340.98828125 108.338867188 338.33203125 108.787109375 335.84765625 109.615234375 c 0
 325.916992188 112.92578125 318.760742188 122.299804688 318.760742188 133.3359375 c 0
 318.760742188 136.09765625 319.208984375 138.75390625 320.037109375 141.23828125 c 0
 334.54296875 184.755859375 342.8984375 229.762695312 345.154296875 275 c 1
 176.462890625 275 l 1
 174.169921875 224.416992188 164.936523438 174.073242188 148.720703125 125.42578125 c 0
 145.41015625 115.495117188 136.036132812 108.338867188 125 108.338867188 c 0
 122.23828125 108.338867188 119.58203125 108.787109375 117.09765625 109.615234375 c 0
 107.166992188 112.92578125 100.010742188 122.299804688 100.010742188 133.3359375 c 0
 100.010742188 136.09765625 100.458984375 138.75390625 101.287109375 141.23828125 c 0
 118.462890625 192.764648438 127.051757812 246.377929688 127.052734375 299.990234375 c 0
 127.051757812 299.993164062 127.051757812 299.997070312 127.05078125 300 c 0
 127.051757812 300.002929688 127.051757812 300.006835938 127.052734375 300.009765625 c 0
 127.051757812 353.622070312 118.462890625 407.235351562 101.287109375 458.76171875 c 0
 100.458984375 461.24609375 100 463.900390625 100 466.661132812 c 0
 100 477.698242188 107.166992188 487.07421875 117.09765625 490.384765625 c 0
 119.58203125 491.212890625 122.223632812 491.666992188 124.985351562 491.666992188 c 0
 126.708007812 491.666992188 128.390625 491.493164062 130.015625 491.16015625 c 0
 138.801757812 489.362304688 145.926757812 482.954101562 148.720703125 474.57421875 c 0
 164.936523438 425.926757812 174.169921875 375.583007812 176.462890625 325 c 1
 345.154296875 325 l 1
 342.8984375 370.237304688 334.54296875 415.244140625 320.037109375 458.76171875 c 0
 319.208984375 461.24609375 318.75 463.900390625 318.75 466.661132812 c 0
 318.75 477.698242188 325.916992188 487.07421875 335.84765625 490.384765625 c 0
 338.33203125 491.212890625 340.973632812 491.666992188 343.735351562 491.666992188 c 0
 345.458007812 491.666992188 347.140625 491.493164062 348.765625 491.16015625 c 0
 357.551757812 489.362304688 364.676757812 482.954101562 367.470703125 474.57421875 c 0
 383.686523438 425.926757812 392.919921875 375.583007812 395.212890625 325 c 1
 770.8984375 325 l 1
 943.75390625 497.85546875 l 1
 943.75390625 748.541015625 l 1
 893.170898438 750.833984375 842.827148438 760.067382812 794.1796875 776.283203125 c 0
 784.249023438 779.59375 777.092773438 788.967773438 777.092773438 800.00390625 c 0
 777.092773438 802.765625 777.541015625 805.421875 778.369140625 807.90625 c 0
 781.163085938 816.286132812 788.288085938 822.694335938 797.07421875 824.4921875 c 0
 798.69921875 824.825195312 800.3671875 824.993164062 802.090820312 824.993164062 c 0
 804.8515625 824.993164062 807.5078125 824.544921875 809.9921875 823.716796875 c 0
 861.51953125 806.541015625 915.1328125 797.952148438 968.74609375 797.951171875 c 0
 968.749023438 797.952148438 968.750976562 797.952148438 968.75390625 797.953125 c 0
 968.760742188 797.952148438 968.766601562 797.952148438 968.7734375 797.951171875 c 0
 1022.3828125 797.953125 1075.9921875 806.541992188 1127.515625 823.716796875 c 0
 1129.94140625 824.525390625 1132.54101562 824.979492188 1135.23242188 825 c 0
1382.390625 824.904296875 m 0
 1388.41113281 824.377929688 1393.85058594 821.715820312 1397.88867188 817.677734375 c 0
 1402.4140625 813.15234375 1405.21484375 806.895507812 1405.21484375 799.99609375 c 0
 1405.21484375 793.09765625 1402.4140625 786.84765625 1397.88867188 782.322265625 c 2
 1248.90234375 633.33203125 l 1
 1248.90234375 633.33203125 1397.88867188 484.338867188 1397.88867188 484.345703125 c 1
 1402.4140625 479.8203125 1405.21484375 473.563476562 1405.21484375 466.6640625 c 0
 1405.21484375 459.765625 1402.4140625 453.515625 1397.88867188 448.990234375 c 0
 1393.36328125 444.46484375 1387.10644531 441.6640625 1380.20703125 441.6640625 c 0
 1373.30859375 441.6640625 1367.05859375 444.46484375 1362.53320312 448.990234375 c 2
 1362.53320312 448.990234375 1195.86914062 615.661132812 1195.86914062 615.654296875 c 1
 1191.34472656 620.1796875 1188.54394531 626.436523438 1188.54394531 633.3359375 c 0
 1188.54394531 640.234375 1191.34472656 646.484375 1195.86914062 651.009765625 c 2
 1195.86914062 651.009765625 1362.54394531 817.670898438 1362.53320312 817.677734375 c 1
 1365.58886719 820.733398438 1369.44238281 822.997070312 1373.74023438 824.1484375 c 0
 1375.80566406 824.702148438 1377.94433594 825.000976562 1380.18457031 825.000976562 c 0
 1380.92773438 825.000976562 1381.66308594 824.967773438 1382.390625 824.904296875 c 0
943.75390625 427.14453125 m 1
 816.609375 300 l 1
 943.75390625 172.85546875 l 1
 943.75390625 427.14453125 l 1
1382.390625 158.236328125 m 0
 1388.41113281 157.709960938 1393.85058594 155.047851562 1397.88867188 151.009765625 c 0
 1402.4140625 146.484375 1405.21484375 140.227539062 1405.21484375 133.328125 c 0
 1405.21484375 126.4296875 1402.4140625 120.1796875 1397.88867188 115.654296875 c 2
 1248.90234375 -33.33203125 l 1
 1248.90234375 -33.33203125 1397.88867188 -182.329101562 1397.88867188 -182.322265625 c 1
 1402.4140625 -186.84765625 1405.21484375 -193.104492188 1405.21484375 -200.00390625 c 0
 1405.21484375 -206.90234375 1402.4140625 -213.15234375 1397.88867188 -217.677734375 c 0
 1393.36328125 -222.203125 1387.10644531 -225.00390625 1380.20703125 -225.00390625 c 0
 1373.30859375 -225.00390625 1367.05859375 -222.203125 1362.53320312 -217.677734375 c 2
 1362.53320312 -217.677734375 1195.86914062 -51.0029296875 1195.86914062 -51.009765625 c 1
 1191.34472656 -46.484375 1188.54394531 -40.2275390625 1188.54394531 -33.328125 c 0
 1188.54394531 -26.4296875 1191.34472656 -20.1796875 1195.86914062 -15.654296875 c 2
 1195.86914062 -15.654296875 1362.54394531 151.002929688 1362.53320312 151.009765625 c 1
 1365.58886719 154.065429688 1369.44238281 156.329101562 1373.74023438 157.48046875 c 0
 1375.80566406 158.034179688 1377.94433594 158.333007812 1380.18457031 158.333007812 c 0
 1380.92773438 158.333007812 1381.66308594 158.299804688 1382.390625 158.236328125 c 0
EndSplineSet
EndChar

StartChar: U122d3
Encoding: 261 74451 5
Width: 1750
VWidth: 100
Flags: W
HStem: -25 50<707.346 1149.8> 175 50<729.318 1111.21> 275 50<176.463 293.07 343.127 649.803 1176.46 1649.8> 375 50<729.318 1111.21> 575 50<707.346 1149.8>
VStem: 266.68 48.709<109.775 215.863 384.137 490.225> 600.011 48.71<-223.557 -139.464 739.464 823.557> 681.143 48.1753<229.906 370.094> 1100.01 48.71<109.775 173.81 426.19 490.225>
LayerCount: 2
Fore
SplineSet
460.515625 824.904296875 m 0
 466.536132812 824.377929688 471.975585938 821.715820312 476.013671875 817.677734375 c 0
 480.5390625 813.15234375 483.33984375 806.895507812 483.33984375 799.99609375 c 0
 483.33984375 793.09765625 480.5390625 786.84765625 476.013671875 782.322265625 c 2
 327.02734375 633.33203125 l 1
 327.02734375 633.33203125 476.013671875 484.338867188 476.013671875 484.345703125 c 1
 480.5390625 479.8203125 483.33984375 473.563476562 483.33984375 466.6640625 c 0
 483.33984375 459.765625 480.5390625 453.515625 476.013671875 448.990234375 c 0
 471.48828125 444.46484375 465.231445312 441.6640625 458.33203125 441.6640625 c 0
 451.43359375 441.6640625 445.18359375 444.46484375 440.658203125 448.990234375 c 2
 440.658203125 448.990234375 273.994140625 615.661132812 273.994140625 615.654296875 c 1
 269.469726562 620.1796875 266.668945312 626.436523438 266.668945312 633.3359375 c 0
 266.668945312 640.234375 269.469726562 646.484375 273.994140625 651.009765625 c 2
 273.994140625 651.009765625 440.668945312 817.670898438 440.658203125 817.677734375 c 1
 443.713867188 820.733398438 447.567382812 822.997070312 451.865234375 824.1484375 c 0
 453.930664062 824.702148438 456.069335938 825.000976562 458.309570312 825.000976562 c 0
 459.052734375 825.000976562 459.788085938 824.967773438 460.515625 824.904296875 c 0
630.015625 824.4921875 m 0
 638.801757812 822.694335938 645.926757812 816.286132812 648.720703125 807.90625 c 0
 668.78125 747.72265625 685.138671875 686.641601562 697.875 625 c 1
 1125.00390625 625 l 2
 1138.80175781 625 1150.00390625 613.797851562 1150.00390625 600 c 0
 1150.00390625 586.202148438 1138.80175781 575 1125.00390625 575 c 2
 707.345703125 575 l 1
 715.991210938 525.25 722.3203125 475.19921875 726.23828125 425 c 1
 1111.21484375 425 l 1
 1108.29980469 436.3359375 1105.0078125 447.599609375 1101.28710938 458.76171875 c 0
 1100.45898438 461.24609375 1100 463.900390625 1100 466.661132812 c 0
 1100 477.698242188 1107.16699219 487.07421875 1117.09765625 490.384765625 c 0
 1119.58203125 491.212890625 1122.22460938 491.666992188 1124.98535156 491.666992188 c 0
 1126.70800781 491.666992188 1128.390625 491.493164062 1130.015625 491.16015625 c 0
 1138.80175781 489.362304688 1145.92675781 482.954101562 1148.72070312 474.57421875 c 0
 1164.93652344 425.926757812 1174.16992188 375.583007812 1176.46289062 325 c 1
 1625.00390625 325 l 2
 1638.80175781 325 1650.00390625 313.797851562 1650.00390625 300 c 0
 1650.00390625 286.202148438 1638.80175781 275 1625.00390625 275 c 2
 1176.46289062 275 l 1
 1174.16992188 224.416992188 1164.93652344 174.073242188 1148.72070312 125.42578125 c 0
 1145.41015625 115.495117188 1136.03613281 108.338867188 1125 108.338867188 c 0
 1122.23925781 108.338867188 1119.58203125 108.787109375 1117.09765625 109.615234375 c 0
 1107.16699219 112.92578125 1100.01074219 122.299804688 1100.01074219 133.3359375 c 0
 1100.01074219 136.09765625 1100.45898438 138.75390625 1101.28710938 141.23828125 c 0
 1105.0078125 152.399414062 1108.29980469 163.6640625 1111.21484375 175 c 1
 726.23828125 175 l 1
 722.3203125 124.80078125 715.991210938 74.75 707.345703125 25 c 1
 1125.00390625 25 l 2
 1138.80175781 25 1150.00390625 13.7978515625 1150.00390625 0 c 0
 1150.00390625 -13.7978515625 1138.80175781 -25 1125.00390625 -25 c 2
 697.875 -25 l 1
 685.138671875 -86.6416015625 668.78125 -147.72265625 648.720703125 -207.90625 c 0
 645.41015625 -217.836914062 636.036132812 -224.993164062 625 -224.993164062 c 0
 622.23828125 -224.993164062 619.58203125 -224.544921875 617.09765625 -223.716796875 c 0
 607.166992188 -220.40625 600.010742188 -211.032226562 600.010742188 -199.99609375 c 0
 600.010742188 -197.235351562 600.458984375 -194.578125 601.287109375 -192.09375 c 0
 654.524414062 -32.380859375 681.143066406 133.809570312 681.143066406 300 c 0
 681.143066406 466.190429688 654.524414062 632.380859375 601.287109375 792.09375 c 0
 600.458984375 794.578125 600 797.232421875 600 799.993164062 c 0
 600 811.030273438 607.166992188 820.40625 617.09765625 823.716796875 c 0
 619.58203125 824.544921875 622.223632812 824.999023438 624.985351562 824.999023438 c 0
 626.708007812 824.999023438 628.390625 824.825195312 630.015625 824.4921875 c 0
123.505859375 491.623046875 m 0
 124.0078125 491.653320312 124.474609375 491.66796875 124.984375 491.66796875 c 0
 126.70703125 491.66796875 128.389648438 491.493164062 130.015625 491.16015625 c 0
 138.801757812 489.362304688 145.926757812 482.954101562 148.720703125 474.57421875 c 0
 164.936523438 425.926757812 174.169921875 375.583007812 176.462890625 325 c 1
 293.0703125 325 l 1
 290.815429688 370.237304688 282.459960938 415.24609375 267.955078125 458.763671875 c 0
 267.127929688 461.247070312 266.668945312 463.901367188 266.668945312 466.661132812 c 0
 266.668945312 477.698242188 273.836914062 487.075195312 283.767578125 490.384765625 c 0
 286.251953125 491.212890625 288.893554688 491.666992188 291.655273438 491.666992188 c 0
 293.377929688 491.666992188 295.060546875 491.493164062 296.685546875 491.16015625 c 0
 305.470703125 489.361328125 312.595703125 482.954101562 315.388671875 474.57421875 c 0
 331.602539062 425.926757812 340.834960938 375.583007812 343.126953125 325 c 1
 625.00390625 325 l 2
 638.801757812 325 650.00390625 313.797851562 650.00390625 300 c 0
 650.00390625 286.202148438 638.801757812 275 625.00390625 275 c 2
 343.126953125 275 l 1
 340.833984375 224.41796875 331.602539062 174.07421875 315.388671875 125.427734375 c 0
 312.079101562 115.497070312 302.705078125 108.33984375 291.666992188 108.33984375 c 0
 288.907226562 108.33984375 286.250976562 108.788085938 283.767578125 109.615234375 c 0
 273.836914062 112.924804688 266.6796875 122.298828125 266.6796875 133.336914062 c 0
 266.6796875 136.096679688 267.127929688 138.752929688 267.955078125 141.236328125 c 0
 282.459960938 184.75390625 290.815429688 229.76171875 293.0703125 275 c 1
 176.462890625 275 l 1
 174.169921875 224.416992188 164.936523438 174.073242188 148.720703125 125.42578125 c 0
 145.41015625 115.495117188 136.036132812 108.338867188 125 108.338867188 c 0
 122.23828125 108.338867188 119.58203125 108.787109375 117.09765625 109.615234375 c 0
 107.166992188 112.92578125 100.010742188 122.299804688 100.010742188 133.3359375 c 0
 100.010742188 136.09765625 100.458984375 138.75390625 101.287109375 141.23828125 c 0
 118.462890625 192.764648438 127.051757812 246.377929688 127.052734375 299.990234375 c 0
 127.051757812 299.993164062 127.051757812 299.997070312 127.05078125 300 c 0
 127.051757812 300.002929688 127.051757812 300.006835938 127.052734375 300.009765625 c 0
 127.051757812 353.622070312 118.462890625 407.235351562 101.287109375 458.76171875 c 0
 100.458984375 461.24609375 100 463.900390625 100 466.661132812 c 0
 100 477.698242188 107.166992188 487.07421875 117.09765625 490.384765625 c 0
 119.123046875 491.059570312 121.288085938 491.490234375 123.505859375 491.623046875 c 0
729.318359375 375 m 1
 730.486328125 350.013183594 731.0703125 325.006591797 731.0703125 300 c 0
 731.0703125 274.993408203 730.486328125 249.986816406 729.318359375 225 c 1
 1121.39453125 225 l 1
 1125.15039062 249.85546875 1127.05175781 274.921875 1127.05273438 299.990234375 c 0
 1127.05175781 299.993164062 1127.05175781 299.997070312 1127.05078125 300 c 0
 1127.05175781 300.002929688 1127.05175781 300.006835938 1127.05273438 300.009765625 c 0
 1127.05175781 325.079101562 1125.1484375 350.14453125 1121.39257812 375 c 1
 729.318359375 375 l 1
460.515625 158.236328125 m 0
 466.536132812 157.709960938 471.975585938 155.047851562 476.013671875 151.009765625 c 0
 480.5390625 146.484375 483.33984375 140.227539062 483.33984375 133.328125 c 0
 483.33984375 126.4296875 480.5390625 120.1796875 476.013671875 115.654296875 c 2
 327.02734375 -33.33203125 l 1
 327.02734375 -33.33203125 476.013671875 -182.329101562 476.013671875 -182.322265625 c 1
 480.5390625 -186.84765625 483.33984375 -193.104492188 483.33984375 -200.00390625 c 0
 483.33984375 -206.90234375 480.5390625 -213.15234375 476.013671875 -217.677734375 c 0
 471.48828125 -222.203125 465.231445312 -225.00390625 458.33203125 -225.00390625 c 0
 451.43359375 -225.00390625 445.18359375 -222.203125 440.658203125 -217.677734375 c 2
 440.658203125 -217.677734375 273.994140625 -51.0029296875 273.994140625 -51.009765625 c 1
 269.469726562 -46.484375 266.668945312 -40.2275390625 266.668945312 -33.328125 c 0
 266.668945312 -26.4296875 269.469726562 -20.1796875 273.994140625 -15.654296875 c 2
 273.994140625 -15.654296875 440.668945312 151.002929688 440.658203125 151.009765625 c 1
 443.713867188 154.065429688 447.567382812 156.329101562 451.865234375 157.48046875 c 0
 453.930664062 158.034179688 456.069335938 158.333007812 458.309570312 158.333007812 c 0
 459.052734375 158.333007812 459.788085938 158.299804688 460.515625 158.236328125 c 0
EndSplineSet
EndChar

StartChar: U12108
Encoding: 262 73992 6
Width: 1750
VWidth: 100
Flags: W
HStem: 275 50<176.463 459.736 509.795 731.316 802.027 850.004 900.004 1100 1150 1350 1400 1649.8> 694.113 49.7941<908.987 1100 1150 1334.96> 776.283 48.209<600.14 687.747 1564.49 1648.56>
VStem: 100.011 48.71<109.775 214.859 385.141 490.225> 433.343 48.71<109.775 215.864 384.136 490.225> 850.004 50<-224.799 275 325 709.703> 1100 50<-224.799 275 325 694.113> 1350 50<-224.799 275 325 709.703>
LayerCount: 2
Fore
SplineSet
793.8515625 824.904296875 m 0
 799.872070312 824.377929688 805.311523438 821.715820312 809.349609375 817.677734375 c 0
 813.875 813.15234375 816.67578125 806.895507812 816.67578125 799.99609375 c 0
 816.67578125 793.09765625 813.875 786.84765625 809.349609375 782.322265625 c 2
 804.353515625 777.326171875 l 1
 910.135451641 755.049807459 1017.66940308 743.907388726 1125.20192259 743.907388726 c 0
 1291.32558064 743.907388726 1457.44582121 770.500111352 1617.09765625 823.716796875 c 0
 1619.58203125 824.544921875 1622.23632812 825.00390625 1624.99707031 825.00390625 c 0
 1636.03417969 825.00390625 1645.41015625 817.836914062 1648.72070312 807.90625 c 0
 1649.54882812 805.421875 1650.0078125 802.767578125 1650.0078125 800.006835938 c 0
 1650.0078125 788.969726562 1642.84082031 779.59375 1632.91015625 776.283203125 c 0
 1556.49414062 750.811523438 1478.62988281 731.322265625 1400.00390625 717.658203125 c 1
 1400.00390625 325 l 1
 1625.00390625 325 l 2
 1638.80175781 325 1650.00390625 313.797851562 1650.00390625 300 c 0
 1650.00390625 286.202148438 1638.80175781 275 1625.00390625 275 c 2
 1400.00390625 275 l 1
 1400.00390625 -200 l 2
 1400.00390625 -213.797851562 1388.80175781 -225 1375.00390625 -225 c 0
 1361.20605469 -225 1350.00390625 -213.797851562 1350.00390625 -200 c 2
 1350.00390625 275 l 1
 1150.00390625 275 l 1
 1150.00390625 -200 l 2
 1150.00390625 -213.797851562 1138.80175781 -225 1125.00390625 -225 c 0
 1111.20605469 -225 1100.00390625 -213.797851562 1100.00390625 -200 c 2
 1100.00390625 275 l 1
 900.00390625 275 l 1
 900.00390625 -200 l 2
 900.00390625 -213.797851562 888.801757812 -225 875.00390625 -225 c 0
 861.206054688 -225 850.00390625 -213.797851562 850.00390625 -200 c 2
 850.00390625 275 l 1
 802.02734375 275 l 1
 577.02734375 50 l 1
 577.02734375 50 809.349609375 -182.329101562 809.349609375 -182.322265625 c 1
 813.875 -186.84765625 816.67578125 -193.104492188 816.67578125 -200.00390625 c 0
 816.67578125 -206.90234375 813.875 -213.15234375 809.349609375 -217.677734375 c 0
 804.82421875 -222.203125 798.567382812 -225.00390625 791.66796875 -225.00390625 c 0
 784.76953125 -225.00390625 778.51953125 -222.203125 773.994140625 -217.677734375 c 2
 773.994140625 -217.677734375 523.994140625 32.3291015625 523.994140625 32.322265625 c 1
 519.469726562 36.84765625 516.668945312 43.1044921875 516.668945312 50.00390625 c 0
 516.668945312 56.90234375 519.469726562 63.15234375 523.994140625 67.677734375 c 2
 731.31640625 275 l 1
 509.794921875 275 l 1
 507.501953125 224.416992188 498.268554688 174.073242188 482.052734375 125.42578125 c 0
 478.7421875 115.495117188 469.368164062 108.338867188 458.33203125 108.338867188 c 0
 455.5703125 108.338867188 452.9140625 108.787109375 450.4296875 109.615234375 c 0
 440.499023438 112.92578125 433.342773438 122.299804688 433.342773438 133.3359375 c 0
 433.342773438 136.09765625 433.791015625 138.75390625 434.619140625 141.23828125 c 0
 449.125 184.755859375 457.48046875 229.762695312 459.736328125 275 c 1
 176.462890625 275 l 1
 174.169921875 224.416992188 164.936523438 174.073242188 148.720703125 125.42578125 c 0
 145.41015625 115.495117188 136.036132812 108.338867188 125 108.338867188 c 0
 122.23828125 108.338867188 119.58203125 108.787109375 117.09765625 109.615234375 c 0
 107.166992188 112.92578125 100.010742188 122.299804688 100.010742188 133.3359375 c 0
 100.010742188 136.09765625 100.458984375 138.75390625 101.287109375 141.23828125 c 0
 118.462890625 192.765625 127.051757812 246.37890625 127.052734375 299.9921875 c 0
 127.051757812 299.995117188 127.051757812 299.997070312 127.05078125 300 c 0
 127.051757812 300.002929688 127.051757812 300.004882812 127.052734375 300.0078125 c 0
 127.051757812 353.62109375 118.462890625 407.234375 101.287109375 458.76171875 c 0
 100.458984375 461.24609375 100 463.900390625 100 466.661132812 c 0
 100 477.698242188 107.166992188 487.07421875 117.09765625 490.384765625 c 0
 119.58203125 491.212890625 122.223632812 491.666992188 124.985351562 491.666992188 c 0
 126.708007812 491.666992188 128.390625 491.493164062 130.015625 491.16015625 c 0
 138.801757812 489.362304688 145.926757812 482.954101562 148.720703125 474.57421875 c 0
 164.936523438 425.926757812 174.169921875 375.583007812 176.462890625 325 c 1
 459.736328125 325 l 1
 457.48046875 370.237304688 449.125 415.244140625 434.619140625 458.76171875 c 0
 433.791015625 461.24609375 433.33203125 463.900390625 433.33203125 466.661132812 c 0
 433.33203125 477.698242188 440.499023438 487.07421875 450.4296875 490.384765625 c 0
 452.9140625 491.212890625 455.555664062 491.666992188 458.317382812 491.666992188 c 0
 460.040039062 491.666992188 461.72265625 491.493164062 463.34765625 491.16015625 c 0
 472.133789062 489.362304688 479.258789062 482.954101562 482.052734375 474.57421875 c 0
 498.268554688 425.926757812 507.501953125 375.583007812 509.794921875 325 c 1
 731.31640625 325 l 1
 731.31640625 325 523.994140625 532.329101562 523.994140625 532.322265625 c 1
 519.469726562 536.84765625 516.668945312 543.104492188 516.668945312 550.00390625 c 0
 516.668945312 556.90234375 519.469726562 563.15234375 523.994140625 567.677734375 c 2
 705.87109375 749.5546875 l 1
 676.094726562 757.604492188 646.486328125 766.487304688 617.09765625 776.283203125 c 0
 607.166992188 779.59375 600.010742188 788.967773438 600.010742188 800.00390625 c 0
 600.010742188 802.765625 600.458984375 805.421875 601.287109375 807.90625 c 0
 604.081054688 816.286132812 611.206054688 822.694335938 619.9921875 824.4921875 c 0
 621.6171875 824.825195312 623.28515625 824.993164062 625.008789062 824.993164062 c 0
 627.76953125 824.993164062 630.42578125 824.544921875 632.91015625 823.716796875 c 0
 670.5625 811.166015625 708.5859375 800.1484375 746.873046875 790.556640625 c 1
 746.873046875 790.556640625 774.004882812 817.670898438 773.994140625 817.677734375 c 1
 777.049804688 820.733398438 780.903320312 822.997070312 785.201171875 824.1484375 c 0
 787.266601562 824.702148438 789.405273438 825.000976562 791.645507812 825.000976562 c 0
 792.388671875 825.000976562 793.124023438 824.967773438 793.8515625 824.904296875 c 0
762.423828125 735.396484375 m 1
 577.02734375 550 l 1
 802.02734375 325 l 1
 850.00390625 325 l 1
 850.00390625 717.658203125 l 1
 820.69140625 722.751953125 791.487304688 728.661132812 762.423828125 735.396484375 c 1
900.00390625 709.703125 m 1
 900.00390625 325 l 1
 1100.00390625 325 l 1
 1100.00390625 694.11328125 l 1
 1033.15625 695.153320312 966.356445312 700.31640625 900.00390625 709.703125 c 1
1350.00390625 709.703125 m 1
 1283.65136719 700.31640625 1216.8515625 695.153320312 1150.00390625 694.11328125 c 1
 1150.00390625 325 l 1
 1350.00390625 325 l 1
 1350.00390625 709.703125 l 1
EndSplineSet
EndChar

StartChar: U12109
Encoding: 263 73993 7
Width: 1750
VWidth: 100
Flags: W
HStem: 275 50<176.463 459.736 509.795 731.316 802.027 850.004 900.004 1100 1150 1350 1400 1649.8> 694.113 49.7941<908.987 1100 1150 1334.96> 776.283 48.209<600.14 687.747 1564.49 1648.56>
VStem: 100.011 48.71<109.775 214.859 385.141 490.225> 433.343 48.71<109.775 215.864 384.136 490.225> 850.004 50<-224.799 275 325 709.703> 1100 50<-224.799 275 325 694.113> 1350 50<-224.799 275 325 709.703>
LayerCount: 2
Fore
SplineSet
793.8515625 824.904296875 m 0
 799.872070312 824.377929688 805.311523438 821.715820312 809.349609375 817.677734375 c 0
 813.875 813.15234375 816.67578125 806.895507812 816.67578125 799.99609375 c 0
 816.67578125 793.09765625 813.875 786.84765625 809.349609375 782.322265625 c 2
 804.353515625 777.326171875 l 1
 910.135451641 755.049807459 1017.66940308 743.907388726 1125.20192259 743.907388726 c 0
 1291.32558064 743.907388726 1457.44582121 770.500111352 1617.09765625 823.716796875 c 0
 1619.58203125 824.544921875 1622.23632812 825.00390625 1624.99707031 825.00390625 c 0
 1636.03417969 825.00390625 1645.41015625 817.836914062 1648.72070312 807.90625 c 0
 1649.54882812 805.421875 1650.0078125 802.767578125 1650.0078125 800.006835938 c 0
 1650.0078125 788.969726562 1642.84082031 779.59375 1632.91015625 776.283203125 c 0
 1556.49414062 750.811523438 1478.62988281 731.322265625 1400.00390625 717.658203125 c 1
 1400.00390625 325 l 1
 1625.00390625 325 l 2
 1638.80175781 325 1650.00390625 313.797851562 1650.00390625 300 c 0
 1650.00390625 286.202148438 1638.80175781 275 1625.00390625 275 c 2
 1400.00390625 275 l 1
 1400.00390625 -200 l 2
 1400.00390625 -213.797851562 1388.80175781 -225 1375.00390625 -225 c 0
 1361.20605469 -225 1350.00390625 -213.797851562 1350.00390625 -200 c 2
 1350.00390625 275 l 1
 1150.00390625 275 l 1
 1150.00390625 -200 l 2
 1150.00390625 -213.797851562 1138.80175781 -225 1125.00390625 -225 c 0
 1111.20605469 -225 1100.00390625 -213.797851562 1100.00390625 -200 c 2
 1100.00390625 275 l 1
 900.00390625 275 l 1
 900.00390625 -200 l 2
 900.00390625 -213.797851562 888.801757812 -225 875.00390625 -225 c 0
 861.206054688 -225 850.00390625 -213.797851562 850.00390625 -200 c 2
 850.00390625 275 l 1
 802.02734375 275 l 1
 577.02734375 50 l 1
 577.02734375 50 809.349609375 -182.329101562 809.349609375 -182.322265625 c 1
 813.875 -186.84765625 816.67578125 -193.104492188 816.67578125 -200.00390625 c 0
 816.67578125 -206.90234375 813.875 -213.15234375 809.349609375 -217.677734375 c 0
 804.82421875 -222.203125 798.567382812 -225.00390625 791.66796875 -225.00390625 c 0
 784.76953125 -225.00390625 778.51953125 -222.203125 773.994140625 -217.677734375 c 2
 773.994140625 -217.677734375 523.994140625 32.3291015625 523.994140625 32.322265625 c 1
 519.469726562 36.84765625 516.668945312 43.1044921875 516.668945312 50.00390625 c 0
 516.668945312 56.90234375 519.469726562 63.15234375 523.994140625 67.677734375 c 2
 731.31640625 275 l 1
 509.794921875 275 l 1
 507.501953125 224.416992188 498.268554688 174.073242188 482.052734375 125.42578125 c 0
 478.7421875 115.495117188 469.368164062 108.338867188 458.33203125 108.338867188 c 0
 455.5703125 108.338867188 452.9140625 108.787109375 450.4296875 109.615234375 c 0
 440.499023438 112.92578125 433.342773438 122.299804688 433.342773438 133.3359375 c 0
 433.342773438 136.09765625 433.791015625 138.75390625 434.619140625 141.23828125 c 0
 449.125 184.755859375 457.48046875 229.762695312 459.736328125 275 c 1
 176.462890625 275 l 1
 174.169921875 224.416992188 164.936523438 174.073242188 148.720703125 125.42578125 c 0
 145.41015625 115.495117188 136.036132812 108.338867188 125 108.338867188 c 0
 122.23828125 108.338867188 119.58203125 108.787109375 117.09765625 109.615234375 c 0
 107.166992188 112.92578125 100.010742188 122.299804688 100.010742188 133.3359375 c 0
 100.010742188 136.09765625 100.458984375 138.75390625 101.287109375 141.23828125 c 0
 118.462890625 192.765625 127.051757812 246.37890625 127.052734375 299.9921875 c 0
 127.051757812 299.995117188 127.051757812 299.997070312 127.05078125 300 c 0
 127.051757812 300.002929688 127.051757812 300.004882812 127.052734375 300.0078125 c 0
 127.051757812 353.62109375 118.462890625 407.234375 101.287109375 458.76171875 c 0
 100.458984375 461.24609375 100 463.900390625 100 466.661132812 c 0
 100 477.698242188 107.166992188 487.07421875 117.09765625 490.384765625 c 0
 119.58203125 491.212890625 122.223632812 491.666992188 124.985351562 491.666992188 c 0
 126.708007812 491.666992188 128.390625 491.493164062 130.015625 491.16015625 c 0
 138.801757812 489.362304688 145.926757812 482.954101562 148.720703125 474.57421875 c 0
 164.936523438 425.926757812 174.169921875 375.583007812 176.462890625 325 c 1
 459.736328125 325 l 1
 457.48046875 370.237304688 449.125 415.244140625 434.619140625 458.76171875 c 0
 433.791015625 461.24609375 433.33203125 463.900390625 433.33203125 466.661132812 c 0
 433.33203125 477.698242188 440.499023438 487.07421875 450.4296875 490.384765625 c 0
 452.9140625 491.212890625 455.555664062 491.666992188 458.317382812 491.666992188 c 0
 460.040039062 491.666992188 461.72265625 491.493164062 463.34765625 491.16015625 c 0
 472.133789062 489.362304688 479.258789062 482.954101562 482.052734375 474.57421875 c 0
 498.268554688 425.926757812 507.501953125 375.583007812 509.794921875 325 c 1
 731.31640625 325 l 1
 731.31640625 325 523.994140625 532.329101562 523.994140625 532.322265625 c 1
 519.469726562 536.84765625 516.668945312 543.104492188 516.668945312 550.00390625 c 0
 516.668945312 556.90234375 519.469726562 563.15234375 523.994140625 567.677734375 c 2
 705.87109375 749.5546875 l 1
 676.094726562 757.604492188 646.486328125 766.487304688 617.09765625 776.283203125 c 0
 607.166992188 779.59375 600.010742188 788.967773438 600.010742188 800.00390625 c 0
 600.010742188 802.765625 600.458984375 805.421875 601.287109375 807.90625 c 0
 604.081054688 816.286132812 611.206054688 822.694335938 619.9921875 824.4921875 c 0
 621.6171875 824.825195312 623.28515625 824.993164062 625.008789062 824.993164062 c 0
 627.76953125 824.993164062 630.42578125 824.544921875 632.91015625 823.716796875 c 0
 670.5625 811.166015625 708.5859375 800.1484375 746.873046875 790.556640625 c 1
 746.873046875 790.556640625 774.004882812 817.670898438 773.994140625 817.677734375 c 1
 777.049804688 820.733398438 780.903320312 822.997070312 785.201171875 824.1484375 c 0
 787.266601562 824.702148438 789.405273438 825.000976562 791.645507812 825.000976562 c 0
 792.388671875 825.000976562 793.124023438 824.967773438 793.8515625 824.904296875 c 0
762.423828125 735.396484375 m 1
 577.02734375 550 l 1
 802.02734375 325 l 1
 850.00390625 325 l 1
 850.00390625 717.658203125 l 1
 820.69140625 722.751953125 791.487304688 728.661132812 762.423828125 735.396484375 c 1
900.00390625 709.703125 m 1
 900.00390625 325 l 1
 1100.00390625 325 l 1
 1100.00390625 694.11328125 l 1
 1033.15625 695.153320312 966.356445312 700.31640625 900.00390625 709.703125 c 1
1350.00390625 709.703125 m 1
 1283.65136719 700.31640625 1216.8515625 695.153320312 1150.00390625 694.11328125 c 1
 1150.00390625 325 l 1
 1350.00390625 325 l 1
 1350.00390625 709.703125 l 1
EndSplineSet
EndChar

StartChar: U122fb
Encoding: 264 74491 8
Width: 1250
VWidth: 100
Flags: W
HStem: 275 50<176.463 459.736 509.795 600.004 650.004 1149.8>
VStem: 433.343 48.71<109.775 215.864 384.136 490.225> 600.004 50<-224.799 275>
LayerCount: 2
Fore
SplineSet
123.505859375 491.623046875 m 0
 124.0078125 491.653320312 124.474609375 491.66796875 124.984375 491.66796875 c 0
 126.70703125 491.66796875 128.389648438 491.493164062 130.015625 491.16015625 c 0
 138.801757812 489.362304688 145.926757812 482.954101562 148.720703125 474.57421875 c 0
 164.936523438 425.926757812 174.169921875 375.583007812 176.462890625 325 c 1
 459.736328125 325 l 1
 457.48046875 370.237304688 449.125 415.244140625 434.619140625 458.76171875 c 0
 433.791015625 461.24609375 433.33203125 463.900390625 433.33203125 466.661132812 c 0
 433.33203125 477.698242188 440.499023438 487.07421875 450.4296875 490.384765625 c 0
 452.9140625 491.212890625 455.555664062 491.666992188 458.317382812 491.666992188 c 0
 460.040039062 491.666992188 461.72265625 491.493164062 463.34765625 491.16015625 c 0
 472.133789062 489.362304688 479.258789062 482.954101562 482.052734375 474.57421875 c 0
 498.268554688 425.926757812 507.501953125 375.583007812 509.794921875 325 c 1
 625.00390625 325 l 1
 1125.00390625 325 l 2
 1138.80175781 325 1150.00390625 313.797851562 1150.00390625 300 c 0
 1150.00390625 286.202148438 1138.80175781 275 1125.00390625 275 c 2
 650.00390625 275 l 1
 650.00390625 -200 l 2
 650.00390625 -213.797851562 638.801757812 -225 625.00390625 -225 c 0
 611.206054688 -225 600.00390625 -213.797851562 600.00390625 -200 c 2
 600.00390625 275 l 1
 509.794921875 275 l 1
 507.501953125 224.416992188 498.268554688 174.073242188 482.052734375 125.42578125 c 0
 478.7421875 115.495117188 469.368164062 108.338867188 458.33203125 108.338867188 c 0
 455.5703125 108.338867188 452.9140625 108.787109375 450.4296875 109.615234375 c 0
 440.499023438 112.92578125 433.342773438 122.299804688 433.342773438 133.3359375 c 0
 433.342773438 136.09765625 433.791015625 138.75390625 434.619140625 141.23828125 c 0
 449.125 184.755859375 457.48046875 229.762695312 459.736328125 275 c 1
 176.462890625 275 l 1
 174.169921875 224.416992188 164.936523438 174.073242188 148.720703125 125.42578125 c 0
 145.41015625 115.495117188 136.036132812 108.338867188 125 108.338867188 c 0
 122.23828125 108.338867188 119.58203125 108.787109375 117.09765625 109.615234375 c 0
 107.166992188 112.92578125 100.010742188 122.299804688 100.010742188 133.3359375 c 0
 100.010742188 136.09765625 100.458984375 138.75390625 101.287109375 141.23828125 c 0
 118.462890625 192.765625 127.051757812 246.37890625 127.052734375 299.9921875 c 0
 127.051757812 299.995117188 127.051757812 299.997070312 127.05078125 300 c 0
 127.051757812 300.002929688 127.051757812 300.004882812 127.052734375 300.0078125 c 0
 127.051757812 353.62109375 118.462890625 407.234375 101.287109375 458.76171875 c 0
 100.458984375 461.24609375 100 463.900390625 100 466.661132812 c 0
 100 477.698242188 107.166992188 487.07421875 117.09765625 490.384765625 c 0
 119.123046875 491.059570312 121.288085938 491.490234375 123.505859375 491.623046875 c 0
EndSplineSet
EndChar

StartChar: U1202d
Encoding: 265 73773 9
Width: 1250
VWidth: 100
Flags: W
HStem: 275 50<176.463 459.736 509.795 766.672 816.672 1149.8> 776.283 48.209<600.179 706.549 876.805 981.854>
VStem: 100.011 48.71<109.775 214.859 385.141 490.225> 433.343 48.71<109.775 215.864 384.136 490.225> 766.672 50<-224.799 275 325 748.547>
LayerCount: 2
Fore
SplineSet
958.107421875 825 m 0
 958.171875 825 958.225585938 825.004882812 958.290039062 825.004882812 c 0
 969.327148438 825.004882812 978.703125 817.836914062 982.013671875 807.90625 c 0
 982.841796875 805.421875 983.30078125 802.767578125 983.30078125 800.006835938 c 0
 983.30078125 788.969726562 976.133789062 779.59375 966.203125 776.283203125 c 0
 917.5703125 760.071289062 867.240234375 750.83984375 816.671875 748.546875 c 1
 816.671875 325 l 1
 1125.00390625 325 l 2
 1138.80175781 325 1150.00390625 313.797851562 1150.00390625 300 c 0
 1150.00390625 286.202148438 1138.80175781 275 1125.00390625 275 c 2
 816.671875 275 l 1
 816.671875 -200 l 2
 816.671875 -213.797851562 805.469726562 -225 791.671875 -225 c 0
 777.874023438 -225 766.671875 -213.797851562 766.671875 -200 c 2
 766.671875 275 l 1
 509.794921875 275 l 1
 507.501953125 224.416992188 498.268554688 174.073242188 482.052734375 125.42578125 c 0
 478.7421875 115.495117188 469.368164062 108.338867188 458.33203125 108.338867188 c 0
 455.5703125 108.338867188 452.9140625 108.787109375 450.4296875 109.615234375 c 0
 440.499023438 112.92578125 433.342773438 122.299804688 433.342773438 133.3359375 c 0
 433.342773438 136.09765625 433.791015625 138.75390625 434.619140625 141.23828125 c 0
 449.125 184.755859375 457.48046875 229.762695312 459.736328125 275 c 1
 176.462890625 275 l 1
 174.169921875 224.416992188 164.936523438 174.073242188 148.720703125 125.42578125 c 0
 145.41015625 115.495117188 136.036132812 108.338867188 125 108.338867188 c 0
 122.23828125 108.338867188 119.58203125 108.787109375 117.09765625 109.615234375 c 0
 107.166992188 112.92578125 100.010742188 122.299804688 100.010742188 133.3359375 c 0
 100.010742188 136.09765625 100.458984375 138.75390625 101.287109375 141.23828125 c 0
 118.462890625 192.765625 127.051757812 246.37890625 127.052734375 299.9921875 c 0
 127.051757812 299.995117188 127.051757812 299.997070312 127.05078125 300 c 0
 127.051757812 300.002929688 127.051757812 300.004882812 127.052734375 300.0078125 c 0
 127.051757812 353.62109375 118.462890625 407.234375 101.287109375 458.76171875 c 0
 100.458984375 461.24609375 100 463.900390625 100 466.661132812 c 0
 100 477.698242188 107.166992188 487.07421875 117.09765625 490.384765625 c 0
 119.58203125 491.212890625 122.223632812 491.666992188 124.985351562 491.666992188 c 0
 126.708007812 491.666992188 128.390625 491.493164062 130.015625 491.16015625 c 0
 138.801757812 489.362304688 145.926757812 482.954101562 148.720703125 474.57421875 c 0
 164.936523438 425.926757812 174.169921875 375.583007812 176.462890625 325 c 1
 459.736328125 325 l 1
 457.48046875 370.237304688 449.125 415.244140625 434.619140625 458.76171875 c 0
 433.791015625 461.24609375 433.33203125 463.900390625 433.33203125 466.661132812 c 0
 433.33203125 477.698242188 440.499023438 487.07421875 450.4296875 490.384765625 c 0
 452.9140625 491.212890625 455.555664062 491.666992188 458.317382812 491.666992188 c 0
 460.040039062 491.666992188 461.72265625 491.493164062 463.34765625 491.16015625 c 0
 472.133789062 489.362304688 479.258789062 482.954101562 482.052734375 474.57421875 c 0
 498.268554688 425.926757812 507.501953125 375.583007812 509.794921875 325 c 1
 766.671875 325 l 1
 766.671875 748.546875 l 1
 716.102539062 750.83984375 665.771484375 760.071289062 617.13671875 776.283203125 c 0
 607.206054688 779.59375 600.049804688 788.967773438 600.049804688 800.00390625 c 0
 600.049804688 802.765625 600.498046875 805.421875 601.326171875 807.90625 c 0
 604.120117188 816.286132812 611.245117188 822.694335938 620.03125 824.4921875 c 0
 621.65625 824.825195312 623.32421875 824.993164062 625.047851562 824.993164062 c 0
 627.80859375 824.993164062 630.46484375 824.544921875 632.94921875 823.716796875 c 0
 684.461914062 806.545898438 738.059570312 797.958007812 791.658203125 797.95703125 c 0
 791.663085938 797.958007812 791.666992188 797.959960938 791.671875 797.9609375 c 0
 791.684570312 797.959960938 791.698242188 797.958007812 791.7109375 797.95703125 c 0
 845.299804688 797.9609375 898.887695312 806.548828125 950.390625 823.716796875 c 0
 952.81640625 824.525390625 955.416015625 824.979492188 958.107421875 825 c 0
EndSplineSet
EndChar

StartChar: U12033
Encoding: 266 73779 10
Width: 1750
VWidth: 100
Flags: W
HStem: -58.332 50<843.127 1433.34> 275 50<176.463 816.471 1065.35 1433.34> 608.332 50<843.127 1433.34> 776.283 48.209<1266.81 1373.2 1543.48 1648.56>
VStem: 766.68 48.709<-223.557 -118.473 51.8048 156.889 443.111 548.195 718.471 823.557> 793.717 49.4097<-178.062 -58.332 -8.33203 111.396 488.604 608.332 658.332 778.063> 988.902 48.709<109.775 214.856 385.144 490.225> 1433.34 50<-224.799 -58.332 -8.33203 275 325 608.332 658.332 748.541>
LayerCount: 2
Fore
SplineSet
1624.81445312 825 m 0xf7
 1624.87890625 825 1624.93261719 825.004882812 1624.99707031 825.004882812 c 0
 1636.03417969 825.004882812 1645.41015625 817.836914062 1648.72070312 807.90625 c 0
 1649.54882812 805.421875 1650.0078125 802.767578125 1650.0078125 800.006835938 c 0
 1650.0078125 788.969726562 1642.84082031 779.59375 1632.91015625 776.283203125 c 0
 1584.26367188 760.067382812 1533.91992188 750.833984375 1483.3359375 748.541015625 c 1
 1483.3359375 -200 l 2
 1483.3359375 -213.797851562 1472.13378906 -225 1458.3359375 -225 c 0
 1444.53808594 -225 1433.3359375 -213.797851562 1433.3359375 -200 c 2
 1433.3359375 -58.33203125 l 1
 843.126953125 -58.33203125 l 1xf7
 840.834960938 -108.9140625 831.602539062 -159.2578125 815.388671875 -207.904296875 c 0
 812.079101562 -217.834960938 802.705078125 -224.9921875 791.666992188 -224.9921875 c 0
 788.907226562 -224.9921875 786.250976562 -224.543945312 783.767578125 -223.716796875 c 0
 773.836914062 -220.407226562 766.6796875 -211.033203125 766.6796875 -199.995117188 c 0xfb
 766.6796875 -197.235351562 767.127929688 -194.579101562 767.955078125 -192.095703125 c 0
 785.129882812 -140.567871094 793.717285156 -86.9509277344 793.717285156 -33.333984375 c 0xf7
 793.717285156 20.2829589844 785.129882812 73.8999023438 767.955078125 125.427734375 c 0
 767.127929688 127.911132812 766.668945312 130.565429688 766.668945312 133.325195312 c 0
 766.668945312 144.362304688 773.836914062 153.73828125 783.767578125 157.048828125 c 0
 786.250976562 157.876953125 788.893554688 158.331054688 791.654296875 158.331054688 c 0
 793.376953125 158.331054688 795.05859375 158.15625 796.68359375 157.82421875 c 0
 805.469726562 156.026367188 812.595703125 149.6171875 815.388671875 141.236328125 c 0xfb
 831.602539062 92.591796875 840.833984375 42.2490234375 843.126953125 -8.33203125 c 1
 1433.3359375 -8.33203125 l 1
 1433.3359375 275 l 1
 1065.34960938 275 l 1
 1063.05761719 224.41796875 1053.82519531 174.075195312 1037.61132812 125.427734375 c 0
 1034.30078125 115.497070312 1024.92675781 108.33984375 1013.88964844 108.33984375 c 0
 1011.12988281 108.33984375 1008.47363281 108.788085938 1005.99023438 109.615234375 c 0
 996.059570312 112.924804688 988.90234375 122.298828125 988.90234375 133.336914062 c 0
 988.90234375 136.096679688 989.350585938 138.752929688 990.177734375 141.236328125 c 0
 1007.3515625 192.762695312 1015.93847656 246.375 1015.93945312 299.98828125 c 0
 1015.93847656 299.9921875 1015.93847656 299.99609375 1015.9375 300 c 0
 1015.93847656 300.00390625 1015.93847656 300.0078125 1015.93945312 300.01171875 c 0
 1015.93847656 353.625 1007.3515625 407.237304688 990.177734375 458.763671875 c 0
 989.350585938 461.247070312 988.891601562 463.901367188 988.891601562 466.661132812 c 0
 988.891601562 477.698242188 996.059570312 487.075195312 1005.99023438 490.384765625 c 0
 1008.47460938 491.212890625 1011.11621094 491.666992188 1013.87792969 491.666992188 c 0
 1015.60058594 491.666992188 1017.28320312 491.493164062 1018.90820312 491.16015625 c 0
 1027.69335938 489.361328125 1034.81835938 482.953125 1037.61132812 474.572265625 c 0
 1053.82519531 425.92578125 1063.05664062 375.58203125 1065.34960938 325 c 1
 1433.3359375 325 l 1
 1433.3359375 608.33203125 l 1
 843.126953125 608.33203125 l 1xf7
 840.833984375 557.750976562 831.602539062 507.408203125 815.388671875 458.763671875 c 0
 812.079101562 448.833007812 802.705078125 441.67578125 791.666992188 441.67578125 c 0
 788.907226562 441.67578125 786.250976562 442.124023438 783.767578125 442.951171875 c 0
 773.836914062 446.26171875 766.6796875 455.634765625 766.6796875 466.672851562 c 0xfb
 766.6796875 469.432617188 767.127929688 472.088867188 767.955078125 474.572265625 c 0
 785.129882812 526.100097656 793.717285156 579.716796875 793.717285156 633.333374023 c 0xf7
 793.717285156 686.949951172 785.129882812 740.56640625 767.955078125 792.09375 c 0
 767.126953125 794.578125 766.66796875 797.232421875 766.66796875 799.993164062 c 0
 766.66796875 811.030273438 773.8359375 820.407226562 783.767578125 823.716796875 c 0
 786.250976562 824.544921875 788.893554688 824.999023438 791.654296875 824.999023438 c 0
 793.376953125 824.999023438 795.05859375 824.82421875 796.68359375 824.4921875 c 0
 805.469726562 822.694335938 812.595703125 816.28515625 815.388671875 807.904296875 c 0xfb
 831.602539062 759.2578125 840.834960938 708.915039062 843.126953125 658.33203125 c 1
 1433.3359375 658.33203125 l 1
 1433.3359375 748.541015625 l 1
 1382.75390625 750.833984375 1332.41113281 760.067382812 1283.765625 776.283203125 c 0
 1273.83496094 779.59375 1266.67871094 788.967773438 1266.67871094 800.00390625 c 0
 1266.67871094 802.765625 1267.12695312 805.421875 1267.95507812 807.90625 c 0
 1270.74902344 816.286132812 1277.87402344 822.694335938 1286.66015625 824.4921875 c 0
 1288.28515625 824.825195312 1289.953125 824.993164062 1291.67675781 824.993164062 c 0
 1294.4375 824.993164062 1297.09375 824.544921875 1299.578125 823.716796875 c 0
 1351.10253906 806.541015625 1404.71484375 797.952148438 1458.328125 797.951171875 c 0
 1458.33105469 797.952148438 1458.33300781 797.952148438 1458.3359375 797.953125 c 0
 1458.34277344 797.952148438 1458.34863281 797.952148438 1458.35546875 797.951171875 c 0
 1511.96582031 797.953125 1565.57617188 806.541992188 1617.09765625 823.716796875 c 0
 1619.5234375 824.525390625 1622.12304688 824.979492188 1624.81445312 825 c 0xf7
123.505859375 491.623046875 m 0
 124.0078125 491.653320312 124.474609375 491.66796875 124.984375 491.66796875 c 0
 126.70703125 491.66796875 128.389648438 491.493164062 130.015625 491.16015625 c 0
 138.801757812 489.362304688 145.926757812 482.954101562 148.720703125 474.57421875 c 0
 164.936523438 425.926757812 174.169921875 375.583007812 176.462890625 325 c 1
 791.671875 325 l 2
 805.469726562 325 816.671875 313.797851562 816.671875 300 c 0
 816.671875 286.202148438 805.469726562 275 791.671875 275 c 2
 176.462890625 275 l 1
 174.169921875 224.416992188 164.936523438 174.073242188 148.720703125 125.42578125 c 0
 145.41015625 115.495117188 136.036132812 108.338867188 125 108.338867188 c 0
 122.23828125 108.338867188 119.58203125 108.787109375 117.09765625 109.615234375 c 0
 107.166992188 112.92578125 100.010742188 122.299804688 100.010742188 133.3359375 c 0
 100.010742188 136.09765625 100.458984375 138.75390625 101.287109375 141.23828125 c 0
 118.462890625 192.764648438 127.051757812 246.377929688 127.052734375 299.990234375 c 0
 127.051757812 299.993164062 127.051757812 299.997070312 127.05078125 300 c 0
 127.051757812 300.002929688 127.051757812 300.006835938 127.052734375 300.009765625 c 0
 127.051757812 353.622070312 118.462890625 407.235351562 101.287109375 458.76171875 c 0
 100.458984375 461.24609375 100 463.900390625 100 466.661132812 c 0
 100 477.698242188 107.166992188 487.07421875 117.09765625 490.384765625 c 0
 119.123046875 491.059570312 121.288085938 491.490234375 123.505859375 491.623046875 c 0
EndSplineSet
EndChar

StartChar: U12224
Encoding: 267 74276 11
Width: 1750
VWidth: 100
Flags: W
HStem: 320.477 50<536.348 899.803> 502.285 50<176.463 524.803 661.348 899.803> 684.094 50<536.348 899.803> 717.541 49.9839<1097.83 1402.18> 776.283 48.7207<871.028 958.94 1541.07 1627.73>
VStem: 475.012 48.709<231.013 319.223 371.73 459.94 594.634 682.843> 489.756 48.9961<254.704 320.477 370.477 436.247 618.326 684.094 734.094 799.864> 1106.95 50<275.201 721.328> 1343.06 50<126.67 198.207 275.201 721.328>
LayerCount: 2
Fore
SplineSet
498.505859375 824.955078125 m 0xeb80
 499.0078125 824.985351562 499.474609375 825 499.984375 825 c 0
 501.70703125 825 503.389648438 824.825195312 505.015625 824.4921875 c 0
 513.801757812 822.694335938 520.927734375 816.28515625 523.720703125 807.904296875 c 0xed80
 531.73828125 783.850585938 536.748046875 759.063476562 538.751953125 734.09375 c 1
 875.00390625 734.09375 l 2
 888.801757812 734.09375 900.00390625 722.891601562 900.00390625 709.09375 c 0
 900.00390625 695.295898438 888.801757812 684.09375 875.00390625 684.09375 c 2
 538.751953125 684.09375 l 1xeb80
 536.748046875 659.125 531.737304688 634.33984375 523.720703125 610.287109375 c 0
 520.411132812 600.356445312 511.037109375 593.19921875 499.999023438 593.19921875 c 0
 497.239257812 593.19921875 494.583007812 593.647460938 492.099609375 594.474609375 c 0
 482.168945312 597.78515625 475.01171875 607.158203125 475.01171875 618.196289062 c 0xed80
 475.01171875 620.956054688 475.459960938 623.612304688 476.287109375 626.095703125 c 0
 485.265625 653.032226562 489.754882812 681.05859375 489.755859375 709.083984375 c 0
 489.754882812 709.086914062 489.754882812 709.090820312 489.75390625 709.09375 c 0
 489.754882812 709.09765625 489.754882812 709.1015625 489.755859375 709.10546875 c 0
 489.754882812 737.131835938 485.265625 765.157226562 476.287109375 792.09375 c 0
 475.458984375 794.578125 475 797.232421875 475 799.993164062 c 0
 475 811.030273438 482.166992188 820.40625 492.09765625 823.716796875 c 0
 494.123046875 824.391601562 496.288085938 824.822265625 498.505859375 824.955078125 c 0xeb80
897.333984375 824.955078125 m 0
 899.551757812 824.822265625 901.716796875 824.391601562 903.7421875 823.716796875 c 0
 1016.125 786.255371094 1133.06420898 767.524658203 1250.00354004 767.524658203 c 0
 1366.94287109 767.524658203 1483.88232422 786.255371094 1596.265625 823.716796875 c 0
 1598.75 824.544921875 1601.40429688 825.00390625 1604.16503906 825.00390625 c 0
 1615.20214844 825.00390625 1624.578125 817.836914062 1627.88867188 807.90625 c 0
 1628.71679688 805.421875 1629.17578125 802.767578125 1629.17578125 800.006835938 c 0
 1629.17578125 788.969726562 1622.00878906 779.59375 1612.078125 776.283203125 c 0
 1540.484375 752.41796875 1467.11523438 735.866210938 1393.05859375 726.541015625 c 1
 1393.05859375 300 l 2
 1393.05859375 286.202148438 1381.85644531 275 1368.05859375 275 c 0
 1354.26074219 275 1343.05859375 286.202148438 1343.05859375 300 c 2
 1343.05859375 721.328125 l 1
 1312.09228516 718.803222656 1281.0480957 717.540771484 1250.00390625 717.540771484 c 0xd980
 1218.9597168 717.540771484 1187.91552734 718.803222656 1156.94921875 721.328125 c 1
 1156.94921875 300 l 2
 1156.94921875 286.202148438 1145.74707031 275 1131.94921875 275 c 0
 1118.15136719 275 1106.94921875 286.202148438 1106.94921875 300 c 2
 1106.94921875 726.541015625 l 1
 1032.89257812 735.866210938 959.5234375 752.41796875 887.9296875 776.283203125 c 0
 877.999023438 779.59375 870.842773438 788.967773438 870.842773438 800.00390625 c 0
 870.842773438 802.765625 871.291015625 805.421875 872.119140625 807.90625 c 0
 874.913085938 816.286132812 882.038085938 822.694335938 890.82421875 824.4921875 c 0
 892.450195312 824.825195312 894.09375 825 895.81640625 825 c 0
 896.326171875 825 896.83203125 824.985351562 897.333984375 824.955078125 c 0
123.505859375 718.908203125 m 0
 124.0078125 718.938476562 124.474609375 718.953125 124.984375 718.953125 c 0
 126.70703125 718.953125 128.389648438 718.778320312 130.015625 718.4453125 c 0
 138.801757812 716.647460938 145.926757812 710.239257812 148.720703125 701.859375 c 0
 164.936523438 653.211914062 174.169921875 602.868164062 176.462890625 552.28515625 c 1
 500.00390625 552.28515625 l 2
 513.801757812 552.28515625 525.00390625 541.083007812 525.00390625 527.28515625 c 0
 525.00390625 513.487304688 513.801757812 502.28515625 500.00390625 502.28515625 c 2
 176.462890625 502.28515625 l 1
 174.169921875 451.703125 164.936523438 401.360351562 148.720703125 352.71484375 c 0
 145.41015625 342.784179688 136.036132812 335.627929688 125 335.627929688 c 0
 122.23828125 335.627929688 119.58203125 336.076171875 117.09765625 336.904296875 c 0
 107.166992188 340.21484375 100.010742188 349.588867188 100.010742188 360.625 c 0
 100.010742188 363.38671875 100.458984375 366.04296875 101.287109375 368.52734375 c 0
 118.461914062 420.05078125 127.051757812 473.662109375 127.052734375 527.2734375 c 0
 127.051757812 527.27734375 127.051757812 527.28125 127.05078125 527.28515625 c 0
 127.051757812 527.2890625 127.051757812 527.29296875 127.052734375 527.296875 c 0
 127.051757812 580.908203125 118.462890625 634.520507812 101.287109375 686.046875 c 0
 100.458984375 688.53125 100 691.185546875 100 693.946289062 c 0
 100 704.983398438 107.166992188 714.359375 117.09765625 717.669921875 c 0
 119.123046875 718.344726562 121.288085938 718.775390625 123.505859375 718.908203125 c 0
623.505859375 643.146484375 m 0
 624.0078125 643.176757812 624.474609375 643.19140625 624.984375 643.19140625 c 0
 626.70703125 643.19140625 628.389648438 643.016601562 630.015625 642.68359375 c 0
 638.801757812 640.885742188 645.927734375 634.4765625 648.720703125 626.095703125 c 0
 656.73828125 602.041992188 661.748046875 577.254882812 663.751953125 552.28515625 c 1
 875.00390625 552.28515625 l 2
 888.801757812 552.28515625 900.00390625 541.083007812 900.00390625 527.28515625 c 0
 900.00390625 513.487304688 888.801757812 502.28515625 875.00390625 502.28515625 c 2
 663.751953125 502.28515625 l 1
 661.748046875 477.315429688 656.73828125 452.528320312 648.720703125 428.4765625 c 0
 645.41015625 418.545898438 636.036132812 411.389648438 625 411.389648438 c 0
 622.23828125 411.389648438 619.58203125 411.837890625 617.09765625 412.666015625 c 0
 607.166992188 415.9765625 600.010742188 425.350585938 600.010742188 436.38671875 c 0
 600.010742188 439.1484375 600.458984375 441.8046875 601.287109375 444.2890625 c 0
 610.264648438 471.22265625 614.75390625 499.24609375 614.755859375 527.271484375 c 0
 614.754882812 527.276367188 614.754882812 527.280273438 614.75390625 527.28515625 c 0
 614.754882812 527.290039062 614.754882812 527.293945312 614.755859375 527.298828125 c 0
 614.754882812 555.32421875 610.264648438 583.349609375 601.287109375 610.28515625 c 0
 600.458984375 612.76953125 600 615.423828125 600 618.184570312 c 0
 600 629.221679688 607.16796875 638.598632812 617.099609375 641.908203125 c 0
 619.124023438 642.583007812 621.2890625 643.012695312 623.505859375 643.146484375 c 0
498.505859375 461.337890625 m 0
 499.0078125 461.368164062 499.474609375 461.3828125 499.984375 461.3828125 c 0
 501.70703125 461.3828125 503.389648438 461.208007812 505.015625 460.875 c 0
 513.801757812 459.077148438 520.927734375 452.66796875 523.720703125 444.287109375 c 0xcd80
 531.73828125 420.233398438 536.748046875 395.446289062 538.751953125 370.4765625 c 1
 875.00390625 370.4765625 l 2
 888.801757812 370.4765625 900.00390625 359.274414062 900.00390625 345.4765625 c 0
 900.00390625 331.678710938 888.801757812 320.4765625 875.00390625 320.4765625 c 2
 538.751953125 320.4765625 l 1xcb80
 536.748046875 295.506835938 531.73828125 270.719726562 523.720703125 246.666015625 c 0
 520.411132812 236.735351562 511.037109375 229.578125 499.999023438 229.578125 c 0
 497.239257812 229.578125 494.583007812 230.026367188 492.099609375 230.853515625 c 0
 482.168945312 234.1640625 475.01171875 243.538085938 475.01171875 254.575195312 c 0xcd80
 475.01171875 257.334960938 475.459960938 259.991210938 476.287109375 262.474609375 c 0
 485.265625 289.411132812 489.754882812 317.4375 489.755859375 345.46484375 c 0
 489.754882812 345.46875 489.754882812 345.47265625 489.75390625 345.4765625 c 0
 489.754882812 345.48046875 489.754882812 345.484375 489.755859375 345.48828125 c 0xcb80
 489.754882812 373.515625 485.265625 401.541992188 476.287109375 428.478515625 c 0
 475.459960938 430.961914062 475.000976562 433.616210938 475.000976562 436.375976562 c 0
 475.000976562 447.413085938 482.168945312 456.7890625 492.099609375 460.099609375 c 0
 494.124023438 460.774414062 496.2890625 461.204101562 498.505859375 461.337890625 c 0
1187.23632812 317.2265625 m 0
 1189.47460938 317.216796875 1191.63964844 316.908203125 1193.703125 316.345703125 c 0
 1204.31054688 313.453125 1212.12207031 303.752929688 1212.12207031 292.233398438 c 0
 1212.12207031 289.955078125 1211.81640625 287.747070312 1211.24414062 285.6484375 c 0
 1197.75097656 236.178710938 1177.50683594 189.169921875 1151.35546875 145.810546875 c 1
 1286.48046875 55.7265625 l 1
 1309.69824219 94.6181640625 1327.71289062 136.701171875 1339.78320312 180.95703125 c 0
 1342.12304688 189.538085938 1348.9296875 196.291015625 1357.54101562 198.556640625 c 0
 1359.57519531 199.091796875 1361.69433594 199.375976562 1363.89453125 199.375976562 c 0
 1366.17382812 199.375976562 1368.38183594 199.0703125 1370.48046875 198.498046875 c 0
 1381.08789062 195.60546875 1388.89941406 185.905273438 1388.89941406 174.385742188 c 0
 1388.89941406 172.107421875 1388.59375 169.899414062 1388.02148438 167.80078125 c 0
 1374.52832031 118.329101562 1354.28417969 71.318359375 1328.1328125 27.958984375 c 1
 1328.1328125 27.958984375 1638.83105469 -179.208007812 1638.87109375 -179.197265625 c 0
 1645.59570312 -183.6796875 1649.98925781 -191.34375 1649.98925781 -200.024414062 c 0
 1649.98925781 -205.141601562 1648.44824219 -209.90234375 1645.8046875 -213.8671875 c 0
 1641.32226562 -220.590820312 1633.65820312 -224.984375 1624.97851562 -224.984375 c 0
 1619.86132812 -224.984375 1615.10058594 -223.443359375 1611.13671875 -220.80078125 c 2
 1300.3984375 -13.642578125 l 1
 1270.43261719 -54.4580078125 1234.82617188 -91.2255859375 1194.34960938 -122.70703125 c 0
 1190.11523438 -126.000976562 1184.78613281 -127.993164062 1179.01171875 -127.993164062 c 0
 1170.98730469 -127.993164062 1163.84082031 -124.204101562 1159.265625 -118.3203125 c 0
 1155.97265625 -114.0859375 1153.98046875 -108.7578125 1153.98046875 -102.983398438 c 0
 1153.98046875 -94.9599609375 1157.76855469 -87.814453125 1163.65234375 -83.23828125 c 0
 1199.86035156 -55.0771484375 1231.77636719 -22.263671875 1258.74609375 14.125 c 1
 1123.62109375 104.208984375 l 1
 1093.65527344 63.3935546875 1058.046875 26.6259765625 1017.5703125 -4.85546875 c 0
 1013.3359375 -8.1484375 1008.0078125 -10.140625 1002.23339844 -10.140625 c 0
 994.209960938 -10.140625 987.064453125 -6.3525390625 982.48828125 -0.46875 c 0
 979.1953125 3.765625 977.203125 9.09375 977.203125 14.8681640625 c 0
 977.203125 22.8916015625 980.991210938 30.037109375 986.875 34.61328125 c 0
 1029.74707031 67.9580078125 1066.6328125 107.801757812 1096.37304688 152.41015625 c 0
 1096.37402344 152.413085938 1096.37402344 152.415039062 1096.375 152.41796875 c 0
 1096.37695312 152.419921875 1096.37890625 152.421875 1096.38085938 152.423828125 c 0
 1126.12011719 197.033203125 1148.71386719 246.407226562 1163.00585938 298.8046875 c 0
 1165.34667969 307.384765625 1172.15136719 314.13671875 1180.76171875 316.40234375 c 0
 1182.79785156 316.938476562 1184.92382812 317.2265625 1187.12695312 317.2265625 c 0
 1187.16308594 317.2265625 1187.20019531 317.2265625 1187.23632812 317.2265625 c 0
EndSplineSet
EndChar

StartChar: U12261
Encoding: 268 74337 12
Width: 1250
VWidth: 100
Flags: W
HStem: 275 50<176.463 364.648 435.359 1149.8>
VStem: 100.011 48.71<109.775 214.859 385.141 490.225>
LayerCount: 2
Fore
SplineSet
868.533203125 824.1484375 m 0
 870.599609375 824.702148438 872.766601562 825.00390625 875.006835938 825.00390625 c 0
 881.90625 825.00390625 888.15625 822.203125 892.681640625 817.677734375 c 0
 897.20703125 813.15234375 900.0078125 806.895507812 900.0078125 799.99609375 c 0
 900.0078125 793.09765625 897.20703125 786.84765625 892.681640625 782.322265625 c 2
 435.359375 325 l 1
 1125.00390625 325 l 2
 1138.80175781 325 1150.00390625 313.797851562 1150.00390625 300 c 0
 1150.00390625 286.202148438 1138.80175781 275 1125.00390625 275 c 2
 435.359375 275 l 1
 435.359375 275 892.681640625 -182.329101562 892.681640625 -182.322265625 c 1
 897.20703125 -186.84765625 900.0078125 -193.104492188 900.0078125 -200.00390625 c 0
 900.0078125 -206.90234375 897.20703125 -213.15234375 892.681640625 -217.677734375 c 0
 888.15625 -222.203125 881.899414062 -225.00390625 875 -225.00390625 c 0
 868.1015625 -225.00390625 861.8515625 -222.203125 857.326171875 -217.677734375 c 2
 364.6484375 275 l 1
 176.462890625 275 l 1
 174.169921875 224.416992188 164.936523438 174.073242188 148.720703125 125.42578125 c 0
 145.41015625 115.495117188 136.036132812 108.338867188 125 108.338867188 c 0
 122.23828125 108.338867188 119.58203125 108.787109375 117.09765625 109.615234375 c 0
 107.166992188 112.92578125 100.010742188 122.299804688 100.010742188 133.3359375 c 0
 100.010742188 136.09765625 100.458984375 138.75390625 101.287109375 141.23828125 c 0
 118.462890625 192.765625 127.051757812 246.37890625 127.052734375 299.9921875 c 0
 127.051757812 299.995117188 127.051757812 299.997070312 127.05078125 300 c 0
 127.051757812 300.002929688 127.051757812 300.004882812 127.052734375 300.0078125 c 0
 127.051757812 353.62109375 118.462890625 407.234375 101.287109375 458.76171875 c 0
 100.458984375 461.24609375 100 463.900390625 100 466.661132812 c 0
 100 477.698242188 107.166992188 487.07421875 117.09765625 490.384765625 c 0
 119.58203125 491.212890625 122.223632812 491.666992188 124.985351562 491.666992188 c 0
 126.708007812 491.666992188 128.390625 491.493164062 130.015625 491.16015625 c 0
 138.801757812 489.362304688 145.926757812 482.954101562 148.720703125 474.57421875 c 0
 164.936523438 425.926757812 174.169921875 375.583007812 176.462890625 325 c 1
 364.6484375 325 l 1
 364.6484375 325 857.336914062 817.670898438 857.326171875 817.677734375 c 1
 860.381835938 820.733398438 864.235351562 822.997070312 868.533203125 824.1484375 c 0
EndSplineSet
EndChar

StartChar: U121b0
Encoding: 269 74160 13
Width: 1250
VWidth: 100
Flags: W
HStem: 275 50<176.463 531.316 602.027 1064.65>
VStem: 100.011 48.71<109.775 214.859 385.141 490.225>
LayerCount: 2
Fore
SplineSet
1127.18359375 824.904296875 m 0
 1133.20410156 824.377929688 1138.64355469 821.715820312 1142.68164062 817.677734375 c 0
 1147.20703125 813.15234375 1150.0078125 806.895507812 1150.0078125 799.99609375 c 0
 1150.0078125 793.09765625 1147.20703125 786.84765625 1142.68164062 782.322265625 c 2
 910.359375 550 l 1
 910.359375 550 1142.67578125 317.684570312 1142.68164062 317.677734375 c 0
 1142.984375 317.346679688 1143.2734375 317.014648438 1143.55859375 316.66796875 c 0
 1143.87890625 316.318359375 1144.18359375 315.966796875 1144.484375 315.599609375 c 0
 1144.48535156 315.596679688 1144.48730469 315.594726562 1144.48828125 315.591796875 c 0
 1145.08496094 314.836914062 1145.6328125 314.055664062 1146.140625 313.234375 c 0
 1146.35742188 312.913085938 1146.56542969 312.588867188 1146.76757812 312.2578125 c 0
 1147.42089844 311.107421875 1147.9921875 309.884765625 1148.45898438 308.630859375 c 0
 1148.52148438 308.427734375 1148.58300781 308.21875 1148.640625 308.013671875 c 0
 1148.99902344 306.966796875 1149.29589844 305.862304688 1149.51367188 304.7578125 c 0
 1149.58984375 304.314453125 1149.65429688 303.86328125 1149.70703125 303.412109375 c 0
 1149.83203125 302.530273438 1149.90917969 301.646484375 1149.93945312 300.73828125 c 0
 1149.96484375 300.4921875 1149.98632812 300.248046875 1150.00390625 300 c 0
 1149.98339844 299.920898438 1149.9609375 299.838867188 1149.93945312 299.759765625 c 0
 1149.90625 295.358398438 1148.71777344 291.1953125 1146.68554688 287.61328125 c 0
 1146.63574219 287.53515625 1146.5859375 287.458007812 1146.53515625 287.380859375 c 0
 1145.46289062 285.5234375 1144.17773438 283.838867188 1142.68164062 282.322265625 c 2
 910.359375 50 l 1
 910.359375 50 1142.68164062 -182.329101562 1142.68164062 -182.322265625 c 1
 1147.20703125 -186.84765625 1150.0078125 -193.104492188 1150.0078125 -200.00390625 c 0
 1150.0078125 -206.90234375 1147.20703125 -213.15234375 1142.68164062 -217.677734375 c 0
 1138.15625 -222.203125 1131.89941406 -225.00390625 1125 -225.00390625 c 0
 1118.1015625 -225.00390625 1111.8515625 -222.203125 1107.32617188 -217.677734375 c 2
 1107.32617188 -217.677734375 857.326171875 32.3291015625 857.326171875 32.322265625 c 1
 852.801757812 36.84765625 850.000976562 43.1044921875 850.000976562 50.00390625 c 0
 850.000976562 56.90234375 852.801757812 63.15234375 857.326171875 67.677734375 c 2
 1064.6484375 275 l 1
 602.02734375 275 l 1
 602.02734375 275 892.681640625 -15.6611328125 892.681640625 -15.654296875 c 1
 897.20703125 -20.1796875 900.0078125 -26.4365234375 900.0078125 -33.3359375 c 0
 900.0078125 -40.234375 897.20703125 -46.484375 892.681640625 -51.009765625 c 0
 888.15625 -55.53515625 881.899414062 -58.3359375 875 -58.3359375 c 0
 868.1015625 -58.3359375 861.8515625 -55.53515625 857.326171875 -51.009765625 c 2
 531.31640625 275 l 1
 176.462890625 275 l 1
 174.169921875 224.416992188 164.936523438 174.073242188 148.720703125 125.42578125 c 0
 145.41015625 115.495117188 136.036132812 108.338867188 125 108.338867188 c 0
 122.23828125 108.338867188 119.58203125 108.787109375 117.09765625 109.615234375 c 0
 107.166992188 112.92578125 100.010742188 122.299804688 100.010742188 133.3359375 c 0
 100.010742188 136.09765625 100.458984375 138.75390625 101.287109375 141.23828125 c 0
 118.462890625 192.765625 127.051757812 246.37890625 127.052734375 299.9921875 c 0
 127.051757812 299.995117188 127.051757812 299.997070312 127.05078125 300 c 0
 127.051757812 300.002929688 127.051757812 300.004882812 127.052734375 300.0078125 c 0
 127.051757812 353.62109375 118.462890625 407.234375 101.287109375 458.76171875 c 0
 100.458984375 461.24609375 100 463.900390625 100 466.661132812 c 0
 100 477.698242188 107.166992188 487.07421875 117.09765625 490.384765625 c 0
 119.58203125 491.212890625 122.223632812 491.666992188 124.985351562 491.666992188 c 0
 126.708007812 491.666992188 128.390625 491.493164062 130.015625 491.16015625 c 0
 138.801757812 489.362304688 145.926757812 482.954101562 148.720703125 474.57421875 c 0
 164.936523438 425.926757812 174.169921875 375.583007812 176.462890625 325 c 1
 531.31640625 325 l 1
 531.31640625 325 857.336914062 651.002929688 857.326171875 651.009765625 c 1
 860.381835938 654.065429688 864.235351562 656.329101562 868.533203125 657.48046875 c 0
 870.599609375 658.034179688 872.766601562 658.3359375 875.006835938 658.3359375 c 0
 881.90625 658.3359375 888.15625 655.53515625 892.681640625 651.009765625 c 0
 897.20703125 646.484375 900.0078125 640.227539062 900.0078125 633.328125 c 0
 900.0078125 626.4296875 897.20703125 620.1796875 892.681640625 615.654296875 c 2
 602.02734375 325 l 1
 1064.6484375 325 l 1
 1064.6484375 325 857.326171875 532.329101562 857.326171875 532.322265625 c 1
 852.801757812 536.84765625 850.000976562 543.104492188 850.000976562 550.00390625 c 0
 850.000976562 556.90234375 852.801757812 563.15234375 857.326171875 567.677734375 c 2
 857.326171875 567.677734375 1107.33691406 817.670898438 1107.32617188 817.677734375 c 1
 1110.38183594 820.733398438 1114.23535156 822.997070312 1118.53320312 824.1484375 c 0
 1120.59863281 824.702148438 1122.73730469 825.000976562 1124.97753906 825.000976562 c 0
 1125.72070312 825.000976562 1126.45605469 824.967773438 1127.18359375 824.904296875 c 0
EndSplineSet
EndChar

StartChar: U12041
Encoding: 270 73793 14
Width: 1250
VWidth: 100
Flags: W
HStem: 275 50<176.463 947.98>
LayerCount: 2
Fore
SplineSet
123.505859375 491.623046875 m 0
 124.0078125 491.653320312 124.474609375 491.66796875 124.984375 491.66796875 c 0
 126.70703125 491.66796875 128.389648438 491.493164062 130.015625 491.16015625 c 0
 138.801757812 489.362304688 145.926757812 482.954101562 148.720703125 474.57421875 c 0
 164.936523438 425.926757812 174.169921875 375.583007812 176.462890625 325 c 1
 947.98046875 325 l 1
 947.98046875 325 1107.33691406 484.338867188 1107.32617188 484.345703125 c 1
 1110.38183594 487.401367188 1114.23535156 489.665039062 1118.53320312 490.81640625 c 0
 1120.59960938 491.370117188 1122.76660156 491.671875 1125.00683594 491.671875 c 0
 1131.90625 491.671875 1138.15625 488.87109375 1142.68164062 484.345703125 c 0
 1147.20703125 479.8203125 1150.0078125 473.563476562 1150.0078125 466.6640625 c 0
 1150.0078125 459.765625 1147.20703125 453.515625 1142.68164062 448.990234375 c 2
 993.69140625 300 l 1
 993.69140625 300 1142.68164062 151.002929688 1142.68164062 151.009765625 c 1
 1147.20703125 146.484375 1150.0078125 140.227539062 1150.0078125 133.328125 c 0
 1150.0078125 126.4296875 1147.20703125 120.1796875 1142.68164062 115.654296875 c 0
 1138.15625 111.12890625 1131.89941406 108.328125 1125 108.328125 c 0
 1118.1015625 108.328125 1111.8515625 111.12890625 1107.32617188 115.654296875 c 2
 947.98046875 275 l 1
 176.462890625 275 l 1
 174.169921875 224.416992188 164.936523438 174.073242188 148.720703125 125.42578125 c 0
 145.41015625 115.495117188 136.036132812 108.338867188 125 108.338867188 c 0
 122.23828125 108.338867188 119.58203125 108.787109375 117.09765625 109.615234375 c 0
 107.166992188 112.92578125 100.010742188 122.299804688 100.010742188 133.3359375 c 0
 100.010742188 136.09765625 100.458984375 138.75390625 101.287109375 141.23828125 c 0
 118.462890625 192.765625 127.051757812 246.37890625 127.052734375 299.9921875 c 0
 127.051757812 299.995117188 127.051757812 299.997070312 127.05078125 300 c 0
 127.051757812 300.002929688 127.051757812 300.004882812 127.052734375 300.0078125 c 0
 127.051757812 353.62109375 118.462890625 407.234375 101.287109375 458.76171875 c 0
 100.458984375 461.24609375 100 463.900390625 100 466.661132812 c 0
 100 477.698242188 107.166992188 487.07421875 117.09765625 490.384765625 c 0
 119.123046875 491.059570312 121.288085938 491.490234375 123.505859375 491.623046875 c 0
EndSplineSet
EndChar

StartChar: U12458
Encoding: 271 74840 15
Width: 1250
VWidth: 100
Flags: W
HStem: 275 50<176.463 947.98>
LayerCount: 2
Fore
SplineSet
123.505859375 491.623046875 m 0
 124.0078125 491.653320312 124.474609375 491.66796875 124.984375 491.66796875 c 0
 126.70703125 491.66796875 128.389648438 491.493164062 130.015625 491.16015625 c 0
 138.801757812 489.362304688 145.926757812 482.954101562 148.720703125 474.57421875 c 0
 164.936523438 425.926757812 174.169921875 375.583007812 176.462890625 325 c 1
 947.98046875 325 l 1
 947.98046875 325 1107.33691406 484.338867188 1107.32617188 484.345703125 c 1
 1110.38183594 487.401367188 1114.23535156 489.665039062 1118.53320312 490.81640625 c 0
 1120.59960938 491.370117188 1122.76660156 491.671875 1125.00683594 491.671875 c 0
 1131.90625 491.671875 1138.15625 488.87109375 1142.68164062 484.345703125 c 0
 1147.20703125 479.8203125 1150.0078125 473.563476562 1150.0078125 466.6640625 c 0
 1150.0078125 459.765625 1147.20703125 453.515625 1142.68164062 448.990234375 c 2
 993.69140625 300 l 1
 993.69140625 300 1142.68164062 151.002929688 1142.68164062 151.009765625 c 1
 1147.20703125 146.484375 1150.0078125 140.227539062 1150.0078125 133.328125 c 0
 1150.0078125 126.4296875 1147.20703125 120.1796875 1142.68164062 115.654296875 c 0
 1138.15625 111.12890625 1131.89941406 108.328125 1125 108.328125 c 0
 1118.1015625 108.328125 1111.8515625 111.12890625 1107.32617188 115.654296875 c 2
 947.98046875 275 l 1
 176.462890625 275 l 1
 174.169921875 224.416992188 164.936523438 174.073242188 148.720703125 125.42578125 c 0
 145.41015625 115.495117188 136.036132812 108.338867188 125 108.338867188 c 0
 122.23828125 108.338867188 119.58203125 108.787109375 117.09765625 109.615234375 c 0
 107.166992188 112.92578125 100.010742188 122.299804688 100.010742188 133.3359375 c 0
 100.010742188 136.09765625 100.458984375 138.75390625 101.287109375 141.23828125 c 0
 118.462890625 192.765625 127.051757812 246.37890625 127.052734375 299.9921875 c 0
 127.051757812 299.995117188 127.051757812 299.997070312 127.05078125 300 c 0
 127.051757812 300.002929688 127.051757812 300.004882812 127.052734375 300.0078125 c 0
 127.051757812 353.62109375 118.462890625 407.234375 101.287109375 458.76171875 c 0
 100.458984375 461.24609375 100 463.900390625 100 466.661132812 c 0
 100 477.698242188 107.166992188 487.07421875 117.09765625 490.384765625 c 0
 119.123046875 491.059570312 121.288085938 491.490234375 123.505859375 491.623046875 c 0
EndSplineSet
EndChar

StartChar: U12074
Encoding: 272 73844 16
Width: 2250
VWidth: 100
Flags: W
HStem: -104.51 47.3164<984.976 1007.15> 275 50<176.463 1149.8> 415.209 49.4102<1146.94 1266.67 1316.67 1408.87> 442.951 48.209<1100.14 1124.93> 657.124 47.3857<984.987 1031.52>
VStem: 1220.49 47.3857<-340.017 -293.48 893.48 940.017> 1266.67 50<-224.799 -93.6875 27.0234 415.209>
LayerCount: 2
Fore
SplineSet
1241.35742188 942.806640625 m 0xec
 1241.86035156 942.836914062 1242.37011719 942.836914062 1242.87988281 942.836914062 c 0
 1246.88769531 942.836914062 1250.67675781 941.891601562 1254.03515625 940.212890625 c 0
 1262.24023438 936.110351562 1267.84082031 927.6171875 1267.84082031 917.827148438 c 0
 1267.84082031 913.819335938 1266.89648438 910.03125 1265.21679688 906.671875 c 0
 1242.28417969 860.806640625 1213.21484375 818.6796875 1179.06835938 781.291015625 c 1
 1625.00390625 335.35546875 l 1
 1625.00390625 335.35546875 2107.33691406 817.670898438 2107.32617188 817.677734375 c 1
 2110.38183594 820.733398438 2114.23535156 822.997070312 2118.53320312 824.1484375 c 0
 2120.59960938 824.702148438 2122.76660156 825.00390625 2125.00683594 825.00390625 c 0
 2131.90625 825.00390625 2138.15625 822.203125 2142.68164062 817.677734375 c 0
 2147.20703125 813.15234375 2150.0078125 806.895507812 2150.0078125 799.99609375 c 0
 2150.0078125 793.09765625 2147.20703125 786.84765625 2142.68164062 782.322265625 c 2
 1660.359375 300 l 1
 1660.359375 300 2142.68164062 -182.329101562 2142.68164062 -182.322265625 c 1
 2147.20703125 -186.84765625 2150.0078125 -193.104492188 2150.0078125 -200.00390625 c 0
 2150.0078125 -206.90234375 2147.20703125 -213.15234375 2142.68164062 -217.677734375 c 0
 2138.15625 -222.203125 2131.89941406 -225.00390625 2125 -225.00390625 c 0
 2118.1015625 -225.00390625 2111.8515625 -222.203125 2107.32617188 -217.677734375 c 2
 1625.00390625 264.64453125 l 1
 1316.671875 -43.6875 l 1
 1316.671875 -200 l 2
 1316.671875 -213.797851562 1305.46972656 -225 1291.671875 -225 c 0
 1277.87402344 -225 1266.671875 -213.797851562 1266.671875 -200 c 2
 1266.671875 -93.6875 l 1xea
 1179.06835938 -181.291015625 l 1
 1213.21484375 -218.6796875 1242.28417969 -260.806640625 1265.21679688 -306.671875 c 0
 1266.89648438 -310.03125 1267.87988281 -313.829101562 1267.87988281 -317.836914062 c 0
 1267.87988281 -327.626953125 1262.24023438 -336.110351562 1254.03515625 -340.212890625 c 0
 1250.67578125 -341.892578125 1246.87792969 -342.875976562 1242.87011719 -342.875976562 c 0
 1233.08007812 -342.875976562 1224.59667969 -337.236328125 1220.49414062 -329.03125 c 0xec
 1171.91210938 -231.866210938 1093.13769531 -153.092773438 995.97265625 -104.509765625 c 0
 987.767578125 -100.407226562 982.166992188 -91.9150390625 982.166992188 -82.1240234375 c 0
 982.166992188 -78.1162109375 983.111328125 -74.328125 984.791015625 -70.96875 c 0
 988.6796875 -63.19140625 996.510742188 -57.7421875 1005.65429688 -57.193359375 c 0
 1006.15722656 -57.1630859375 1006.66699219 -57.1630859375 1007.17675781 -57.1630859375 c 0
 1011.18457031 -57.1630859375 1014.97363281 -58.1083984375 1018.33203125 -59.787109375 c 0
 1064.19628906 -82.7197265625 1106.32421875 -111.7890625 1143.71289062 -145.935546875 c 1
 1266.671875 -22.9765625 l 1
 1266.671875 415.208984375 l 1xea
 1216.08789062 417.501953125 1165.74414062 426.735351562 1117.09765625 442.951171875 c 0
 1107.16699219 446.26171875 1100.01074219 455.635742188 1100.01074219 466.671875 c 0
 1100.01074219 469.43359375 1100.45898438 472.08984375 1101.28710938 474.57421875 c 0
 1104.08105469 482.954101562 1111.20605469 489.362304688 1119.9921875 491.16015625 c 0xda
 1121.6171875 491.493164062 1123.28515625 491.661132812 1125.00878906 491.661132812 c 0
 1127.76953125 491.661132812 1130.42578125 491.212890625 1132.91015625 490.384765625 c 0
 1184.43554688 473.208984375 1238.04882812 464.620117188 1291.66210938 464.619140625 c 0
 1291.66503906 464.620117188 1291.66894531 464.620117188 1291.671875 464.62109375 c 0
 1291.67871094 464.620117188 1291.68652344 464.620117188 1291.69335938 464.619140625 c 0
 1331.65234375 464.62109375 1371.61132812 469.401367188 1410.70507812 478.943359375 c 1
 1143.71289062 745.935546875 l 1
 1106.32421875 711.7890625 1064.19628906 682.719726562 1018.33203125 659.787109375 c 0
 1014.97265625 658.107421875 1011.17480469 657.124023438 1007.16699219 657.124023438 c 0
 997.376953125 657.124023438 988.893554688 662.763671875 984.791015625 670.96875 c 0
 983.111328125 674.328125 982.127929688 678.125976562 982.127929688 682.133789062 c 0
 982.127929688 691.923828125 987.767578125 700.407226562 995.97265625 704.509765625 c 0
 1093.13769531 753.092773438 1171.91210938 831.866210938 1220.49414062 929.03125 c 0
 1224.3828125 936.80859375 1232.21386719 942.2578125 1241.35742188 942.806640625 c 0xec
710.515625 824.904296875 m 0
 716.536132812 824.377929688 721.975585938 821.715820312 726.013671875 817.677734375 c 0
 730.5390625 813.15234375 733.33984375 806.895507812 733.33984375 799.99609375 c 0
 733.33984375 793.09765625 730.5390625 786.84765625 726.013671875 782.322265625 c 2
 577.02734375 633.33203125 l 1
 577.02734375 633.33203125 726.013671875 484.338867188 726.013671875 484.345703125 c 1
 730.5390625 479.8203125 733.33984375 473.563476562 733.33984375 466.6640625 c 0
 733.33984375 459.765625 730.5390625 453.515625 726.013671875 448.990234375 c 0
 721.48828125 444.46484375 715.231445312 441.6640625 708.33203125 441.6640625 c 0
 701.43359375 441.6640625 695.18359375 444.46484375 690.658203125 448.990234375 c 2
 690.658203125 448.990234375 523.994140625 615.661132812 523.994140625 615.654296875 c 1
 519.469726562 620.1796875 516.668945312 626.436523438 516.668945312 633.3359375 c 0
 516.668945312 640.234375 519.469726562 646.484375 523.994140625 651.009765625 c 2
 523.994140625 651.009765625 690.668945312 817.670898438 690.658203125 817.677734375 c 1
 693.713867188 820.733398438 697.567382812 822.997070312 701.865234375 824.1484375 c 0
 703.930664062 824.702148438 706.069335938 825.000976562 708.309570312 825.000976562 c 0
 709.052734375 825.000976562 709.788085938 824.967773438 710.515625 824.904296875 c 0
123.505859375 491.623046875 m 0
 124.0078125 491.653320312 124.474609375 491.66796875 124.984375 491.66796875 c 0
 126.70703125 491.66796875 128.389648438 491.493164062 130.015625 491.16015625 c 0xd8
 138.801757812 489.362304688 145.926757812 482.954101562 148.720703125 474.57421875 c 0
 164.936523438 425.926757812 174.169921875 375.583007812 176.462890625 325 c 1
 1125.00390625 325 l 2
 1138.80175781 325 1150.00390625 313.797851562 1150.00390625 300 c 0
 1150.00390625 286.202148438 1138.80175781 275 1125.00390625 275 c 2
 176.462890625 275 l 1
 174.169921875 224.416992188 164.936523438 174.073242188 148.720703125 125.42578125 c 0
 145.41015625 115.495117188 136.036132812 108.338867188 125 108.338867188 c 0
 122.23828125 108.338867188 119.58203125 108.787109375 117.09765625 109.615234375 c 0
 107.166992188 112.92578125 100.010742188 122.299804688 100.010742188 133.3359375 c 0
 100.010742188 136.09765625 100.458984375 138.75390625 101.287109375 141.23828125 c 0
 118.462890625 192.765625 127.051757812 246.37890625 127.052734375 299.9921875 c 0
 127.051757812 299.995117188 127.051757812 299.997070312 127.05078125 300 c 0
 127.051757812 300.002929688 127.051757812 300.004882812 127.052734375 300.0078125 c 0
 127.051757812 353.62109375 118.462890625 407.234375 101.287109375 458.76171875 c 0
 100.458984375 461.24609375 100 463.900390625 100 466.661132812 c 0
 100 477.698242188 107.166992188 487.07421875 117.09765625 490.384765625 c 0
 119.123046875 491.059570312 121.288085938 491.490234375 123.505859375 491.623046875 c 0
1451.38867188 438.259765625 m 1
 1407.37988281 424.95703125 1362.12597656 417.26953125 1316.671875 415.208984375 c 1
 1316.671875 27.0234375 l 1xea
 1589.6484375 300 l 1
 1451.38867188 438.259765625 l 1
710.515625 158.236328125 m 0
 716.536132812 157.709960938 721.975585938 155.047851562 726.013671875 151.009765625 c 0
 730.5390625 146.484375 733.33984375 140.227539062 733.33984375 133.328125 c 0
 733.33984375 126.4296875 730.5390625 120.1796875 726.013671875 115.654296875 c 2
 577.02734375 -33.33203125 l 1
 577.02734375 -33.33203125 726.013671875 -182.329101562 726.013671875 -182.322265625 c 1
 730.5390625 -186.84765625 733.33984375 -193.104492188 733.33984375 -200.00390625 c 0
 733.33984375 -206.90234375 730.5390625 -213.15234375 726.013671875 -217.677734375 c 0
 721.48828125 -222.203125 715.231445312 -225.00390625 708.33203125 -225.00390625 c 0
 701.43359375 -225.00390625 695.18359375 -222.203125 690.658203125 -217.677734375 c 2
 690.658203125 -217.677734375 523.994140625 -51.0029296875 523.994140625 -51.009765625 c 1
 519.469726562 -46.484375 516.668945312 -40.2275390625 516.668945312 -33.328125 c 0
 516.668945312 -26.4296875 519.469726562 -20.1796875 523.994140625 -15.654296875 c 2
 523.994140625 -15.654296875 690.668945312 151.002929688 690.658203125 151.009765625 c 1
 693.713867188 154.065429688 697.567382812 156.329101562 701.865234375 157.48046875 c 0
 703.930664062 158.034179688 706.069335938 158.333007812 708.309570312 158.333007812 c 0
 709.052734375 158.333007812 709.788085938 158.299804688 710.515625 158.236328125 c 0
EndSplineSet
EndChar

StartChar: U1223e
Encoding: 273 74302 17
Width: 1750
VWidth: 100
Flags: W
HStem: 275 50<176.463 947.98> 748.541 50.0566<1483.34 1605.38> 776.283 48.7217<1266.86 1373.81 1542.44 1648.56>
VStem: 100.011 48.71<109.775 214.859 385.141 490.225> 1433.34 50<-224.799 289.645 360.355 739.645>
LayerCount: 2
Fore
SplineSet
1624.81445312 825 m 0xd8
 1624.87890625 825 1624.93261719 825.004882812 1624.99707031 825.004882812 c 0
 1636.03417969 825.004882812 1645.41015625 817.836914062 1648.72070312 807.90625 c 0
 1649.54882812 805.421875 1650.0078125 802.767578125 1650.0078125 800.006835938 c 0
 1650.0078125 788.969726562 1642.84082031 779.59375 1632.91015625 776.283203125 c 0xb8
 1584.26367188 760.067382812 1533.91992188 750.833984375 1483.3359375 748.541015625 c 1xd8
 1483.3359375 -200 l 2
 1483.3359375 -213.797851562 1472.13378906 -225 1458.3359375 -225 c 0
 1444.53808594 -225 1433.3359375 -213.797851562 1433.3359375 -200 c 2
 1433.3359375 289.64453125 l 1
 1208.3359375 514.64453125 l 1
 993.69140625 300 l 1
 993.69140625 300 1226.01367188 67.6708984375 1226.01367188 67.677734375 c 1
 1230.5390625 63.15234375 1233.33984375 56.8955078125 1233.33984375 49.99609375 c 0
 1233.33984375 43.09765625 1230.5390625 36.84765625 1226.01367188 32.322265625 c 0
 1221.48828125 27.796875 1215.23144531 24.99609375 1208.33203125 24.99609375 c 0
 1201.43359375 24.99609375 1195.18359375 27.796875 1190.65820312 32.322265625 c 2
 947.98046875 275 l 1
 176.462890625 275 l 1
 174.169921875 224.416992188 164.936523438 174.073242188 148.720703125 125.42578125 c 0
 145.41015625 115.495117188 136.036132812 108.338867188 125 108.338867188 c 0
 122.23828125 108.338867188 119.58203125 108.787109375 117.09765625 109.615234375 c 0
 107.166992188 112.92578125 100.010742188 122.299804688 100.010742188 133.3359375 c 0
 100.010742188 136.09765625 100.458984375 138.75390625 101.287109375 141.23828125 c 0
 118.462890625 192.765625 127.051757812 246.37890625 127.052734375 299.9921875 c 0
 127.051757812 299.995117188 127.051757812 299.997070312 127.05078125 300 c 0
 127.051757812 300.002929688 127.051757812 300.004882812 127.052734375 300.0078125 c 0
 127.051757812 353.62109375 118.462890625 407.234375 101.287109375 458.76171875 c 0
 100.458984375 461.24609375 100 463.900390625 100 466.661132812 c 0
 100 477.698242188 107.166992188 487.07421875 117.09765625 490.384765625 c 0
 119.58203125 491.212890625 122.223632812 491.666992188 124.985351562 491.666992188 c 0
 126.708007812 491.666992188 128.390625 491.493164062 130.015625 491.16015625 c 0
 138.801757812 489.362304688 145.926757812 482.954101562 148.720703125 474.57421875 c 0
 164.936523438 425.926757812 174.169921875 375.583007812 176.462890625 325 c 1
 947.98046875 325 l 1
 1190.65820312 567.677734375 l 1
 1376.98828125 754.0078125 l 1
 1345.48730469 758.701171875 1314.29003906 766.108398438 1283.765625 776.283203125 c 0xb8
 1273.83496094 779.59375 1266.67871094 788.967773438 1266.67871094 800.00390625 c 0
 1266.67871094 802.765625 1267.12695312 805.421875 1267.95507812 807.90625 c 0
 1270.74902344 816.286132812 1277.87402344 822.694335938 1286.66015625 824.4921875 c 0
 1288.28515625 824.825195312 1289.953125 824.993164062 1291.67675781 824.993164062 c 0
 1294.4375 824.993164062 1297.09375 824.544921875 1299.578125 823.716796875 c 0
 1339.5390625 810.396484375 1380.75683594 802.265625 1422.25585938 799.275390625 c 1
 1422.25585938 799.275390625 1440.66894531 817.670898438 1440.65820312 817.677734375 c 1
 1443.71386719 820.733398438 1447.56738281 822.997070312 1451.86523438 824.1484375 c 0
 1453.93164062 824.702148438 1456.09863281 825.00390625 1458.33886719 825.00390625 c 0
 1465.23828125 825.00390625 1471.48828125 822.203125 1476.01367188 817.677734375 c 0
 1480.52441406 813.154296875 1483.3125 806.930664062 1483.3125 800.043945312 c 0
 1483.3125 799.55859375 1483.29882812 799.076171875 1483.27148438 798.59765625 c 1
 1528.53125 800.84765625 1573.56054688 809.204101562 1617.09765625 823.716796875 c 0
 1619.5234375 824.525390625 1622.12304688 824.979492188 1624.81445312 825 c 0xd8
1433.3359375 739.64453125 m 1
 1243.69140625 550 l 1
 1433.3359375 360.35546875 l 1
 1433.3359375 739.64453125 l 1
EndSplineSet
EndChar

StartChar: U12034
Encoding: 274 73780 18
Width: 1250
VWidth: 100
Flags: W
HStem: 275 50<176.463 781.316> 776.283 48.7217<766.864 873.196 1043.48 1148.56>
VStem: 100.011 48.71<109.775 214.858 385.142 490.225> 933.336 50<-224.799 122.977 193.689 406.311 477.023 748.541>
LayerCount: 2
Fore
SplineSet
1124.81445312 825 m 0
 1124.87890625 825 1124.93261719 825.004882812 1124.99707031 825.004882812 c 0
 1136.03417969 825.004882812 1145.41015625 817.836914062 1148.72070312 807.90625 c 0
 1149.54882812 805.421875 1150.0078125 802.767578125 1150.0078125 800.006835938 c 0
 1150.0078125 788.969726562 1142.84082031 779.59375 1132.91015625 776.283203125 c 0
 1084.26367188 760.067382812 1033.91992188 750.833984375 983.3359375 748.541015625 c 1
 983.3359375 -200 l 2
 983.3359375 -213.797851562 972.133789062 -225 958.3359375 -225 c 0
 944.538085938 -225 933.3359375 -213.797851562 933.3359375 -200 c 2
 933.3359375 122.9765625 l 1
 781.31640625 275 l 1
 176.462890625 275 l 1
 174.169921875 224.416992188 164.936523438 174.073242188 148.720703125 125.42578125 c 0
 145.41015625 115.495117188 136.036132812 108.338867188 125 108.338867188 c 0
 122.23828125 108.338867188 119.58203125 108.787109375 117.09765625 109.615234375 c 0
 107.166992188 112.92578125 100.010742188 122.299804688 100.010742188 133.3359375 c 0
 100.010742188 136.09765625 100.458984375 138.75390625 101.287109375 141.23828125 c 0
 118.462890625 192.764648438 127.051757812 246.377929688 127.052734375 299.990234375 c 0
 127.051757812 299.993164062 127.051757812 299.997070312 127.05078125 300 c 0
 127.051757812 300.002929688 127.051757812 300.006835938 127.052734375 300.009765625 c 0
 127.051757812 353.622070312 118.462890625 407.235351562 101.287109375 458.76171875 c 0
 100.458984375 461.24609375 100 463.900390625 100 466.661132812 c 0
 100 477.698242188 107.166992188 487.07421875 117.09765625 490.384765625 c 0
 119.58203125 491.212890625 122.223632812 491.666992188 124.985351562 491.666992188 c 0
 126.708007812 491.666992188 128.390625 491.493164062 130.015625 491.16015625 c 0
 138.801757812 489.362304688 145.926757812 482.954101562 148.720703125 474.57421875 c 0
 164.936523438 425.926757812 174.169921875 375.583007812 176.462890625 325 c 1
 781.31640625 325 l 1
 933.3359375 477.0234375 l 1
 933.3359375 748.541015625 l 1
 882.75390625 750.833984375 832.411132812 760.067382812 783.765625 776.283203125 c 0
 773.834960938 779.59375 766.678710938 788.967773438 766.678710938 800.00390625 c 0
 766.678710938 802.765625 767.126953125 805.421875 767.955078125 807.90625 c 0
 770.749023438 816.286132812 777.874023438 822.694335938 786.66015625 824.4921875 c 0
 788.28515625 824.825195312 789.953125 824.993164062 791.676757812 824.993164062 c 0
 794.4375 824.993164062 797.09375 824.544921875 799.578125 823.716796875 c 0
 851.102539062 806.541015625 904.71484375 797.952148438 958.328125 797.951171875 c 0
 958.331054688 797.952148438 958.333007812 797.952148438 958.3359375 797.953125 c 0
 958.342773438 797.952148438 958.348632812 797.952148438 958.35546875 797.951171875 c 0
 1011.96582031 797.953125 1065.57617188 806.541992188 1117.09765625 823.716796875 c 0
 1119.5234375 824.525390625 1122.12304688 824.979492188 1124.81445312 825 c 0
627.18359375 824.904296875 m 0
 633.204101562 824.377929688 638.643554688 821.715820312 642.681640625 817.677734375 c 0
 647.20703125 813.15234375 650.0078125 806.895507812 650.0078125 799.99609375 c 0
 650.0078125 793.09765625 647.20703125 786.84765625 642.681640625 782.322265625 c 2
 493.69140625 633.33203125 l 1
 493.69140625 633.33203125 642.681640625 484.338867188 642.681640625 484.345703125 c 1
 647.20703125 479.8203125 650.0078125 473.563476562 650.0078125 466.6640625 c 0
 650.0078125 459.765625 647.20703125 453.515625 642.681640625 448.990234375 c 0
 638.15625 444.46484375 631.899414062 441.6640625 625 441.6640625 c 0
 618.1015625 441.6640625 611.8515625 444.46484375 607.326171875 448.990234375 c 2
 607.326171875 448.990234375 440.658203125 615.661132812 440.658203125 615.654296875 c 1
 436.133789062 620.1796875 433.333007812 626.436523438 433.333007812 633.3359375 c 0
 433.333007812 640.234375 436.133789062 646.484375 440.658203125 651.009765625 c 2
 440.658203125 651.009765625 607.336914062 817.670898438 607.326171875 817.677734375 c 1
 610.381835938 820.733398438 614.235351562 822.997070312 618.533203125 824.1484375 c 0
 620.598632812 824.702148438 622.737304688 825.000976562 624.977539062 825.000976562 c 0
 625.720703125 825.000976562 626.456054688 824.967773438 627.18359375 824.904296875 c 0
933.3359375 406.310546875 m 1
 827.02734375 300 l 1
 933.3359375 193.689453125 l 1
 933.3359375 406.310546875 l 1
627.18359375 158.236328125 m 0
 633.204101562 157.709960938 638.643554688 155.047851562 642.681640625 151.009765625 c 0
 647.20703125 146.484375 650.0078125 140.227539062 650.0078125 133.328125 c 0
 650.0078125 126.4296875 647.20703125 120.1796875 642.681640625 115.654296875 c 2
 493.69140625 -33.33203125 l 1
 493.69140625 -33.33203125 642.681640625 -182.329101562 642.681640625 -182.322265625 c 1
 647.20703125 -186.84765625 650.0078125 -193.104492188 650.0078125 -200.00390625 c 0
 650.0078125 -206.90234375 647.20703125 -213.15234375 642.681640625 -217.677734375 c 0
 638.15625 -222.203125 631.899414062 -225.00390625 625 -225.00390625 c 0
 618.1015625 -225.00390625 611.8515625 -222.203125 607.326171875 -217.677734375 c 2
 607.326171875 -217.677734375 440.658203125 -51.0029296875 440.658203125 -51.009765625 c 1
 436.133789062 -46.484375 433.333007812 -40.2275390625 433.333007812 -33.328125 c 0
 433.333007812 -26.4296875 436.133789062 -20.1796875 440.658203125 -15.654296875 c 2
 440.658203125 -15.654296875 607.336914062 151.002929688 607.326171875 151.009765625 c 1
 610.381835938 154.065429688 614.235351562 156.329101562 618.533203125 157.48046875 c 0
 620.598632812 158.034179688 622.737304688 158.333007812 624.977539062 158.333007812 c 0
 625.720703125 158.333007812 626.456054688 158.299804688 627.18359375 158.236328125 c 0
EndSplineSet
EndChar

StartChar: U1222c
Encoding: 275 74284 19
Width: 1250
VWidth: 100
Flags: W
HStem: 275 50<176.463 649.803>
LayerCount: 2
Fore
SplineSet
877.18359375 824.904296875 m 0
 883.204101562 824.377929688 888.643554688 821.715820312 892.681640625 817.677734375 c 0
 897.20703125 813.15234375 900.0078125 806.895507812 900.0078125 799.99609375 c 0
 900.0078125 793.09765625 897.20703125 786.84765625 892.681640625 782.322265625 c 2
 660.359375 550 l 1
 660.359375 550 892.666015625 317.653320312 892.681640625 317.677734375 c 1
 897.20703125 313.15234375 899.9921875 306.877929688 899.9921875 299.978515625 c 0
 899.9921875 294.370117188 898.141601562 289.190429688 895.017578125 285.017578125 c 0
 894.298828125 284.057617188 893.528320312 283.168945312 892.681640625 282.322265625 c 2
 660.359375 50 l 1
 660.359375 50 892.681640625 -182.329101562 892.681640625 -182.322265625 c 1
 897.20703125 -186.84765625 900.0078125 -193.104492188 900.0078125 -200.00390625 c 0
 900.0078125 -206.90234375 897.20703125 -213.15234375 892.681640625 -217.677734375 c 0
 888.15625 -222.203125 881.899414062 -225.00390625 875 -225.00390625 c 0
 868.1015625 -225.00390625 861.8515625 -222.203125 857.326171875 -217.677734375 c 2
 857.326171875 -217.677734375 607.326171875 32.3291015625 607.326171875 32.322265625 c 1
 602.801757812 36.84765625 600.000976562 43.1044921875 600.000976562 50.00390625 c 0
 600.000976562 56.90234375 602.801757812 63.15234375 607.326171875 67.677734375 c 2
 839.6484375 300 l 1
 839.6484375 300 607.326171875 532.329101562 607.326171875 532.322265625 c 1
 602.801757812 536.84765625 600.000976562 543.104492188 600.000976562 550.00390625 c 0
 600.000976562 556.90234375 602.801757812 563.15234375 607.326171875 567.677734375 c 2
 607.326171875 567.677734375 857.336914062 817.670898438 857.326171875 817.677734375 c 1
 860.381835938 820.733398438 864.235351562 822.997070312 868.533203125 824.1484375 c 0
 870.598632812 824.702148438 872.737304688 825.000976562 874.977539062 825.000976562 c 0
 875.720703125 825.000976562 876.456054688 824.967773438 877.18359375 824.904296875 c 0
1127.18359375 824.904296875 m 0
 1133.20410156 824.377929688 1138.64355469 821.715820312 1142.68164062 817.677734375 c 0
 1147.20703125 813.15234375 1150.0078125 806.895507812 1150.0078125 799.99609375 c 0
 1150.0078125 793.09765625 1147.20703125 786.84765625 1142.68164062 782.322265625 c 2
 910.359375 550 l 1
 910.359375 550 1142.66601562 317.653320312 1142.68164062 317.677734375 c 1
 1147.20703125 313.15234375 1149.9921875 306.877929688 1149.9921875 299.978515625 c 0
 1149.9921875 294.370117188 1148.14160156 289.190429688 1145.01757812 285.017578125 c 0
 1144.29882812 284.057617188 1143.52832031 283.168945312 1142.68164062 282.322265625 c 2
 910.359375 50 l 1
 910.359375 50 1142.68164062 -182.329101562 1142.68164062 -182.322265625 c 1
 1147.20703125 -186.84765625 1150.0078125 -193.104492188 1150.0078125 -200.00390625 c 0
 1150.0078125 -206.90234375 1147.20703125 -213.15234375 1142.68164062 -217.677734375 c 0
 1138.15625 -222.203125 1131.89941406 -225.00390625 1125 -225.00390625 c 0
 1118.1015625 -225.00390625 1111.8515625 -222.203125 1107.32617188 -217.677734375 c 2
 1107.32617188 -217.677734375 857.326171875 32.3291015625 857.326171875 32.322265625 c 1
 852.801757812 36.84765625 850.000976562 43.1044921875 850.000976562 50.00390625 c 0
 850.000976562 56.90234375 852.801757812 63.15234375 857.326171875 67.677734375 c 2
 1089.6484375 300 l 1
 1089.6484375 300 857.326171875 532.329101562 857.326171875 532.322265625 c 1
 852.801757812 536.84765625 850.000976562 543.104492188 850.000976562 550.00390625 c 0
 850.000976562 556.90234375 852.801757812 563.15234375 857.326171875 567.677734375 c 2
 857.326171875 567.677734375 1107.33691406 817.670898438 1107.32617188 817.677734375 c 1
 1110.38183594 820.733398438 1114.23535156 822.997070312 1118.53320312 824.1484375 c 0
 1120.59863281 824.702148438 1122.73730469 825.000976562 1124.97753906 825.000976562 c 0
 1125.72070312 825.000976562 1126.45605469 824.967773438 1127.18359375 824.904296875 c 0
123.505859375 491.623046875 m 0
 124.0078125 491.653320312 124.474609375 491.66796875 124.984375 491.66796875 c 0
 126.70703125 491.66796875 128.389648438 491.493164062 130.015625 491.16015625 c 0
 138.801757812 489.362304688 145.926757812 482.954101562 148.720703125 474.57421875 c 0
 164.936523438 425.926757812 174.169921875 375.583007812 176.462890625 325 c 1
 625.00390625 325 l 2
 638.801757812 325 650.00390625 313.797851562 650.00390625 300 c 0
 650.00390625 286.202148438 638.801757812 275 625.00390625 275 c 2
 176.462890625 275 l 1
 174.169921875 224.416992188 164.936523438 174.073242188 148.720703125 125.42578125 c 0
 145.41015625 115.495117188 136.036132812 108.338867188 125 108.338867188 c 0
 122.23828125 108.338867188 119.58203125 108.787109375 117.09765625 109.615234375 c 0
 107.166992188 112.92578125 100.010742188 122.299804688 100.010742188 133.3359375 c 0
 100.010742188 136.09765625 100.458984375 138.75390625 101.287109375 141.23828125 c 0
 118.462890625 192.764648438 127.051757812 246.377929688 127.052734375 299.990234375 c 0
 127.051757812 299.993164062 127.051757812 299.997070312 127.05078125 300 c 0
 127.051757812 300.002929688 127.051757812 300.006835938 127.052734375 300.009765625 c 0
 127.051757812 353.622070312 118.462890625 407.235351562 101.287109375 458.76171875 c 0
 100.458984375 461.24609375 100 463.900390625 100 466.661132812 c 0
 100 477.698242188 107.166992188 487.07421875 117.09765625 490.384765625 c 0
 119.123046875 491.059570312 121.288085938 491.490234375 123.505859375 491.623046875 c 0
EndSplineSet
EndChar

StartChar: U12075
Encoding: 276 73845 20
Width: 2250
VWidth: 100
Flags: W
HStem: 108.328 334.509<1612.97 1836.97> 110.971 47.3164<2136.18 2147.18> 275 50<176.463 823.484> 398.438 49.9602<1599.96 1849.98> 442.951 48.209<1433.47 1525.8 1924.13 2015.16 2136.18 2147.17>
VStem: 100.011 48.71<109.775 214.858 385.142 490.225> 1102.64 47.3457<606.482 655.498> 1508.12 49.748<-373.731 -261.696 861.696 973.731> 1611.09 50<108.533 400.791> 1788.85 50<108.533 400.791>
LayerCount: 2
Fore
SplineSet
1536.40625 973.818359375 m 0x07c0
 1548.51953125 972.087890625 1557.87109375 961.68359375 1557.87109375 949.094726562 c 0
 1557.87109375 947.88671875 1557.78515625 946.698242188 1557.61914062 945.53515625 c 0
 1550.36816406 894.7734375 1536.11328125 845.616210938 1515.54296875 799.349609375 c 1
 1515.54296875 799.349609375 2136.14453125 489.01953125 2136.18359375 489.029296875 c 0
 2144.38867188 484.926757812 2149.98925781 476.43359375 2149.98925781 466.643554688 c 0
 2149.98925781 462.635742188 2149.04492188 458.84765625 2147.36523438 455.48828125 c 0
 2143.26269531 447.284179688 2134.77050781 441.68359375 2124.98046875 441.68359375 c 0
 2120.97265625 441.68359375 2117.18359375 442.62890625 2113.82421875 444.30859375 c 2
 1493.18164062 754.62890625 l 1
 1468.50976562 710.411132812 1437.73730469 669.510742188 1401.47851562 633.251953125 c 0
 1396.953125 628.7265625 1390.69628906 625.92578125 1383.796875 625.92578125 c 0
 1376.8984375 625.92578125 1370.6484375 628.7265625 1366.12304688 633.251953125 c 0
 1361.59765625 637.77734375 1358.796875 644.034179688 1358.796875 650.93359375 c 0
 1358.796875 657.83203125 1361.59765625 664.08203125 1366.12304688 668.607421875 c 0
 1404.52734375 707.01171875 1436.18457031 751.123046875 1460.16210938 799.07421875 c 0
 1460.16308594 799.078125 1460.16503906 799.08203125 1460.16601562 799.0859375 c 0
 1460.16894531 799.08984375 1460.17089844 799.09375 1460.17382812 799.09765625 c 0
 1484.1484375 847.048828125 1500.44335938 898.840820312 1508.12304688 952.60546875 c 0
 1509.85351562 964.71875 1520.2578125 974.0703125 1532.84667969 974.0703125 c 0
 1534.0546875 974.0703125 1535.24316406 973.984375 1536.40625 973.818359375 c 0x07c0
543.8515625 824.904296875 m 0
 549.872070312 824.377929688 555.311523438 821.715820312 559.349609375 817.677734375 c 0
 563.875 813.15234375 566.67578125 806.895507812 566.67578125 799.99609375 c 0
 566.67578125 793.09765625 563.875 786.84765625 559.349609375 782.322265625 c 2
 410.359375 633.33203125 l 1
 410.359375 633.33203125 559.349609375 484.338867188 559.349609375 484.345703125 c 1
 563.875 479.8203125 566.67578125 473.563476562 566.67578125 466.6640625 c 0
 566.67578125 459.765625 563.875 453.515625 559.349609375 448.990234375 c 0
 554.82421875 444.46484375 548.567382812 441.6640625 541.66796875 441.6640625 c 0
 534.76953125 441.6640625 528.51953125 444.46484375 523.994140625 448.990234375 c 2
 523.994140625 448.990234375 357.326171875 615.661132812 357.326171875 615.654296875 c 1
 352.801757812 620.1796875 350.000976562 626.436523438 350.000976562 633.3359375 c 0
 350.000976562 640.234375 352.801757812 646.484375 357.326171875 651.009765625 c 2
 357.326171875 651.009765625 524.004882812 817.670898438 523.994140625 817.677734375 c 1
 527.049804688 820.733398438 530.903320312 822.997070312 535.201171875 824.1484375 c 0
 537.266601562 824.702148438 539.405273438 825.000976562 541.645507812 825.000976562 c 0
 542.388671875 825.000976562 543.124023438 824.967773438 543.8515625 824.904296875 c 0
1123.50585938 658.287109375 m 0
 1124.00878906 658.317382812 1124.51953125 658.317382812 1125.03027344 658.317382812 c 0
 1129.03808594 658.317382812 1132.82714844 657.372070312 1136.18554688 655.693359375 c 0
 1144.38964844 651.590820312 1149.99023438 643.098632812 1149.99023438 633.30859375 c 0
 1149.99023438 629.30078125 1149.04492188 625.51171875 1147.36523438 622.15234375 c 0
 1125.77050781 578.963867188 1100.26074219 538.16015625 1071.328125 500.14453125 c 1
 1192.03125 379.4375 l 1
 1202.40722656 395.358398438 1211.9296875 411.90234375 1220.49414062 429.03125 c 0
 1224.3828125 436.80859375 1232.21386719 442.2578125 1241.35742188 442.806640625 c 0
 1241.86035156 442.836914062 1242.37011719 442.836914062 1242.87988281 442.836914062 c 0
 1246.88769531 442.836914062 1250.67675781 441.891601562 1254.03515625 440.212890625 c 0
 1262.24023438 436.110351562 1267.84082031 427.6171875 1267.84082031 417.827148438 c 0
 1267.84082031 413.819335938 1266.89648438 410.03125 1265.21679688 406.671875 c 0
 1242.28417969 360.806640625 1213.21484375 318.6796875 1179.06835938 281.291015625 c 1
 1179.06835938 281.291015625 1309.34960938 151.002929688 1309.34960938 151.009765625 c 1
 1313.875 146.484375 1316.67578125 140.227539062 1316.67578125 133.328125 c 0
 1316.67578125 126.4296875 1313.875 120.1796875 1309.34960938 115.654296875 c 0
 1304.82421875 111.12890625 1298.56738281 108.328125 1291.66796875 108.328125 c 0x87c0
 1284.76953125 108.328125 1278.51953125 111.12890625 1273.99414062 115.654296875 c 2
 1143.71289062 245.935546875 l 1
 1106.32421875 211.7890625 1064.19628906 182.719726562 1018.33203125 159.787109375 c 0
 1014.97265625 158.107421875 1011.17480469 157.124023438 1007.16699219 157.124023438 c 0
 997.376953125 157.124023438 988.893554688 162.763671875 984.791015625 170.96875 c 0
 983.111328125 174.328125 982.127929688 178.125976562 982.127929688 182.133789062 c 0
 982.127929688 191.923828125 987.767578125 200.407226562 995.97265625 204.509765625 c 0
 1013.1015625 213.07421875 1029.64550781 222.596679688 1045.56640625 232.97265625 c 1
 924.859375 353.67578125 l 1
 886.84375 324.7421875 846.040039062 299.233398438 802.8515625 277.638671875 c 0
 802.567382812 277.555664062 802.2734375 277.475585938 801.984375 277.40234375 c 0
 800.5 276.8359375 798.913085938 276.397460938 797.30859375 276.12109375 c 0
 795.786132812 275.661132812 794.1796875 275.337890625 792.55078125 275.17578125 c 0
 792.26171875 275.112304688 791.96484375 275.052734375 791.671875 275 c 2
 176.462890625 275 l 1
 174.169921875 224.416992188 164.936523438 174.073242188 148.720703125 125.42578125 c 0
 145.41015625 115.495117188 136.036132812 108.338867188 125 108.338867188 c 0
 122.23828125 108.338867188 119.58203125 108.787109375 117.09765625 109.615234375 c 0
 107.166992188 112.92578125 100.010742188 122.299804688 100.010742188 133.3359375 c 0
 100.010742188 136.09765625 100.458984375 138.75390625 101.287109375 141.23828125 c 0
 118.462890625 192.764648438 127.051757812 246.377929688 127.052734375 299.990234375 c 0
 127.051757812 299.993164062 127.051757812 299.997070312 127.05078125 300 c 0
 127.051757812 300.002929688 127.051757812 300.006835938 127.052734375 300.009765625 c 0
 127.051757812 353.622070312 118.462890625 407.235351562 101.287109375 458.76171875 c 0
 100.458984375 461.24609375 100 463.900390625 100 466.661132812 c 0
 100 477.698242188 107.166992188 487.07421875 117.09765625 490.384765625 c 0
 119.58203125 491.212890625 122.223632812 491.666992188 124.985351562 491.666992188 c 0
 126.708007812 491.666992188 128.390625 491.493164062 130.015625 491.16015625 c 0
 138.801757812 489.362304688 145.926757812 482.954101562 148.720703125 474.57421875 c 0
 164.936523438 425.926757812 174.169921875 375.583007812 176.462890625 325 c 1
 785.638671875 325 l 1x2fc0
 922.67578125 394.901367188 1033.79980469 506.828125 1102.64453125 644.513671875 c 0
 1106.53320312 652.290039062 1114.36328125 657.73828125 1123.50585938 658.287109375 c 0
1459.83398438 491.623046875 m 0
 1462.05175781 491.490234375 1464.21679688 491.059570312 1466.2421875 490.384765625 c 0
 1550.21484375 462.394042969 1637.59179688 448.398681641 1724.96875 448.398681641 c 0x17c0
 1812.34570312 448.398681641 1899.72265625 462.394042969 1983.6953125 490.384765625 c 0
 1986.1796875 491.212890625 1988.83398438 491.671875 1991.59472656 491.671875 c 0
 2002.63183594 491.671875 2012.0078125 484.504882812 2015.31835938 474.57421875 c 0
 2016.14648438 472.08984375 2016.60546875 469.435546875 2016.60546875 466.674804688 c 0
 2016.60546875 455.637695312 2009.43847656 446.26171875 1999.5078125 442.951171875 c 0x0fc0
 1946.96679688 425.4375 1893.16308594 413.129882812 1838.84765625 405.943359375 c 1
 1838.84765625 133.33203125 l 2
 1838.84765625 119.534179688 1827.64550781 108.33203125 1813.84765625 108.33203125 c 0
 1800.04980469 108.33203125 1788.84765625 119.534179688 1788.84765625 133.33203125 c 2
 1788.84765625 400.791015625 l 1
 1767.58398438 399.22265625 1746.27734375 398.438476562 1724.97070312 398.438476562 c 0x17c0
 1703.6640625 398.438476562 1682.35742188 399.22265625 1661.09375 400.791015625 c 1
 1661.09375 133.33203125 l 2
 1661.09375 119.534179688 1649.89160156 108.33203125 1636.09375 108.33203125 c 0
 1622.29589844 108.33203125 1611.09375 119.534179688 1611.09375 133.33203125 c 2
 1611.09375 405.943359375 l 1
 1556.77734375 413.129882812 1502.97167969 425.4375 1450.4296875 442.951171875 c 0
 1440.49902344 446.26171875 1433.34277344 455.635742188 1433.34277344 466.671875 c 0
 1433.34277344 469.43359375 1433.79101562 472.08984375 1434.61914062 474.57421875 c 0
 1437.41308594 482.954101562 1444.53808594 489.362304688 1453.32421875 491.16015625 c 0x0fc0
 1454.95019531 491.493164062 1456.59375 491.66796875 1458.31640625 491.66796875 c 0
 1458.82617188 491.66796875 1459.33203125 491.653320312 1459.83398438 491.623046875 c 0
1039.59375 461.16796875 m 1
 1016.12890625 434.1875 990.81640625 408.875 963.8359375 385.41015625 c 1
 1086.484375 262.765625 l 1
 1114.36816406 285.244140625 1139.75976562 310.635742188 1162.23828125 338.51953125 c 1
 1039.59375 461.16796875 l 1
2126.50195312 158.287109375 m 0x47c0
 2135.64550781 157.73828125 2143.4765625 152.2890625 2147.36523438 144.51171875 c 0
 2149.04492188 141.15234375 2150.02832031 137.354492188 2150.02832031 133.346679688 c 0
 2150.02832031 123.556640625 2144.38867188 115.073242188 2136.18359375 110.970703125 c 2
 1515.54296875 -199.349609375 l 1
 1536.11328125 -245.616210938 1550.36816406 -294.7734375 1557.61914062 -345.53515625 c 0
 1557.78515625 -346.698242188 1557.84472656 -347.862304688 1557.84472656 -349.0703125 c 0
 1557.84472656 -361.659179688 1548.51953125 -372.087890625 1536.40625 -373.818359375 c 0
 1535.24316406 -373.984375 1534.07910156 -374.043945312 1532.87109375 -374.043945312 c 0
 1520.28222656 -374.043945312 1509.85351562 -364.71875 1508.12304688 -352.60546875 c 0
 1500.44335938 -298.840820312 1484.1484375 -247.047851562 1460.17382812 -199.095703125 c 0
 1460.17089844 -199.092773438 1460.16894531 -199.088867188 1460.16601562 -199.0859375 c 0
 1460.16503906 -199.08203125 1460.16308594 -199.078125 1460.16210938 -199.07421875 c 0
 1436.18457031 -151.123046875 1404.52734375 -107.01171875 1366.12304688 -68.607421875 c 0
 1361.59765625 -64.08203125 1358.796875 -57.8251953125 1358.796875 -50.92578125 c 0
 1358.796875 -44.02734375 1361.59765625 -37.77734375 1366.12304688 -33.251953125 c 0
 1369.17871094 -30.1962890625 1373.03222656 -27.9326171875 1377.33007812 -26.78125 c 0
 1379.39648438 -26.2275390625 1381.56347656 -25.92578125 1383.80371094 -25.92578125 c 0
 1390.703125 -25.92578125 1396.953125 -28.7265625 1401.47851562 -33.251953125 c 0
 1437.73730469 -69.5107421875 1468.50976562 -110.411132812 1493.18164062 -154.62890625 c 1
 1493.18164062 -154.62890625 2113.828125 155.706054688 2113.82421875 155.69140625 c 1
 2117.18359375 157.372070312 2120.97753906 158.33203125 2124.98632812 158.33203125 c 0
 2125.49511719 158.33203125 2126.00097656 158.317382812 2126.50195312 158.287109375 c 0x47c0
543.8515625 158.236328125 m 0
 549.872070312 157.709960938 555.311523438 155.047851562 559.349609375 151.009765625 c 0
 563.875 146.484375 566.67578125 140.227539062 566.67578125 133.328125 c 0
 566.67578125 126.4296875 563.875 120.1796875 559.349609375 115.654296875 c 2
 410.359375 -33.33203125 l 1
 410.359375 -33.33203125 559.349609375 -182.329101562 559.349609375 -182.322265625 c 1
 563.875 -186.84765625 566.67578125 -193.104492188 566.67578125 -200.00390625 c 0
 566.67578125 -206.90234375 563.875 -213.15234375 559.349609375 -217.677734375 c 0
 554.82421875 -222.203125 548.567382812 -225.00390625 541.66796875 -225.00390625 c 0
 534.76953125 -225.00390625 528.51953125 -222.203125 523.994140625 -217.677734375 c 2
 523.994140625 -217.677734375 357.326171875 -51.0029296875 357.326171875 -51.009765625 c 1
 352.801757812 -46.484375 350.000976562 -40.2275390625 350.000976562 -33.328125 c 0
 350.000976562 -26.4296875 352.801757812 -20.1796875 357.326171875 -15.654296875 c 2
 357.326171875 -15.654296875 524.004882812 151.002929688 523.994140625 151.009765625 c 1
 527.049804688 154.065429688 530.903320312 156.329101562 535.201171875 157.48046875 c 0
 537.266601562 158.034179688 539.405273438 158.333007812 541.645507812 158.333007812 c 0
 542.388671875 158.333007812 543.124023438 158.299804688 543.8515625 158.236328125 c 0
EndSplineSet
EndChar

StartChar: U12226
Encoding: 277 74278 21
Width: 1250
VWidth: 100
Flags: W
HStem: 275 50<176.463 600.004 650.004 1149.8> 776.283 48.209<433.472 539.863 710.151 815.229>
VStem: 100.011 48.71<109.775 214.859 385.141 490.225> 600.004 50<-224.799 275 325 748.541>
LayerCount: 2
Fore
SplineSet
791.482421875 825 m 0
 791.546875 825 791.600585938 825.004882812 791.665039062 825.004882812 c 0
 802.702148438 825.004882812 812.078125 817.836914062 815.388671875 807.90625 c 0
 816.216796875 805.421875 816.67578125 802.767578125 816.67578125 800.006835938 c 0
 816.67578125 788.969726562 809.508789062 779.59375 799.578125 776.283203125 c 0
 750.930664062 760.067382812 700.586914062 750.833984375 650.00390625 748.541015625 c 1
 650.00390625 325 l 1
 1125.00390625 325 l 2
 1138.80175781 325 1150.00390625 313.797851562 1150.00390625 300 c 0
 1150.00390625 286.202148438 1138.80175781 275 1125.00390625 275 c 2
 650.00390625 275 l 1
 650.00390625 -200 l 2
 650.00390625 -213.797851562 638.801757812 -225 625.00390625 -225 c 0
 611.206054688 -225 600.00390625 -213.797851562 600.00390625 -200 c 2
 600.00390625 275 l 1
 176.462890625 275 l 1
 174.169921875 224.416992188 164.936523438 174.073242188 148.720703125 125.42578125 c 0
 145.41015625 115.495117188 136.036132812 108.338867188 125 108.338867188 c 0
 122.23828125 108.338867188 119.58203125 108.787109375 117.09765625 109.615234375 c 0
 107.166992188 112.92578125 100.010742188 122.299804688 100.010742188 133.3359375 c 0
 100.010742188 136.09765625 100.458984375 138.75390625 101.287109375 141.23828125 c 0
 118.462890625 192.765625 127.051757812 246.37890625 127.052734375 299.9921875 c 0
 127.051757812 299.995117188 127.051757812 299.997070312 127.05078125 300 c 0
 127.051757812 300.002929688 127.051757812 300.004882812 127.052734375 300.0078125 c 0
 127.051757812 353.62109375 118.462890625 407.234375 101.287109375 458.76171875 c 0
 100.458984375 461.24609375 100 463.900390625 100 466.661132812 c 0
 100 477.698242188 107.166992188 487.07421875 117.09765625 490.384765625 c 0
 119.58203125 491.212890625 122.223632812 491.666992188 124.985351562 491.666992188 c 0
 126.708007812 491.666992188 128.390625 491.493164062 130.015625 491.16015625 c 0
 138.801757812 489.362304688 145.926757812 482.954101562 148.720703125 474.57421875 c 0
 164.936523438 425.926757812 174.169921875 375.583007812 176.462890625 325 c 1
 600.00390625 325 l 1
 600.00390625 748.541015625 l 1
 549.420898438 750.833984375 499.077148438 760.067382812 450.4296875 776.283203125 c 0
 440.499023438 779.59375 433.342773438 788.967773438 433.342773438 800.00390625 c 0
 433.342773438 802.765625 433.791015625 805.421875 434.619140625 807.90625 c 0
 437.413085938 816.286132812 444.538085938 822.694335938 453.32421875 824.4921875 c 0
 454.94921875 824.825195312 456.6171875 824.993164062 458.340820312 824.993164062 c 0
 461.1015625 824.993164062 463.7578125 824.544921875 466.2421875 823.716796875 c 0
 517.76953125 806.541015625 571.3828125 797.952148438 624.99609375 797.951171875 c 0
 624.999023438 797.952148438 625.000976562 797.952148438 625.00390625 797.953125 c 0
 625.010742188 797.952148438 625.016601562 797.952148438 625.0234375 797.951171875 c 0
 678.6328125 797.953125 732.2421875 806.541992188 783.765625 823.716796875 c 0
 786.19140625 824.525390625 788.791015625 824.979492188 791.482421875 825 c 0
EndSplineSet
EndChar

StartChar: U12047
Encoding: 278 73799 22
Width: 1250
VWidth: 100
Flags: W
HStem: 275 50<176.463 600.004 650.004 1149.8> 776.283 48.209<433.472 539.863 710.151 815.229>
VStem: 100.011 48.71<109.775 214.859 385.141 490.225> 600.004 50<-224.799 275 325 748.541>
LayerCount: 2
Fore
SplineSet
791.482421875 825 m 0
 791.546875 825 791.600585938 825.004882812 791.665039062 825.004882812 c 0
 802.702148438 825.004882812 812.078125 817.836914062 815.388671875 807.90625 c 0
 816.216796875 805.421875 816.67578125 802.767578125 816.67578125 800.006835938 c 0
 816.67578125 788.969726562 809.508789062 779.59375 799.578125 776.283203125 c 0
 750.930664062 760.067382812 700.586914062 750.833984375 650.00390625 748.541015625 c 1
 650.00390625 325 l 1
 1125.00390625 325 l 2
 1138.80175781 325 1150.00390625 313.797851562 1150.00390625 300 c 0
 1150.00390625 286.202148438 1138.80175781 275 1125.00390625 275 c 2
 650.00390625 275 l 1
 650.00390625 -200 l 2
 650.00390625 -213.797851562 638.801757812 -225 625.00390625 -225 c 0
 611.206054688 -225 600.00390625 -213.797851562 600.00390625 -200 c 2
 600.00390625 275 l 1
 176.462890625 275 l 1
 174.169921875 224.416992188 164.936523438 174.073242188 148.720703125 125.42578125 c 0
 145.41015625 115.495117188 136.036132812 108.338867188 125 108.338867188 c 0
 122.23828125 108.338867188 119.58203125 108.787109375 117.09765625 109.615234375 c 0
 107.166992188 112.92578125 100.010742188 122.299804688 100.010742188 133.3359375 c 0
 100.010742188 136.09765625 100.458984375 138.75390625 101.287109375 141.23828125 c 0
 118.462890625 192.765625 127.051757812 246.37890625 127.052734375 299.9921875 c 0
 127.051757812 299.995117188 127.051757812 299.997070312 127.05078125 300 c 0
 127.051757812 300.002929688 127.051757812 300.004882812 127.052734375 300.0078125 c 0
 127.051757812 353.62109375 118.462890625 407.234375 101.287109375 458.76171875 c 0
 100.458984375 461.24609375 100 463.900390625 100 466.661132812 c 0
 100 477.698242188 107.166992188 487.07421875 117.09765625 490.384765625 c 0
 119.58203125 491.212890625 122.223632812 491.666992188 124.985351562 491.666992188 c 0
 126.708007812 491.666992188 128.390625 491.493164062 130.015625 491.16015625 c 0
 138.801757812 489.362304688 145.926757812 482.954101562 148.720703125 474.57421875 c 0
 164.936523438 425.926757812 174.169921875 375.583007812 176.462890625 325 c 1
 600.00390625 325 l 1
 600.00390625 748.541015625 l 1
 549.420898438 750.833984375 499.077148438 760.067382812 450.4296875 776.283203125 c 0
 440.499023438 779.59375 433.342773438 788.967773438 433.342773438 800.00390625 c 0
 433.342773438 802.765625 433.791015625 805.421875 434.619140625 807.90625 c 0
 437.413085938 816.286132812 444.538085938 822.694335938 453.32421875 824.4921875 c 0
 454.94921875 824.825195312 456.6171875 824.993164062 458.340820312 824.993164062 c 0
 461.1015625 824.993164062 463.7578125 824.544921875 466.2421875 823.716796875 c 0
 517.76953125 806.541015625 571.3828125 797.952148438 624.99609375 797.951171875 c 0
 624.999023438 797.952148438 625.000976562 797.952148438 625.00390625 797.953125 c 0
 625.010742188 797.952148438 625.016601562 797.952148438 625.0234375 797.951171875 c 0
 678.6328125 797.953125 732.2421875 806.541992188 783.765625 823.716796875 c 0
 786.19140625 824.525390625 788.791015625 824.979492188 791.482421875 825 c 0
EndSplineSet
EndChar

StartChar: U1244f
Encoding: 279 74831 23
Width: 1250
VWidth: 100
Flags: W
HStem: 275 50<176.463 600.004 650.004 1149.8> 776.283 48.209<433.472 539.863 710.151 815.229>
VStem: 100.011 48.71<109.775 214.859 385.141 490.225> 600.004 50<-224.799 275 325 748.541>
LayerCount: 2
Fore
SplineSet
791.482421875 825 m 0
 791.546875 825 791.600585938 825.004882812 791.665039062 825.004882812 c 0
 802.702148438 825.004882812 812.078125 817.836914062 815.388671875 807.90625 c 0
 816.216796875 805.421875 816.67578125 802.767578125 816.67578125 800.006835938 c 0
 816.67578125 788.969726562 809.508789062 779.59375 799.578125 776.283203125 c 0
 750.930664062 760.067382812 700.586914062 750.833984375 650.00390625 748.541015625 c 1
 650.00390625 325 l 1
 1125.00390625 325 l 2
 1138.80175781 325 1150.00390625 313.797851562 1150.00390625 300 c 0
 1150.00390625 286.202148438 1138.80175781 275 1125.00390625 275 c 2
 650.00390625 275 l 1
 650.00390625 -200 l 2
 650.00390625 -213.797851562 638.801757812 -225 625.00390625 -225 c 0
 611.206054688 -225 600.00390625 -213.797851562 600.00390625 -200 c 2
 600.00390625 275 l 1
 176.462890625 275 l 1
 174.169921875 224.416992188 164.936523438 174.073242188 148.720703125 125.42578125 c 0
 145.41015625 115.495117188 136.036132812 108.338867188 125 108.338867188 c 0
 122.23828125 108.338867188 119.58203125 108.787109375 117.09765625 109.615234375 c 0
 107.166992188 112.92578125 100.010742188 122.299804688 100.010742188 133.3359375 c 0
 100.010742188 136.09765625 100.458984375 138.75390625 101.287109375 141.23828125 c 0
 118.462890625 192.765625 127.051757812 246.37890625 127.052734375 299.9921875 c 0
 127.051757812 299.995117188 127.051757812 299.997070312 127.05078125 300 c 0
 127.051757812 300.002929688 127.051757812 300.004882812 127.052734375 300.0078125 c 0
 127.051757812 353.62109375 118.462890625 407.234375 101.287109375 458.76171875 c 0
 100.458984375 461.24609375 100 463.900390625 100 466.661132812 c 0
 100 477.698242188 107.166992188 487.07421875 117.09765625 490.384765625 c 0
 119.58203125 491.212890625 122.223632812 491.666992188 124.985351562 491.666992188 c 0
 126.708007812 491.666992188 128.390625 491.493164062 130.015625 491.16015625 c 0
 138.801757812 489.362304688 145.926757812 482.954101562 148.720703125 474.57421875 c 0
 164.936523438 425.926757812 174.169921875 375.583007812 176.462890625 325 c 1
 600.00390625 325 l 1
 600.00390625 748.541015625 l 1
 549.420898438 750.833984375 499.077148438 760.067382812 450.4296875 776.283203125 c 0
 440.499023438 779.59375 433.342773438 788.967773438 433.342773438 800.00390625 c 0
 433.342773438 802.765625 433.791015625 805.421875 434.619140625 807.90625 c 0
 437.413085938 816.286132812 444.538085938 822.694335938 453.32421875 824.4921875 c 0
 454.94921875 824.825195312 456.6171875 824.993164062 458.340820312 824.993164062 c 0
 461.1015625 824.993164062 463.7578125 824.544921875 466.2421875 823.716796875 c 0
 517.76953125 806.541015625 571.3828125 797.952148438 624.99609375 797.951171875 c 0
 624.999023438 797.952148438 625.000976562 797.952148438 625.00390625 797.953125 c 0
 625.010742188 797.952148438 625.016601562 797.952148438 625.0234375 797.951171875 c 0
 678.6328125 797.953125 732.2421875 806.541992188 783.765625 823.716796875 c 0
 786.19140625 824.525390625 788.791015625 824.979492188 791.482421875 825 c 0
EndSplineSet
EndChar

StartChar: U122e1
Encoding: 280 74465 24
Width: 917
VWidth: 100
Flags: W
HStem: 275 50<176.463 600.004> 776.283 48.209<433.472 539.863 710.151 815.229>
VStem: 100.011 48.71<109.775 214.858 385.142 490.225> 600.004 50<-224.799 275 325 748.541>
LayerCount: 2
Fore
SplineSet
791.482421875 825 m 0
 791.546875 825 791.600585938 825.004882812 791.665039062 825.004882812 c 0
 802.702148438 825.004882812 812.078125 817.836914062 815.388671875 807.90625 c 0
 816.216796875 805.421875 816.67578125 802.767578125 816.67578125 800.006835938 c 0
 816.67578125 788.969726562 809.508789062 779.59375 799.578125 776.283203125 c 0
 750.930664062 760.067382812 700.586914062 750.833984375 650.00390625 748.541015625 c 1
 650.00390625 -200 l 2
 650.00390625 -213.797851562 638.801757812 -225 625.00390625 -225 c 0
 611.206054688 -225 600.00390625 -213.797851562 600.00390625 -200 c 2
 600.00390625 275 l 1
 176.462890625 275 l 1
 174.169921875 224.416992188 164.936523438 174.073242188 148.720703125 125.42578125 c 0
 145.41015625 115.495117188 136.036132812 108.338867188 125 108.338867188 c 0
 122.23828125 108.338867188 119.58203125 108.787109375 117.09765625 109.615234375 c 0
 107.166992188 112.92578125 100.010742188 122.299804688 100.010742188 133.3359375 c 0
 100.010742188 136.09765625 100.458984375 138.75390625 101.287109375 141.23828125 c 0
 118.462890625 192.764648438 127.051757812 246.377929688 127.052734375 299.990234375 c 0
 127.051757812 299.993164062 127.051757812 299.997070312 127.05078125 300 c 0
 127.051757812 300.002929688 127.051757812 300.006835938 127.052734375 300.009765625 c 0
 127.051757812 353.622070312 118.462890625 407.235351562 101.287109375 458.76171875 c 0
 100.458984375 461.24609375 100 463.900390625 100 466.661132812 c 0
 100 477.698242188 107.166992188 487.07421875 117.09765625 490.384765625 c 0
 119.58203125 491.212890625 122.223632812 491.666992188 124.985351562 491.666992188 c 0
 126.708007812 491.666992188 128.390625 491.493164062 130.015625 491.16015625 c 0
 138.801757812 489.362304688 145.926757812 482.954101562 148.720703125 474.57421875 c 0
 164.936523438 425.926757812 174.169921875 375.583007812 176.462890625 325 c 1
 600.00390625 325 l 1
 600.00390625 748.541015625 l 1
 549.420898438 750.833984375 499.077148438 760.067382812 450.4296875 776.283203125 c 0
 440.499023438 779.59375 433.342773438 788.967773438 433.342773438 800.00390625 c 0
 433.342773438 802.765625 433.791015625 805.421875 434.619140625 807.90625 c 0
 437.413085938 816.286132812 444.538085938 822.694335938 453.32421875 824.4921875 c 0
 454.94921875 824.825195312 456.6171875 824.993164062 458.340820312 824.993164062 c 0
 461.1015625 824.993164062 463.7578125 824.544921875 466.2421875 823.716796875 c 0
 517.76953125 806.541015625 571.3828125 797.952148438 624.99609375 797.951171875 c 0
 624.999023438 797.952148438 625.000976562 797.952148438 625.00390625 797.953125 c 0
 625.010742188 797.952148438 625.016601562 797.952148438 625.0234375 797.951171875 c 0
 678.6328125 797.953125 732.2421875 806.541992188 783.765625 823.716796875 c 0
 786.19140625 824.525390625 788.791015625 824.979492188 791.482421875 825 c 0
EndSplineSet
EndChar

StartChar: U1222e
Encoding: 281 74286 25
Width: 1750
VWidth: 100
Flags: W
HStem: 275 50<176.463 850.004> 442.951 48.209<683.472 789.86 960.155 1065.23>
VStem: 100.011 48.71<109.775 214.858 385.142 490.225> 850.004 50<108.533 275 325 415.209> 943.334 49.1123<-362.654 -283.004>
LayerCount: 2
Fore
SplineSet
967.564453125 963.67578125 m 0
 969.802734375 963.666015625 971.967773438 963.357421875 974.03125 962.794921875 c 0
 984.638671875 959.90234375 992.450195312 950.202148438 992.450195312 938.682617188 c 0
 992.450195312 936.404296875 992.14453125 934.196289062 991.572265625 932.09765625 c 0
 978.081054688 882.625976562 957.836914062 835.615234375 931.685546875 792.255859375 c 1
 931.685546875 792.255859375 1638.83105469 320.840820312 1638.87109375 320.80078125 c 0
 1641.54785156 318.990234375 1643.81542969 316.713867188 1645.6171875 314.03125 c 0
 1645.68066406 313.9765625 1645.7421875 313.922851562 1645.8046875 313.8671875 c 0
 1646.07714844 313.405273438 1646.33691406 312.931640625 1646.58007812 312.451171875 c 0
 1646.95410156 311.833984375 1647.30273438 311.197265625 1647.62304688 310.546875 c 0
 1647.91308594 309.888671875 1648.18066406 309.202148438 1648.4140625 308.515625 c 0
 1648.671875 307.849609375 1648.90722656 307.154296875 1649.10742188 306.462890625 c 0
 1649.27929688 305.763671875 1649.42480469 305.041015625 1649.53710938 304.3203125 c 0
 1649.67578125 303.6171875 1649.78613281 302.8984375 1649.86523438 302.17578125 c 0
 1649.90136719 301.624023438 1649.91992188 301.09765625 1649.91992188 300.536132812 c 0
 1649.91992188 300.356445312 1649.91796875 300.177734375 1649.9140625 300 c 0
 1649.91796875 299.822265625 1649.91992188 299.673828125 1649.91992188 299.495117188 c 0
 1649.91992188 298.93359375 1649.90136719 298.375976562 1649.86523438 297.82421875 c 0
 1649.78613281 297.1015625 1649.67578125 296.3828125 1649.53710938 295.6796875 c 0
 1649.42480469 294.958984375 1649.27929688 294.236328125 1649.10742188 293.537109375 c 0
 1648.90722656 292.845703125 1648.671875 292.150390625 1648.4140625 291.484375 c 0
 1648.18066406 290.797851562 1647.91308594 290.111328125 1647.62304688 289.453125 c 0
 1647.30273438 288.802734375 1646.95410156 288.166015625 1646.58007812 287.548828125 c 0
 1646.33691406 287.068359375 1646.07714844 286.594726562 1645.8046875 286.1328125 c 0
 1645.7421875 286.077148438 1645.68066406 286.0234375 1645.6171875 285.96875 c 0
 1643.81542969 283.286132812 1641.54785156 281.009765625 1638.87109375 279.19921875 c 2
 931.685546875 -192.255859375 l 1
 957.836914062 -235.615234375 978.081054688 -282.625976562 991.572265625 -332.09765625 c 0
 992.14453125 -334.196289062 992.446289062 -336.393554688 992.446289062 -338.672851562 c 0
 992.446289062 -350.192382812 984.638671875 -359.90234375 974.03125 -362.794921875 c 0
 971.932617188 -363.3671875 969.735351562 -363.668945312 967.456054688 -363.668945312 c 0
 955.936523438 -363.668945312 946.2265625 -355.861328125 943.333984375 -345.25390625 c 0
 929.043945312 -292.852539062 906.44921875 -243.4765625 876.708984375 -198.865234375 c 0
 846.96875 -154.254882812 810.080078125 -114.404296875 767.20703125 -81.05859375 c 0
 761.323242188 -76.482421875 757.565429688 -69.328125 757.565429688 -61.3046875 c 0
 757.565429688 -55.5302734375 759.52734375 -50.2109375 762.8203125 -45.9765625 c 0
 767.396484375 -40.0927734375 774.505859375 -36.32421875 782.529296875 -36.32421875 c 0
 783.700195312 -36.32421875 784.852539062 -36.404296875 785.98046875 -36.560546875 c 0
 790.416015625 -37.173828125 794.526367188 -38.96484375 797.90234375 -41.58984375 c 0
 838.37890625 -73.0712890625 873.987304688 -109.837890625 903.953125 -150.654296875 c 1
 1579.93554688 300 l 1
 903.953125 750.654296875 l 1
 873.987304688 709.837890625 838.37890625 673.071289062 797.90234375 641.58984375 c 0
 793.66796875 638.296875 788.33984375 636.3046875 782.565429688 636.3046875 c 0
 774.541992188 636.3046875 767.396484375 640.092773438 762.8203125 645.9765625 c 0
 759.52734375 650.2109375 757.53515625 655.5390625 757.53515625 661.313476562 c 0
 757.53515625 669.336914062 761.323242188 676.482421875 767.20703125 681.05859375 c 0
 810.080078125 714.404296875 846.966796875 754.250976562 876.70703125 798.861328125 c 0
 906.447265625 843.47265625 929.043945312 892.852539062 943.333984375 945.25390625 c 0
 945.674804688 953.833984375 952.479492188 960.5859375 961.08984375 962.8515625 c 0
 963.125976562 963.387695312 965.251953125 963.67578125 967.455078125 963.67578125 c 0
 967.491210938 963.67578125 967.528320312 963.67578125 967.564453125 963.67578125 c 0
1041.48242188 491.66796875 m 0
 1041.546875 491.66796875 1041.60058594 491.672851562 1041.66503906 491.672851562 c 0
 1052.70214844 491.672851562 1062.078125 484.504882812 1065.38867188 474.57421875 c 0
 1066.21679688 472.08984375 1066.67578125 469.435546875 1066.67578125 466.674804688 c 0
 1066.67578125 455.637695312 1059.50878906 446.26171875 1049.578125 442.951171875 c 0
 1000.93066406 426.735351562 950.586914062 417.501953125 900.00390625 415.208984375 c 1
 900.00390625 133.33203125 l 2
 900.00390625 119.534179688 888.801757812 108.33203125 875.00390625 108.33203125 c 0
 861.206054688 108.33203125 850.00390625 119.534179688 850.00390625 133.33203125 c 2
 850.00390625 275 l 1
 176.462890625 275 l 1
 174.169921875 224.416992188 164.936523438 174.073242188 148.720703125 125.42578125 c 0
 145.41015625 115.495117188 136.036132812 108.338867188 125 108.338867188 c 0
 122.23828125 108.338867188 119.58203125 108.787109375 117.09765625 109.615234375 c 0
 107.166992188 112.92578125 100.010742188 122.299804688 100.010742188 133.3359375 c 0
 100.010742188 136.09765625 100.458984375 138.75390625 101.287109375 141.23828125 c 0
 118.462890625 192.764648438 127.051757812 246.377929688 127.052734375 299.990234375 c 0
 127.051757812 299.993164062 127.051757812 299.997070312 127.05078125 300 c 0
 127.051757812 300.002929688 127.051757812 300.006835938 127.052734375 300.009765625 c 0
 127.051757812 353.622070312 118.462890625 407.235351562 101.287109375 458.76171875 c 0
 100.458984375 461.24609375 100 463.900390625 100 466.661132812 c 0
 100 477.698242188 107.166992188 487.07421875 117.09765625 490.384765625 c 0
 119.58203125 491.212890625 122.223632812 491.666992188 124.985351562 491.666992188 c 0
 126.708007812 491.666992188 128.390625 491.493164062 130.015625 491.16015625 c 0
 138.801757812 489.362304688 145.926757812 482.954101562 148.720703125 474.57421875 c 0
 164.936523438 425.926757812 174.169921875 375.583007812 176.462890625 325 c 1
 850.00390625 325 l 1
 850.00390625 415.208984375 l 1
 799.420898438 417.501953125 749.077148438 426.735351562 700.4296875 442.951171875 c 0
 690.499023438 446.26171875 683.342773438 455.635742188 683.342773438 466.671875 c 0
 683.342773438 469.43359375 683.791015625 472.08984375 684.619140625 474.57421875 c 0
 687.413085938 482.954101562 694.538085938 489.362304688 703.32421875 491.16015625 c 0
 704.94921875 491.493164062 706.6171875 491.661132812 708.340820312 491.661132812 c 0
 711.1015625 491.661132812 713.7578125 491.212890625 716.2421875 490.384765625 c 0
 767.767578125 473.209960938 821.379882812 464.620117188 874.9921875 464.619140625 c 0
 874.99609375 464.620117188 875 464.620117188 875.00390625 464.62109375 c 0
 875.013671875 464.620117188 875.0234375 464.620117188 875.033203125 464.619140625 c 0
 928.639648438 464.622070312 982.245117188 473.2109375 1033.765625 490.384765625 c 0
 1036.19140625 491.193359375 1038.79101562 491.647460938 1041.48242188 491.66796875 c 0
EndSplineSet
EndChar

StartChar: U1235a
Encoding: 282 74586 26
Width: 1632
VWidth: 100
Flags: W
HStem: 275 50<176.463 850.004> 776.283 48.209<683.472 789.863 960.151 1065.23>
VStem: 100.011 48.71<109.775 214.858 385.142 490.225> 850.004 50<-224.799 275 341.654 748.541> 1227.64 47.3467<646.264 697.166>
LayerCount: 2
Fore
SplineSet
1041.48242188 825 m 0
 1041.546875 825 1041.60058594 825.004882812 1041.66503906 825.004882812 c 0
 1052.70214844 825.004882812 1062.078125 817.836914062 1065.38867188 807.90625 c 0
 1066.21679688 805.421875 1066.67578125 802.767578125 1066.67578125 800.006835938 c 0
 1066.67578125 788.969726562 1059.50878906 779.59375 1049.578125 776.283203125 c 0
 1000.93066406 760.067382812 950.586914062 750.833984375 900.00390625 748.541015625 c 1
 900.00390625 341.654296875 l 1
 964.462890625 378.052734375 1023.37207031 422.870117188 1075.2421875 474.73828125 c 0
 1075.24511719 474.743164062 1075.24902344 474.747070312 1075.25195312 474.751953125 c 0
 1075.25683594 474.755859375 1075.26269531 474.759765625 1075.26757812 474.763671875 c 0
 1136.6953125 536.194335938 1188.28417969 607.46484375 1227.64257812 686.1796875 c 0
 1231.53125 693.95703125 1239.36230469 699.40625 1248.50585938 699.955078125 c 0
 1249.00878906 699.985351562 1249.51855469 699.985351562 1250.02832031 699.985351562 c 0
 1254.03613281 699.985351562 1257.82519531 699.040039062 1261.18359375 697.361328125 c 0
 1269.38867188 693.258789062 1274.98925781 684.765625 1274.98925781 674.975585938 c 0
 1274.98925781 670.967773438 1274.04492188 667.1796875 1272.36523438 663.8203125 c 0
 1254.484375 628.059570312 1234.20703125 593.758789062 1211.76757812 561.091796875 c 1
 1413.40234375 359.45703125 l 1
 1413.40234375 359.45703125 1489.48535156 435.522460938 1489.47460938 435.529296875 c 1
 1492.53027344 438.584960938 1496.38378906 440.848632812 1500.68164062 442 c 0
 1502.74804688 442.553710938 1504.91503906 442.85546875 1507.15527344 442.85546875 c 0
 1514.0546875 442.85546875 1520.3046875 440.0546875 1524.83007812 435.529296875 c 0
 1529.35546875 431.00390625 1532.15625 424.747070312 1532.15625 417.84765625 c 0
 1532.15625 410.94921875 1529.35546875 404.69921875 1524.83007812 400.173828125 c 2
 1186.21679688 61.560546875 l 1
 1220.36328125 24.171875 1249.43261719 -17.955078125 1272.36523438 -63.818359375 c 0
 1274.04492188 -67.177734375 1275.02929688 -70.9775390625 1275.02929688 -74.986328125 c 0
 1275.02929688 -84.7763671875 1269.390625 -93.2587890625 1261.18554688 -97.361328125 c 0
 1257.82617188 -99.041015625 1254.02636719 -100.025390625 1250.01757812 -100.025390625 c 0
 1240.22851562 -100.025390625 1231.74511719 -94.38671875 1227.64257812 -86.181640625 c 0
 1203.3515625 -37.6005859375 1171.51171875 6.3857421875 1133.59960938 44.298828125 c 0
 1095.6875 82.2119140625 1051.70214844 114.052734375 1003.11914062 138.34375 c 0
 994.915039062 142.446289062 989.314453125 150.938476562 989.314453125 160.728515625 c 0
 989.314453125 164.736328125 990.259765625 168.525390625 991.939453125 171.884765625 c 0
 995.828125 179.662109375 1003.65917969 185.109375 1012.80273438 185.658203125 c 0
 1013.30566406 185.688476562 1013.81542969 185.688476562 1014.32519531 185.688476562 c 0
 1018.33300781 185.688476562 1022.12207031 184.743164062 1025.48046875 183.064453125 c 0
 1071.34570312 160.131835938 1113.47265625 131.0625 1150.86132812 96.916015625 c 1
 1190.546875 136.6015625 l 1
 988.912109375 338.236328125 l 1
 960.478515625 318.705078125 930.80078125 300.822265625 900.00390625 284.724609375 c 1
 900.00390625 -200 l 2
 900.00390625 -213.797851562 888.801757812 -225 875.00390625 -225 c 0
 861.206054688 -225 850.00390625 -213.797851562 850.00390625 -200 c 2
 850.00390625 275 l 1
 176.462890625 275 l 1
 174.169921875 224.416992188 164.936523438 174.073242188 148.720703125 125.42578125 c 0
 145.41015625 115.495117188 136.036132812 108.338867188 125 108.338867188 c 0
 122.23828125 108.338867188 119.58203125 108.787109375 117.09765625 109.615234375 c 0
 107.166992188 112.92578125 100.010742188 122.299804688 100.010742188 133.3359375 c 0
 100.010742188 136.09765625 100.458984375 138.75390625 101.287109375 141.23828125 c 0
 118.462890625 192.764648438 127.051757812 246.377929688 127.052734375 299.990234375 c 0
 127.051757812 299.993164062 127.051757812 299.997070312 127.05078125 300 c 0
 127.051757812 300.002929688 127.051757812 300.006835938 127.052734375 300.009765625 c 0
 127.051757812 353.622070312 118.462890625 407.235351562 101.287109375 458.76171875 c 0
 100.458984375 461.24609375 100 463.900390625 100 466.661132812 c 0
 100 477.698242188 107.166992188 487.07421875 117.09765625 490.384765625 c 0
 119.58203125 491.212890625 122.223632812 491.666992188 124.985351562 491.666992188 c 0
 126.708007812 491.666992188 128.390625 491.493164062 130.015625 491.16015625 c 0
 138.801757812 489.362304688 145.926757812 482.954101562 148.720703125 474.57421875 c 0
 164.936523438 425.926757812 174.169921875 375.583007812 176.462890625 325 c 1
 850.00390625 325 l 1
 850.00390625 748.541015625 l 1
 799.420898438 750.833984375 749.077148438 760.067382812 700.4296875 776.283203125 c 0
 690.499023438 779.59375 683.342773438 788.967773438 683.342773438 800.00390625 c 0
 683.342773438 802.765625 683.791015625 805.421875 684.619140625 807.90625 c 0
 687.413085938 816.286132812 694.538085938 822.694335938 703.32421875 824.4921875 c 0
 704.94921875 824.825195312 706.6171875 824.993164062 708.340820312 824.993164062 c 0
 711.1015625 824.993164062 713.7578125 824.544921875 716.2421875 823.716796875 c 0
 767.76953125 806.541015625 821.3828125 797.952148438 874.99609375 797.951171875 c 0
 874.999023438 797.952148438 875.000976562 797.952148438 875.00390625 797.953125 c 0
 875.010742188 797.952148438 875.016601562 797.952148438 875.0234375 797.951171875 c 0
 928.6328125 797.953125 982.2421875 806.541992188 1033.765625 823.716796875 c 0
 1036.19140625 824.525390625 1038.79101562 824.979492188 1041.48242188 825 c 0
1181.90039062 520.248046875 m 1
 1164.93652344 498.413085938 1146.94238281 477.434570312 1127.99804688 457.361328125 c 1
 1319.65234375 265.70703125 l 1
 1378.046875 324.1015625 l 1
 1181.90039062 520.248046875 l 1
1092.64257812 422.005859375 m 1
 1072.56933594 403.061523438 1051.59082031 385.067382812 1029.75585938 368.103515625 c 1
 1225.90234375 171.95703125 l 1
 1284.296875 230.3515625 l 1
 1092.64257812 422.005859375 l 1
EndSplineSet
EndChar

StartChar: U12137
Encoding: 283 74039 27
Width: 1250
VWidth: 100
Flags: W
HStem: 275 50<176.463 600.004> 748.541 49.4102<480.272 600.004 650.004 769.92 813.422 933.336 983.336 1103.07> 776.283 48.209<433.472 539.863 710.355 872.986 1043.48 1148.56>
VStem: 100.011 48.71<109.775 214.858 385.142 490.225> 600.004 50<-224.799 275 325 748.541> 933.329 50.0065<-224.799 -200 -199.925 31.6445 68.6914 531.309 568.387 748.541>
LayerCount: 2
Fore
SplineSet
791.482421875 825 m 0xbc
 791.73046875 824.966796875 791.98046875 824.9296875 792.2265625 824.888671875 c 0
 794.252929688 824.826171875 796.224609375 824.51953125 798.1015625 824.001953125 c 0
 798.526367188 823.930664062 798.954101562 823.84765625 799.37109375 823.755859375 c 0
 799.439453125 823.743164062 799.509765625 823.73046875 799.578125 823.716796875 c 0
 851.102539062 806.541015625 904.71484375 797.952148438 958.328125 797.951171875 c 0
 958.331054688 797.952148438 958.333007812 797.952148438 958.3359375 797.953125 c 0
 958.342773438 797.952148438 958.348632812 797.952148438 958.35546875 797.951171875 c 0xdc
 1011.96582031 797.953125 1065.57617188 806.541992188 1117.09765625 823.716796875 c 0
 1119.58203125 824.544921875 1122.23632812 825.00390625 1124.99707031 825.00390625 c 0
 1136.03417969 825.00390625 1145.41015625 817.836914062 1148.72070312 807.90625 c 0
 1149.54882812 805.421875 1150.0078125 802.767578125 1150.0078125 800.006835938 c 0
 1150.0078125 788.969726562 1142.84082031 779.59375 1132.91015625 776.283203125 c 0xbc
 1084.26367188 760.067382812 1033.91992188 750.833984375 983.3359375 748.541015625 c 1
 983.3359375 -200 l 2
 983.3359375 -213.797851562 972.133789062 -225 958.3359375 -225 c 0
 944.538085938 -225 933.3359375 -213.797851562 933.3359375 -200 c 2
 933.3359375 -200 933.329427083 -97.0490451389 933.329427083 -28.4136284722 c 0
 933.329427083 5.90407986111 933.331054688 31.6429036458 933.3359375 31.64453125 c 1
 928.895507812 27.609375 922.985351562 25.14453125 916.518554688 25.14453125 c 0
 909.6953125 25.14453125 903.506835938 27.8837890625 898.994140625 32.322265625 c 2
 650.00390625 281.3125 l 1
 650.00390625 -200 l 2
 650.00390625 -213.797851562 638.801757812 -225 625.00390625 -225 c 0
 611.206054688 -225 600.00390625 -213.797851562 600.00390625 -200 c 2
 600.00390625 275 l 1
 176.462890625 275 l 1
 174.169921875 224.416992188 164.936523438 174.073242188 148.720703125 125.42578125 c 0
 145.41015625 115.495117188 136.036132812 108.338867188 125 108.338867188 c 0
 122.23828125 108.338867188 119.58203125 108.787109375 117.09765625 109.615234375 c 0
 107.166992188 112.92578125 100.010742188 122.299804688 100.010742188 133.3359375 c 0
 100.010742188 136.09765625 100.458984375 138.75390625 101.287109375 141.23828125 c 0
 118.462890625 192.764648438 127.051757812 246.377929688 127.052734375 299.990234375 c 0
 127.051757812 299.993164062 127.051757812 299.997070312 127.05078125 300 c 0
 127.051757812 300.002929688 127.051757812 300.006835938 127.052734375 300.009765625 c 0
 127.051757812 353.622070312 118.462890625 407.235351562 101.287109375 458.76171875 c 0
 100.458984375 461.24609375 100 463.900390625 100 466.661132812 c 0
 100 477.698242188 107.166992188 487.07421875 117.09765625 490.384765625 c 0
 119.58203125 491.212890625 122.223632812 491.666992188 124.985351562 491.666992188 c 0
 126.708007812 491.666992188 128.390625 491.493164062 130.015625 491.16015625 c 0
 138.801757812 489.362304688 145.926757812 482.954101562 148.720703125 474.57421875 c 0
 164.936523438 425.926757812 174.169921875 375.583007812 176.462890625 325 c 1
 600.00390625 325 l 1
 600.00390625 748.541015625 l 1xdc
 549.420898438 750.833984375 499.077148438 760.067382812 450.4296875 776.283203125 c 0
 440.499023438 779.59375 433.342773438 788.967773438 433.342773438 800.00390625 c 0
 433.342773438 802.765625 433.791015625 805.421875 434.619140625 807.90625 c 0
 437.413085938 816.286132812 444.538085938 822.694335938 453.32421875 824.4921875 c 0xbc
 454.94921875 824.825195312 456.6171875 824.993164062 458.340820312 824.993164062 c 0
 461.1015625 824.993164062 463.7578125 824.544921875 466.2421875 823.716796875 c 0
 517.76953125 806.541015625 571.3828125 797.952148438 624.99609375 797.951171875 c 0
 624.999023438 797.952148438 625.000976562 797.952148438 625.00390625 797.953125 c 0
 625.010742188 797.952148438 625.016601562 797.952148438 625.0234375 797.951171875 c 0xdc
 678.6328125 797.953125 732.2421875 806.541992188 783.765625 823.716796875 c 0
 784.293945312 823.822265625 784.834960938 823.913085938 785.375 823.984375 c 0
 785.794921875 824.1640625 786.229492188 824.3359375 786.66015625 824.4921875 c 0
 787.6796875 824.627929688 788.696289062 824.702148438 789.75 824.7109375 c 0
 790.318359375 824.826171875 790.900390625 824.923828125 791.482421875 825 c 0xbc
791.671875 773.736328125 m 1
 745.483398438 759.108398438 697.853515625 750.709960938 650.00390625 748.541015625 c 1
 650.00390625 318.6875 l 1
 650.00390625 318.6875 899.004882812 567.670898438 898.994140625 567.677734375 c 1
 902.049804688 570.733398438 905.903320312 572.997070312 910.201171875 574.1484375 c 0
 912.204101562 574.666015625 914.303710938 574.94140625 916.467773438 574.94140625 c 0
 922.965820312 574.94140625 928.888671875 572.45703125 933.3359375 568.38671875 c 1
 933.3359375 748.541015625 l 1
 885.487304688 750.709960938 837.857421875 759.108398438 791.671875 773.736328125 c 1
933.3359375 531.30859375 m 1
 702.02734375 300 l 1
 933.3359375 68.69140625 l 1
 933.3359375 531.30859375 l 1
EndSplineSet
EndChar

StartChar: LIG_MUD
Encoding: 284 -1 28
Width: 1625
VWidth: 100
Flags: W
HStem: 275 50<176.463 766.672> 748.541 49.4102<646.939 766.672 816.672 936.585 980.087 1100 1150 1269.74> 776.283 48.209<600.14 706.53 877.021 1039.65 1210.15 1315.23>
VStem: 100.011 48.71<109.775 214.858 385.142 490.225> 766.672 50<-224.799 275 325 748.541> 1100 50<-224.799 -200 -199.925 31.6484 68.6875 296.848 342.254 531.312 568.385 748.541> 1352.64 47.3457<523.713 572.164>
LayerCount: 2
Fore
SplineSet
958.146484375 825 m 0xbe
 958.39453125 824.966796875 958.64453125 824.9296875 958.890625 824.888671875 c 0
 960.916015625 824.826171875 962.888671875 824.51953125 964.765625 824.001953125 c 0
 965.190429688 823.930664062 965.618164062 823.84765625 966.03515625 823.755859375 c 0
 966.103515625 823.743164062 966.173828125 823.73046875 966.2421875 823.716796875 c 0
 1017.76953125 806.541015625 1071.3828125 797.952148438 1124.99609375 797.951171875 c 0
 1124.99902344 797.952148438 1125.00097656 797.952148438 1125.00390625 797.953125 c 0
 1125.01074219 797.952148438 1125.01660156 797.952148438 1125.0234375 797.951171875 c 0xde
 1178.6328125 797.953125 1232.2421875 806.541992188 1283.765625 823.716796875 c 0
 1286.25 824.544921875 1288.90429688 825.00390625 1291.66503906 825.00390625 c 0
 1302.70214844 825.00390625 1312.078125 817.836914062 1315.38867188 807.90625 c 0
 1316.21679688 805.421875 1316.67578125 802.767578125 1316.67578125 800.006835938 c 0
 1316.67578125 788.969726562 1309.50878906 779.59375 1299.578125 776.283203125 c 0xbe
 1250.93066406 760.067382812 1200.58691406 750.833984375 1150.00390625 748.541015625 c 1
 1150.00390625 342.25390625 l 1
 1236.73046875 394.35546875 1307.14160156 470.180664062 1352.64257812 561.1796875 c 0
 1356.53125 568.95703125 1364.36230469 574.40625 1373.50585938 574.955078125 c 0
 1374.00683594 574.985351562 1374.51660156 574.985351562 1375.02539062 574.985351562 c 0
 1379.03417969 574.985351562 1382.82421875 574.040039062 1386.18359375 572.359375 c 0
 1394.38769531 568.256835938 1399.98828125 559.764648438 1399.98828125 549.974609375 c 0
 1399.98828125 545.966796875 1399.04296875 542.177734375 1397.36328125 538.818359375 c 0
 1386.31347656 516.719726562 1373.90332031 495.451171875 1360.26953125 475.08984375 c 1
 1447.43945312 387.919921875 l 1
 1455.73046875 401.216796875 1463.44042969 414.922851562 1470.49414062 429.03125 c 0
 1474.3828125 436.80859375 1482.21386719 442.2578125 1491.35742188 442.806640625 c 0
 1491.86035156 442.836914062 1492.37011719 442.836914062 1492.87988281 442.836914062 c 0
 1496.88769531 442.836914062 1500.67675781 441.891601562 1504.03515625 440.212890625 c 0
 1512.24023438 436.110351562 1517.84082031 427.6171875 1517.84082031 417.827148438 c 0
 1517.84082031 413.819335938 1516.89648438 410.03125 1515.21679688 406.671875 c 0
 1492.28417969 360.806640625 1463.21484375 318.6796875 1429.06835938 281.291015625 c 1
 1429.06835938 281.291015625 1517.68164062 192.670898438 1517.68164062 192.677734375 c 1
 1522.20703125 188.15234375 1525.0078125 181.895507812 1525.0078125 174.99609375 c 0
 1525.0078125 168.09765625 1522.20703125 161.84765625 1517.68164062 157.322265625 c 0
 1513.15625 152.796875 1506.89941406 149.99609375 1500 149.99609375 c 0
 1493.1015625 149.99609375 1486.8515625 152.796875 1482.32617188 157.322265625 c 2
 1393.71289062 245.935546875 l 1
 1356.32421875 211.7890625 1314.19726562 182.719726562 1268.33203125 159.787109375 c 0
 1264.97265625 158.107421875 1261.17480469 157.124023438 1257.16699219 157.124023438 c 0
 1247.37695312 157.124023438 1238.89355469 162.763671875 1234.79101562 170.96875 c 0
 1233.11132812 174.328125 1232.12792969 178.125976562 1232.12792969 182.133789062 c 0
 1232.12792969 191.923828125 1237.76757812 200.407226562 1245.97265625 204.509765625 c 0
 1260.08007812 211.563476562 1273.78808594 219.2734375 1287.08398438 227.564453125 c 1
 1199.9140625 314.734375 l 1
 1183.83398438 303.967773438 1167.18066406 293.977539062 1150.00390625 284.80859375 c 1
 1150.00390625 -200 l 2
 1150.00390625 -213.797851562 1138.80175781 -225 1125.00390625 -225 c 0
 1111.20605469 -225 1100.00390625 -213.797851562 1100.00390625 -200 c 2
 1100.00390625 -200 1099.99739583 -97.0473090278 1099.99739583 -28.4107349537 c 0
 1099.99739583 5.90755208333 1099.99902344 31.6468098958 1100.00390625 31.6484375 c 1
 1095.56347656 27.611328125 1089.65136719 25.14453125 1083.18261719 25.14453125 c 0
 1076.359375 25.14453125 1070.17089844 27.8837890625 1065.65820312 32.322265625 c 2
 816.671875 281.30859375 l 1
 816.671875 -200 l 2
 816.671875 -213.797851562 805.469726562 -225 791.671875 -225 c 0
 777.874023438 -225 766.671875 -213.797851562 766.671875 -200 c 2
 766.671875 275 l 1
 176.462890625 275 l 1
 174.169921875 224.416992188 164.936523438 174.073242188 148.720703125 125.42578125 c 0
 145.41015625 115.495117188 136.036132812 108.338867188 125 108.338867188 c 0
 122.23828125 108.338867188 119.58203125 108.787109375 117.09765625 109.615234375 c 0
 107.166992188 112.92578125 100.010742188 122.299804688 100.010742188 133.3359375 c 0
 100.010742188 136.09765625 100.458984375 138.75390625 101.287109375 141.23828125 c 0
 118.462890625 192.764648438 127.051757812 246.377929688 127.052734375 299.990234375 c 0
 127.051757812 299.993164062 127.051757812 299.997070312 127.05078125 300 c 0
 127.051757812 300.002929688 127.051757812 300.006835938 127.052734375 300.009765625 c 0
 127.051757812 353.622070312 118.462890625 407.235351562 101.287109375 458.76171875 c 0
 100.458984375 461.24609375 100 463.900390625 100 466.661132812 c 0
 100 477.698242188 107.166992188 487.07421875 117.09765625 490.384765625 c 0
 119.58203125 491.212890625 122.223632812 491.666992188 124.985351562 491.666992188 c 0
 126.708007812 491.666992188 128.390625 491.493164062 130.015625 491.16015625 c 0
 138.801757812 489.362304688 145.926757812 482.954101562 148.720703125 474.57421875 c 0
 164.936523438 425.926757812 174.169921875 375.583007812 176.462890625 325 c 1
 766.671875 325 l 1
 766.671875 748.541015625 l 1xde
 716.087890625 750.833984375 665.744140625 760.067382812 617.09765625 776.283203125 c 0
 607.166992188 779.59375 600.010742188 788.967773438 600.010742188 800.00390625 c 0
 600.010742188 802.765625 600.458984375 805.421875 601.287109375 807.90625 c 0
 604.081054688 816.286132812 611.206054688 822.694335938 619.9921875 824.4921875 c 0xbe
 621.6171875 824.825195312 623.28515625 824.993164062 625.008789062 824.993164062 c 0
 627.76953125 824.993164062 630.42578125 824.544921875 632.91015625 823.716796875 c 0
 684.435546875 806.541015625 738.049804688 797.952148438 791.6640625 797.951171875 c 0
 791.666992188 797.952148438 791.668945312 797.952148438 791.671875 797.953125 c 0
 791.678710938 797.952148438 791.684570312 797.952148438 791.69140625 797.951171875 c 0xde
 845.299804688 797.953125 898.909179688 806.54296875 950.4296875 823.716796875 c 0
 950.958007812 823.822265625 951.499023438 823.913085938 952.0390625 823.984375 c 0
 952.458984375 824.1640625 952.893554688 824.3359375 953.32421875 824.4921875 c 0
 954.34375 824.627929688 955.360351562 824.702148438 956.4140625 824.7109375 c 0
 956.982421875 824.826171875 957.564453125 824.923828125 958.146484375 825 c 0xbe
958.3359375 773.736328125 m 1
 912.149414062 759.108398438 864.520507812 750.709960938 816.671875 748.541015625 c 1
 816.671875 318.69140625 l 1
 816.671875 318.69140625 1065.66894531 567.670898438 1065.65820312 567.677734375 c 1
 1068.71386719 570.733398438 1072.56738281 572.997070312 1076.86523438 574.1484375 c 0
 1078.86816406 574.666015625 1080.96875 574.942382812 1083.1328125 574.942382812 c 0
 1089.63183594 574.942382812 1095.55566406 572.45703125 1100.00390625 568.384765625 c 1
 1100.00390625 748.541015625 l 1
 1052.15429688 750.709960938 1004.5234375 759.108398438 958.3359375 773.736328125 c 1
1100.00390625 531.3125 m 1
 868.69140625 300 l 1
 1100.00390625 68.6875 l 1
 1100.00390625 531.3125 l 1
1330.328125 434.3203125 m 1
 1322.28515625 424.305664062 1313.92871094 414.556640625 1305.25390625 405.10546875 c 1
 1305.25390625 405.10546875 1392.67480469 317.684570312 1392.68164062 317.677734375 c 0
 1392.99804688 317.350585938 1393.29882812 317.021484375 1393.59765625 316.677734375 c 1
 1402.22753906 326.2109375 1410.53320312 336.044921875 1418.41796875 346.23046875 c 1
 1330.328125 434.3203125 l 1
1269.8984375 369.75 m 1
 1260.44726562 361.075195312 1250.69824219 352.71875 1240.68359375 344.67578125 c 1
 1328.7734375 256.5859375 l 1
 1338.99023438 264.49609375 1348.85449219 272.827148438 1358.41601562 281.486328125 c 1
 1358.04296875 281.756835938 1357.68359375 282.032226562 1357.32617188 282.322265625 c 2
 1269.8984375 369.75 l 1
EndSplineSet
Ligature2: "ligsubtable" U12137 U1212d
EndChar

StartChar: U1223a
Encoding: 285 74298 29
Width: 1250
VWidth: 100
Flags: W
HStem: 109.615 48.209<671.582 696.368 696.578 742.01 793.732 862.854> 264.711 48.6973<553.726 600.02 650.02 695.732 697.159 742.871> 276.283 48.6084<176.463 385.738 528.787 599.158 650.753 742.137 832.885 862.853> 752.496 49.3206<277.321 385.738 435.738 544.159 847.928 957.152 1007.15 1115.57> 776.283 48.209<243.023 361.688 459.792 577.151 825.685 830.168 830.362 933.1 1031.2 1148.56>
VStem: 100.011 48.71<109.775 214.857 385.143 490.225> 385.738 50<-224.799 275 325 754.151> 600.02 50<-224.799 267.781> 742.871 50<-224.799 101.113 148.32 267.781> 957.152 50<-224.799 754.13>
LayerCount: 2
Fore
SplineSet
553.404296875 825 m 0x97c0
 553.46875 825 553.522460938 825.004882812 553.586914062 825.004882812 c 0
 564.624023438 825.004882812 574 817.836914062 577.310546875 807.90625 c 0
 578.138671875 805.421875 578.59765625 802.767578125 578.59765625 800.006835938 c 0
 578.59765625 788.969726562 571.430664062 779.59375 561.5 776.283203125 c 0x8fc0
 520.583007812 762.643554688 478.2734375 754.729492188 435.73828125 752.49609375 c 1
 435.73828125 -200 l 2
 435.73828125 -213.797851562 424.536132812 -225 410.73828125 -225 c 0
 396.940429688 -225 385.73828125 -213.797851562 385.73828125 -200 c 2
 385.73828125 275 l 1
 176.462890625 275 l 1
 174.169921875 224.416992188 164.936523438 174.073242188 148.720703125 125.42578125 c 0
 145.41015625 115.495117188 136.036132812 108.338867188 125 108.338867188 c 0
 122.23828125 108.338867188 119.58203125 108.787109375 117.09765625 109.615234375 c 0
 107.166992188 112.92578125 100.010742188 122.299804688 100.010742188 133.3359375 c 0
 100.010742188 136.09765625 100.458984375 138.75390625 101.287109375 141.23828125 c 0
 118.461914062 192.763671875 127.051757812 246.375976562 127.052734375 299.98828125 c 0
 127.051757812 299.9921875 127.051757812 299.99609375 127.05078125 300 c 0
 127.051757812 300.00390625 127.051757812 300.0078125 127.052734375 300.01171875 c 0
 127.051757812 353.624023438 118.462890625 407.235351562 101.287109375 458.76171875 c 0
 100.458984375 461.24609375 100 463.900390625 100 466.661132812 c 0
 100 477.698242188 107.166992188 487.07421875 117.09765625 490.384765625 c 0
 119.58203125 491.212890625 122.223632812 491.666992188 124.985351562 491.666992188 c 0
 126.708007812 491.666992188 128.390625 491.493164062 130.015625 491.16015625 c 0
 138.801757812 489.362304688 145.926757812 482.954101562 148.720703125 474.57421875 c 0
 164.936523438 425.926757812 174.169921875 375.583007812 176.462890625 325 c 1
 385.73828125 325 l 1
 385.73828125 752.49609375 l 1x97c0
 343.204101562 754.729492188 300.896484375 762.643554688 259.98046875 776.283203125 c 0
 250.049804688 779.59375 242.893554688 788.967773438 242.893554688 800.00390625 c 0
 242.893554688 802.765625 243.341796875 805.421875 244.169921875 807.90625 c 0
 246.963867188 816.286132812 254.088867188 822.694335938 262.875 824.4921875 c 0x8fc0
 264.5 824.825195312 266.16796875 824.993164062 267.891601562 824.993164062 c 0
 270.65234375 824.993164062 273.30859375 824.544921875 275.79296875 823.716796875 c 0
 319.591796875 809.116699219 365.165771484 801.816650391 410.739868164 801.816650391 c 0
 456.313964844 801.816650391 501.888183594 809.116699219 545.6875 823.716796875 c 0
 548.11328125 824.525390625 550.712890625 824.979492188 553.404296875 825 c 0x97c0
1124.81445312 825 m 0
 1124.87890625 825 1124.93261719 825.004882812 1124.99707031 825.004882812 c 0
 1136.03417969 825.004882812 1145.41015625 817.836914062 1148.72070312 807.90625 c 0
 1149.54882812 805.421875 1150.0078125 802.767578125 1150.0078125 800.006835938 c 0
 1150.0078125 788.969726562 1142.84082031 779.59375 1132.91015625 776.283203125 c 0xcfc0
 1091.99414062 762.643554688 1049.68652344 754.729492188 1007.15234375 752.49609375 c 1
 1007.15234375 -200 l 2
 1007.15234375 -213.797851562 995.950195312 -225 982.15234375 -225 c 0
 968.354492188 -225 957.15234375 -213.797851562 957.15234375 -200 c 2
 957.15234375 752.49609375 l 1
 915.060546875 754.706054688 873.192382812 762.491210938 832.671875 775.87109375 c 1
 606.80078125 550 l 1
 606.80078125 550 832.7734375 324.021484375 832.787109375 324.013671875 c 0
 834.875976562 324.581054688 837.059570312 324.891601562 839.327148438 324.891601562 c 0
 850.323242188 324.891601562 859.670898438 317.77734375 863.013671875 307.904296875 c 0
 863.840820312 305.420898438 864.299804688 302.766601562 864.299804688 300.006835938 c 0
 864.299804688 288.969726562 857.131835938 279.592773438 847.201171875 276.283203125 c 0xb7c0
 829.474609375 270.375 811.248046875 266.55078125 792.87109375 264.7109375 c 1
 792.87109375 148.3203125 l 1
 805.89453125 149.954101562 818.798828125 152.8515625 831.390625 157.048828125 c 0
 833.875 157.876953125 836.529296875 158.3359375 839.290039062 158.3359375 c 0
 850.327148438 158.3359375 859.704101562 151.16796875 863.013671875 141.236328125 c 0
 863.840820312 138.752929688 864.299804688 136.098632812 864.299804688 133.338867188 c 0
 864.299804688 122.301757812 857.131835938 112.924804688 847.201171875 109.615234375 c 0
 829.474609375 103.70703125 811.248046875 99.8828125 792.87109375 98.04296875 c 1
 792.87109375 -200 l 2
 792.87109375 -213.797851562 781.668945312 -225 767.87109375 -225 c 0
 754.073242188 -225 742.87109375 -213.797851562 742.87109375 -200 c 2
 742.87109375 98.04296875 l 1
 724.494140625 99.8828125 706.267578125 103.70703125 688.541015625 109.615234375 c 0
 678.610351562 112.924804688 671.453125 122.298828125 671.453125 133.336914062 c 0
 671.453125 136.096679688 671.901367188 138.752929688 672.728515625 141.236328125 c 0
 675.521484375 149.6171875 682.647460938 156.026367188 691.43359375 157.82421875 c 0
 693.05859375 158.15625 694.7265625 158.325195312 696.448242188 158.325195312 c 0
 699.208984375 158.325195312 701.866210938 157.876953125 704.349609375 157.048828125 c 0
 716.94140625 152.8515625 729.846679688 149.954101562 742.87109375 148.3203125 c 1
 742.87109375 264.7109375 l 1
 727.213867188 266.279296875 711.666992188 269.284179688 696.4453125 273.8046875 c 1
 681.223632812 269.284179688 665.676757812 266.278320312 650.01953125 264.7109375 c 1
 650.01953125 -200 l 2
 650.01953125 -213.797851562 638.817382812 -225 625.01953125 -225 c 0
 611.221679688 -225 600.01953125 -213.797851562 600.01953125 -200 c 2
 600.01953125 264.7109375 l 1xc7c0
 581.642578125 266.55078125 563.416015625 270.375 545.689453125 276.283203125 c 0xa7c0
 535.758789062 279.592773438 528.6015625 288.966796875 528.6015625 300.004882812 c 0
 528.6015625 302.764648438 529.049804688 305.420898438 529.876953125 307.904296875 c 0
 532.669921875 316.28515625 539.795898438 322.694335938 548.58203125 324.4921875 c 0
 550.20703125 324.82421875 551.875 324.993164062 553.596679688 324.993164062 c 0
 556.357421875 324.993164062 559.014648438 324.544921875 561.498046875 323.716796875 c 0
 582.112304688 316.845703125 603.561523438 313.409179688 625.009765625 313.408203125 c 0
 625.012695312 313.409179688 625.016601562 313.409179688 625.01953125 313.41015625 c 0
 625.02734375 313.409179688 625.03515625 313.409179688 625.04296875 313.408203125 c 0
 646.487304688 313.411132812 667.930664062 316.84765625 688.541015625 323.716796875 c 0
 688.984375 323.82421875 689.440429688 323.920898438 689.892578125 324.00390625 c 0
 690.39453125 324.180664062 690.916992188 324.346679688 691.43359375 324.4921875 c 0
 691.977539062 324.573242188 692.525390625 324.63671875 693.080078125 324.681640625 c 0
 693.62109375 324.762695312 694.166992188 324.825195312 694.71875 324.87109375 c 0
 695.271484375 324.907226562 695.78125 324.926757812 696.342773438 324.926757812 c 0
 697.16015625 324.926757812 697.966796875 324.887695312 698.763671875 324.810546875 c 0
 699.12109375 324.795898438 699.46875 324.775390625 699.822265625 324.74609375 c 0
 701.37109375 324.54296875 702.903320312 324.190429688 704.349609375 323.716796875 c 0
 724.963867188 316.845703125 746.413085938 313.409179688 767.861328125 313.408203125 c 0
 767.864257812 313.409179688 767.868164062 313.409179688 767.87109375 313.41015625 c 0
 767.87890625 313.409179688 767.88671875 313.409179688 767.89453125 313.408203125 c 0xc7c0
 769.458984375 313.408203125 771.021484375 313.466796875 772.5859375 313.50390625 c 1
 772.5859375 313.50390625 553.767578125 532.329101562 553.767578125 532.322265625 c 1
 549.243164062 536.84765625 546.442382812 543.104492188 546.442382812 550.00390625 c 0
 546.442382812 556.90234375 549.243164062 563.15234375 553.767578125 567.677734375 c 2
 553.767578125 567.677734375 803.778320312 817.670898438 803.767578125 817.677734375 c 1
 806.823242188 820.733398438 810.676757812 822.997070312 814.974609375 824.1484375 c 0
 816.919921875 824.634765625 818.958007812 824.884765625 821.052734375 824.884765625 c 0
 824.3203125 824.884765625 827.44140625 824.256835938 830.302734375 823.115234375 c 0
 831.568359375 823.676757812 832.919921875 824.145507812 834.28515625 824.4921875 c 0
 835.91015625 824.825195312 837.578125 824.993164062 839.301757812 824.993164062 c 0
 842.0625 824.993164062 844.71875 824.544921875 847.203125 823.716796875 c 0
 891.00390625 809.116210938 936.579101562 801.81640625 982.15234375 801.81640625 c 0
 1027.72558594 801.81640625 1073.29882812 809.116210938 1117.09765625 823.716796875 c 0
 1119.5234375 824.525390625 1122.12304688 824.979492188 1124.81445312 825 c 0
EndSplineSet
EndChar

StartChar: U122e5
Encoding: 286 74469 30
Width: 1750
VWidth: 100
Flags: W
HStem: 275 50<176.463 733.135 1016.87 1649.8> 720.911 49.9949<727.574 1022.43> 776.283 48.7207<516.864 604.396 1145.61 1231.89>
VStem: 738.895 50<-224.799 724.352> 961.113 50<-224.799 724.352>
LayerCount: 2
Fore
SplineSet
543.169921875 824.955078125 m 0
 545.387695312 824.822265625 547.552734375 824.391601562 549.578125 823.716796875 c 0
 655.196777344 788.509277344 765.100097656 770.905517578 875.003540039 770.905517578 c 0
 984.906982422 770.905517578 1094.81054688 788.509277344 1200.4296875 823.716796875 c 0
 1202.9140625 824.544921875 1205.56835938 825.00390625 1208.32910156 825.00390625 c 0
 1219.36621094 825.00390625 1228.7421875 817.836914062 1232.05273438 807.90625 c 0
 1232.88085938 805.421875 1233.33984375 802.767578125 1233.33984375 800.006835938 c 0
 1233.33984375 788.969726562 1226.17285156 779.59375 1216.2421875 776.283203125 c 0
 1149.18359375 753.9296875 1080.47167969 738.390625 1011.11328125 729.572265625 c 1
 1011.11328125 -200 l 2
 1011.11328125 -213.797851562 999.911132812 -225 986.11328125 -225 c 0
 972.315429688 -225 961.11328125 -213.797851562 961.11328125 -200 c 2
 961.11328125 724.3515625 l 1
 932.456542969 722.057617188 903.730224609 720.910644531 875.00390625 720.910644531 c 0
 846.277587891 720.910644531 817.551269531 722.057617188 788.89453125 724.3515625 c 1
 788.89453125 -200 l 2
 788.89453125 -213.797851562 777.692382812 -225 763.89453125 -225 c 0
 750.096679688 -225 738.89453125 -213.797851562 738.89453125 -200 c 2
 738.89453125 729.572265625 l 1
 669.536132812 738.390625 600.82421875 753.9296875 533.765625 776.283203125 c 0
 523.834960938 779.59375 516.678710938 788.967773438 516.678710938 800.00390625 c 0
 516.678710938 802.765625 517.126953125 805.421875 517.955078125 807.90625 c 0
 520.749023438 816.286132812 527.874023438 822.694335938 536.66015625 824.4921875 c 0
 538.286132812 824.825195312 539.9296875 825 541.65234375 825 c 0
 542.162109375 825 542.66796875 824.985351562 543.169921875 824.955078125 c 0
123.505859375 491.623046875 m 0
 124.0078125 491.653320312 124.474609375 491.66796875 124.984375 491.66796875 c 0
 126.70703125 491.66796875 128.389648438 491.493164062 130.015625 491.16015625 c 0
 138.801757812 489.362304688 145.926757812 482.954101562 148.720703125 474.57421875 c 0
 164.936523438 425.926757812 174.169921875 375.583007812 176.462890625 325 c 1
 708.3359375 325 l 2
 722.133789062 325 733.3359375 313.797851562 733.3359375 300 c 0
 733.3359375 286.202148438 722.133789062 275 708.3359375 275 c 2
 176.462890625 275 l 1
 174.169921875 224.416992188 164.936523438 174.073242188 148.720703125 125.42578125 c 0
 145.41015625 115.495117188 136.036132812 108.338867188 125 108.338867188 c 0
 122.23828125 108.338867188 119.58203125 108.787109375 117.09765625 109.615234375 c 0
 107.166992188 112.92578125 100.010742188 122.299804688 100.010742188 133.3359375 c 0
 100.010742188 136.09765625 100.458984375 138.75390625 101.287109375 141.23828125 c 0
 118.462890625 192.764648438 127.051757812 246.377929688 127.052734375 299.990234375 c 0
 127.051757812 299.993164062 127.051757812 299.997070312 127.05078125 300 c 0
 127.051757812 300.002929688 127.051757812 300.006835938 127.052734375 300.009765625 c 0
 127.051757812 353.622070312 118.462890625 407.235351562 101.287109375 458.76171875 c 0
 100.458984375 461.24609375 100 463.900390625 100 466.661132812 c 0
 100 477.698242188 107.166992188 487.07421875 117.09765625 490.384765625 c 0
 119.123046875 491.059570312 121.288085938 491.490234375 123.505859375 491.623046875 c 0
1041.671875 325 m 2
 1625.00390625 325 l 2
 1638.80175781 325 1650.00390625 313.797851562 1650.00390625 300 c 0
 1650.00390625 286.202148438 1638.80175781 275 1625.00390625 275 c 2
 1041.671875 275 l 1
 1027.87402344 275 1016.671875 286.202148438 1016.671875 300 c 0
 1016.671875 313.797851562 1027.87402344 325 1041.671875 325 c 2
EndSplineSet
EndChar

StartChar: U12100
Encoding: 287 73984 31
Width: 1650
VWidth: 100
Flags: W
HStem: 275 50<176.463 716.471> 720.911 49.9949<710.907 1005.77> 776.283 48.7207<500.196 587.729 1128.95 1215.23>
VStem: 722.227 50<-224.799 724.352> 944.449 50<-224.799 724.352>
LayerCount: 2
Fore
SplineSet
526.501953125 824.955078125 m 0
 528.719726562 824.822265625 530.884765625 824.391601562 532.91015625 823.716796875 c 0
 638.53125 788.509277344 748.434570312 770.905517578 858.337890625 770.905517578 c 0
 968.241210938 770.905517578 1078.14453125 788.509277344 1183.765625 823.716796875 c 0
 1186.25 824.544921875 1188.90429688 825.00390625 1191.66503906 825.00390625 c 0
 1202.70214844 825.00390625 1212.078125 817.836914062 1215.38867188 807.90625 c 0
 1216.21679688 805.421875 1216.67578125 802.767578125 1216.67578125 800.006835938 c 0
 1216.67578125 788.969726562 1209.50878906 779.59375 1199.578125 776.283203125 c 0
 1132.51855469 753.9296875 1063.80664062 738.390625 994.44921875 729.572265625 c 1
 994.44921875 -200 l 2
 994.44921875 -213.797851562 983.247070312 -225 969.44921875 -225 c 0
 955.651367188 -225 944.44921875 -213.797851562 944.44921875 -200 c 2
 944.44921875 724.3515625 l 1
 915.791503906 722.057617188 887.064697266 720.910644531 858.337890625 720.910644531 c 0
 829.611083984 720.910644531 800.884277344 722.057617188 772.2265625 724.3515625 c 1
 772.2265625 -200 l 2
 772.2265625 -213.797851562 761.024414062 -225 747.2265625 -225 c 0
 733.428710938 -225 722.2265625 -213.797851562 722.2265625 -200 c 2
 722.2265625 729.572265625 l 1
 652.869140625 738.390625 584.157226562 753.9296875 517.09765625 776.283203125 c 0
 507.166992188 779.59375 500.010742188 788.967773438 500.010742188 800.00390625 c 0
 500.010742188 802.765625 500.458984375 805.421875 501.287109375 807.90625 c 0
 504.081054688 816.286132812 511.206054688 822.694335938 519.9921875 824.4921875 c 0
 521.618164062 824.825195312 523.26171875 825 524.984375 825 c 0
 525.494140625 825 526 824.985351562 526.501953125 824.955078125 c 0
1323.50585938 624.955078125 m 0
 1324.00878906 624.985351562 1324.51855469 624.985351562 1325.02832031 624.985351562 c 0
 1329.03613281 624.985351562 1332.82519531 624.040039062 1336.18359375 622.361328125 c 0
 1344.38867188 618.258789062 1349.98925781 609.765625 1349.98925781 599.975585938 c 0
 1349.98925781 595.967773438 1349.04492188 592.1796875 1347.36523438 588.8203125 c 0
 1333.58300781 561.256835938 1318.01953125 534.780273438 1300.86914062 509.490234375 c 1
 1450.01171875 360.34765625 l 1
 1450.01171875 360.34765625 1507.34472656 417.663085938 1507.33398438 417.669921875 c 1
 1510.38964844 420.725585938 1514.24316406 422.989257812 1518.54101562 424.140625 c 0
 1520.60742188 424.694335938 1522.77441406 424.99609375 1525.01464844 424.99609375 c 0
 1531.9140625 424.99609375 1538.1640625 422.1953125 1542.68945312 417.669921875 c 0
 1547.21484375 413.14453125 1550.015625 406.887695312 1550.015625 399.98828125 c 0
 1550.015625 393.08984375 1547.21484375 386.83984375 1542.68945312 382.314453125 c 2
 1276.109375 115.734375 l 1
 1304.26464844 84.4267578125 1328.29785156 49.3154296875 1347.36523438 11.1796875 c 0
 1349.04492188 7.8203125 1350.02832031 4.0224609375 1350.02832031 0.0146484375 c 0
 1350.02832031 -9.775390625 1344.38867188 -18.2587890625 1336.18359375 -22.361328125 c 0
 1332.82519531 -24.041015625 1329.02636719 -25.0244140625 1325.01855469 -25.0244140625 c 0
 1315.22851562 -25.0244140625 1306.74511719 -19.384765625 1302.64257812 -11.1796875 c 0
 1282.21777344 29.6708984375 1255.4453125 66.6572265625 1223.56640625 98.537109375 c 0
 1223.56445312 98.5380859375 1223.5625 98.5400390625 1223.56054688 98.541015625 c 2
 1223.55664062 98.546875 l 1
 1191.67578125 130.426757812 1154.68847656 157.200195312 1113.8359375 177.626953125 c 0
 1105.63085938 181.729492188 1100.03027344 190.22265625 1100.03027344 200.012695312 c 0
 1100.03027344 204.020507812 1100.97460938 207.80859375 1102.65429688 211.16796875 c 0
 1106.54296875 218.9453125 1114.37402344 224.39453125 1123.51757812 224.943359375 c 0
 1124.02050781 224.973632812 1124.53125 224.973632812 1125.04199219 224.973632812 c 0
 1129.04980469 224.973632812 1132.83886719 224.028320312 1136.19726562 222.349609375 c 0
 1174.33300781 203.280273438 1209.4453125 179.24609375 1240.75390625 151.08984375 c 1
 1264.65625 174.9921875 l 1
 1115.51367188 324.134765625 l 1
 1090.22363281 306.984375 1063.74707031 291.420898438 1036.18359375 277.638671875 c 0
 1032.82519531 275.958984375 1029.02636719 274.975585938 1025.01855469 274.975585938 c 0
 1015.22851562 274.975585938 1006.74511719 280.615234375 1002.64257812 288.8203125 c 0
 1000.96289062 292.1796875 999.979492188 295.977539062 999.979492188 299.985351562 c 0
 999.979492188 309.775390625 1005.61914062 318.258789062 1013.82421875 322.361328125 c 0
 1076.31152344 353.604492188 1132.88867188 394.559570312 1181.65625 443.32421875 c 0
 1181.65917969 443.329101562 1181.66308594 443.333007812 1181.66601562 443.337890625 c 0
 1181.67089844 443.341796875 1181.67675781 443.345703125 1181.68164062 443.349609375 c 0
 1230.4453125 492.116210938 1271.39941406 548.693359375 1302.64257812 611.1796875 c 0
 1306.53125 618.95703125 1314.36230469 624.40625 1323.50585938 624.955078125 c 0
123.505859375 491.623046875 m 0
 124.0078125 491.653320312 124.474609375 491.66796875 124.984375 491.66796875 c 0
 126.70703125 491.66796875 128.389648438 491.493164062 130.015625 491.16015625 c 0
 138.801757812 489.362304688 145.926757812 482.954101562 148.720703125 474.57421875 c 0
 164.936523438 425.926757812 174.169921875 375.583007812 176.462890625 325 c 1
 691.671875 325 l 2
 705.469726562 325 716.671875 313.797851562 716.671875 300 c 0
 716.671875 286.202148438 705.469726562 275 691.671875 275 c 2
 176.462890625 275 l 1
 174.169921875 224.416992188 164.936523438 174.073242188 148.720703125 125.42578125 c 0
 145.41015625 115.495117188 136.036132812 108.338867188 125 108.338867188 c 0
 122.23828125 108.338867188 119.58203125 108.787109375 117.09765625 109.615234375 c 0
 107.166992188 112.92578125 100.010742188 122.299804688 100.010742188 133.3359375 c 0
 100.010742188 136.09765625 100.458984375 138.75390625 101.287109375 141.23828125 c 0
 118.462890625 192.764648438 127.051757812 246.377929688 127.052734375 299.990234375 c 0
 127.051757812 299.993164062 127.051757812 299.997070312 127.05078125 300 c 0
 127.051757812 300.002929688 127.051757812 300.006835938 127.052734375 300.009765625 c 0
 127.051757812 353.622070312 118.462890625 407.235351562 101.287109375 458.76171875 c 0
 100.458984375 461.24609375 100 463.900390625 100 466.661132812 c 0
 100 477.698242188 107.166992188 487.07421875 117.09765625 490.384765625 c 0
 119.123046875 491.059570312 121.288085938 491.490234375 123.505859375 491.623046875 c 0
1270.98046875 468.66796875 m 1
 1259.34765625 453.943359375 1247.13183594 439.708984375 1234.3671875 425.9921875 c 1
 1375.01171875 285.34765625 l 1
 1414.65625 324.9921875 l 1
 1270.98046875 468.66796875 l 1
1199.01171875 390.63671875 m 1
 1185.29492188 377.872070312 1171.06054688 365.65625 1156.3359375 354.0234375 c 1
 1300.01171875 210.34765625 l 1
 1339.65625 249.9921875 l 1
 1199.01171875 390.63671875 l 1
EndSplineSet
EndChar

